<svg width="196" height="56" viewBox="0 0 196 56" fill="none" xmlns="http://www.w3.org/2000/svg">
<g clip-path="url(#clip0)">
    <path d="M55.2724 40.8054H67.4923V44.2775H59.2444V46.2313H63.1011C66.6329 46.2313 68.6765 48.2912 68.6765 51.1156C68.6765 53.94 66.6434 56 63.1011 56H55.2829V40.8054H55.2724ZM62.881 52.5278C63.9709 52.5278 64.5998 51.8801 64.5998 51.1156C64.5998 50.3511 63.9814 49.7034 62.881 49.7034H59.2339V52.5278H62.881Z" fill="#8e369a"></path>
    <path d="M74.1891 40.8054H81.4728L85.5496 56.0106H81.4728L80.7182 52.9738H74.9331L74.1786 56.0106H70.1123L74.1891 40.8054ZM79.8693 49.491L78.5802 44.5005H77.0816L75.7925 49.491H79.8693Z" fill="#8e369a"></path>
    <path d="M91.1879 40.8054H98.4717L102.433 56.0106H98.4717L95.4743 44.4899H94.1853L91.1879 56H87.2264L91.1879 40.8054Z" fill="#8e369a"></path>
    <path d="M55.2724 16.0334H59.2234V27.5116H64.3587V16.0334H68.3097V27.5116H70.2381V33.7976H66.4966V31.1961H55.2724V16.0334Z" fill="#8e369a"></path>
    <path d="M72.9734 16.0334H76.9244V23.5086L76.5995 25.4623H76.8091L82.2588 16.0334H86.8596V31.1961H82.9086V23.721L83.2335 21.7672H83.0239L77.5742 31.1961H72.9734V16.0334Z" fill="#8e369a"></path>
    <path d="M97.2036 16.5748V15.0565H101.155V16.5748C105.776 16.8084 108.742 19.8028 108.742 23.5085C108.742 27.2142 105.766 30.2085 101.155 30.4421V31.9605H97.2036V30.4421C92.5818 30.2085 89.616 27.2142 89.616 23.5085C89.616 19.8028 92.5923 16.8084 97.2036 16.5748ZM97.2036 26.8638V20.1425C95.1495 20.2487 93.7871 21.6609 93.7871 23.4979C93.7871 25.3454 95.16 26.7576 97.2036 26.8638ZM101.165 26.8638C103.219 26.7576 104.582 25.3454 104.582 23.5085C104.582 21.6715 103.209 20.2593 101.165 20.1532V26.8638Z" fill="#8e369a"></path>
    <path d="M111.509 16.0334H118.782C122.545 16.0334 124.987 18.5287 124.987 21.5549C124.987 24.581 122.545 27.0763 118.782 27.0763H115.471V31.1961H111.52V16.0334H111.509ZM118.677 23.4024C120.197 23.4024 120.92 22.6698 120.92 21.5655C120.92 20.4612 120.197 19.7286 118.677 19.7286H115.471V23.413H118.677V23.4024Z" fill="#8e369a"></path>
    <path d="M135.603 15.5981C140.518 15.5981 143.945 19.2826 143.945 23.6148C143.945 27.947 140.529 31.6315 135.603 31.6315C130.688 31.6315 127.261 27.947 127.261 23.6148C127.261 19.2826 130.677 15.5981 135.603 15.5981ZM135.603 27.947C138.066 27.947 139.774 26.2162 139.774 23.6148C139.774 21.0133 138.066 19.2826 135.603 19.2826C133.14 19.2826 131.432 21.0133 131.432 23.6148C131.432 26.2162 133.14 27.947 135.603 27.947Z" fill="#8e369a"></path>
    <path d="M146.827 16.0334H154.844C158.03 16.0334 159.76 17.7642 159.76 19.8241C159.76 21.1195 159.162 21.9265 158.586 22.3831C158.219 22.6379 157.842 22.8397 157.412 22.9671V23.0733C157.946 23.2219 158.418 23.4449 158.848 23.7422C159.592 24.2625 160.304 25.1969 160.304 26.7578C160.304 29.253 158.376 31.1961 154.635 31.1961H146.827V16.0334ZM153.995 21.884C155.085 21.884 155.599 21.3425 155.599 20.5886C155.599 19.8347 155.085 19.2932 153.995 19.2932H150.788V21.8947H153.995V21.884ZM154.205 27.947C155.599 27.947 156.238 27.2993 156.238 26.4286C156.238 25.5579 155.599 24.9102 154.205 24.9102H150.788V27.947H154.205Z" fill="#8e369a"></path>
    <path d="M170.869 15.5981C175.784 15.5981 179.211 19.2826 179.211 23.6148C179.211 27.947 175.794 31.6315 170.869 31.6315C165.953 31.6315 162.526 27.947 162.526 23.6148C162.526 19.2826 165.953 15.5981 170.869 15.5981ZM170.869 27.947C173.331 27.947 175.04 26.2162 175.04 23.6148C175.04 21.0133 173.331 19.2826 170.869 19.2826C168.406 19.2826 166.697 21.0133 166.697 23.6148C166.697 26.2162 168.416 27.947 170.869 27.947Z" fill="#8e369a"></path>
    <path d="M182.103 16.0334H186.054V23.5085L185.73 25.4623H185.939L191.389 16.0334H195.99V31.1961H192.039V23.7209L192.363 21.7672H192.154L186.704 31.1961H182.103V16.0334ZM187.773 11.1597C187.773 11.956 188.203 12.3489 189.052 12.3489C189.911 12.3489 190.33 11.956 190.33 11.1597H192.898C192.898 13.2408 191.525 14.6212 189.052 14.6212C186.568 14.6212 185.206 13.2302 185.206 11.1597H187.773V11.1597Z" fill="#8e369a"></path>
    <path d="M23.6852 16.0015H15.7936V23.9969H23.6852V16.0015Z" fill="#8e369a"></path>
    <path d="M7.89156 7.99545H39.4788V0H0V39.9985H23.6852L39.4788 56V16.0015H31.5872L31.5767 35.9955L27.6362 32.003H7.89156V7.99545Z" fill="#00B7A5" class="logo--green"></path>
</g>
<defs>
    <clipPath id="clip0">
        <rect width="196" height="56" fill="#8e369a"></rect>
    </clipPath>
</defs>
</svg>