<?xml version="1.0" encoding="utf-8"?>
<!-- Generator: Adobe Illustrator 22.0.0, SVG Export Plug-In . SVG Version: 6.00 Build 0)  -->
<svg version="1.1" id="Layer_1" xmlns="http://www.w3.org/2000/svg" xmlns:xlink="http://www.w3.org/1999/xlink" x="0px" y="0px"
	 viewBox="0 0 172.4 33.6" style="enable-background:new 0 0 172.4 33.6;" xml:space="preserve">
<style type="text/css">
	.st0{fill:#1A1924;}
	.st1{fill:#29C278;}
</style>
<g>
	<path class="st0" d="M24.5,16.1c2.9-0.9,4.7-3.5,4.7-6.7c0-5.2-4-8.6-11.1-8.6H0v32h18.3c7.7,0,12.3-3.7,12.3-9.6
		C30.6,19.9,28.2,17.1,24.5,16.1 M8.8,7.7h8c2,0,3.2,0.9,3.2,2.8c0,1.7-1.2,2.7-3.2,2.7h-8V7.7z M17.8,25.9H8.8v-6.1h8.9
		c2.3,0,3.6,1.3,3.6,3C21.3,24.5,20.1,25.9,17.8,25.9"/>
	<rect x="33.5" y="0.8" class="st0" width="9.1" height="32"/>
	<path class="st0" d="M117.5,0.8l-11.2,32h9.5l1.4-4.5h11.7l1.4,4.5h10.1l-11.2-32H117.5z M119.6,20.6l0.8-2.7
		c1-3.2,1.9-5.8,2.5-8.3h0.3c0.6,2.6,1.3,5.1,2.4,8.3l0.8,2.7H119.6z"/>
	<path class="st0" d="M155.3,0.8h-13.2v32h13.2c10.6,0,17.2-7.2,17.2-16C172.4,8,165.9,0.8,155.3,0.8 M155.1,24.7h-4V8.9h4
		c5,0,7.5,3.5,7.5,7.9C162.7,21.1,160.1,24.7,155.1,24.7"/>
	<path class="st1" d="M85.6,11.9c1.7-2,4.2-3.3,6.7-3.3c2.9,0,5.1,1.2,7.8,3.5l0.6,0.6l4.8-6.7l-0.2-0.3C102,2.1,97.3,0,92.3,0
		c-5.7,0-11,3.3-13.5,6.3c-1.9,2.3-3.3,5-4.8,7.8c-2.5,4.9-4.6,8.4-7.4,9.9l0,0l0,0C65.5,24.7,64.3,25,63,25c-2.3,0-4.4-0.9-6-2.4
		c-1.6-1.5-2.5-3.6-2.5-5.8c0-4.5,3.8-8.2,8.4-8.2c3.2,0,5.8,1.3,7.7,3.7l0.1,0.1l4.4-7.5C71.9,1.8,67.5,0,63,0
		c-9.5,0-17.3,7.5-17.3,16.8c0,9.3,7.7,16.8,17.3,16.8c10.9,0,15.6-9,19-15.5C83.2,15.6,84.3,13.5,85.6,11.9"/>
	<path class="st1" d="M101,20.2c-1.8,2.9-5,4.8-8.6,4.8c0,0-0.1,0-0.1,0c0,0-0.1,0-0.1,0c-1.6,0-3.1-0.4-4.5-1.1
		c-1.2-0.7-2.3-1.6-3.2-2.6l-4.3,7.5c3.2,3.1,7.5,4.9,12,4.9c5.1,0,9.9-2.2,13.1-6l1.2-1.3L101,20.2z"/>
</g>
</svg>
