<svg width="1200" height="280" viewBox="0 0 1200 280" fill="none" xmlns="http://www.w3.org/2000/svg">
<mask id="mask0" mask-type="alpha" maskUnits="userSpaceOnUse" x="0" y="0" width="1200" height="280">
<rect width="1200" height="280" fill="#C4C4C4"/>
</mask>
<g mask="url(#mask0)">
<path d="M281.767 116.578L272.97 109.132C272.481 108.718 272.435 107.976 272.865 107.469C273.294 106.962 274.032 106.884 274.522 107.299L283.318 114.745C283.808 115.16 283.853 115.901 283.424 116.408C282.995 116.915 282.256 116.993 281.767 116.578Z" fill="#FFF8D9"/>
<path d="M282.091 127.399L262.245 110.599C261.755 110.185 261.71 109.443 262.139 108.936C262.569 108.429 263.307 108.351 263.797 108.766L283.642 125.565C284.132 125.98 284.177 126.721 283.748 127.228C283.319 127.735 282.58 127.813 282.091 127.399Z" fill="#FFF8D9"/>
<path d="M271.432 139.434L252.115 123.082C251.625 122.668 251.58 121.927 252.01 121.419C252.439 120.912 253.177 120.834 253.667 121.249L272.984 137.601C273.473 138.015 273.519 138.756 273.089 139.264C272.66 139.771 271.922 139.849 271.432 139.434Z" fill="#FFF8D9"/>
<path d="M260.06 140.354L253.086 134.45C252.596 134.035 252.551 133.294 252.98 132.787C253.409 132.28 254.148 132.202 254.638 132.616L261.612 138.52C262.102 138.935 262.147 139.676 261.718 140.183C261.288 140.69 260.55 140.768 260.06 140.354Z" fill="#FFF8D9"/>
<path d="M278.418 134.836L255.517 115.449C255.027 115.035 254.982 114.293 255.411 113.786C255.84 113.279 256.579 113.201 257.068 113.616L279.97 133.002C280.46 133.417 280.505 134.158 280.076 134.665C279.663 135.153 278.908 135.25 278.418 134.836Z" fill="#FFF8D9"/>
<path d="M248.087 156.365L239.291 148.919C238.801 148.504 238.756 147.763 239.185 147.256C239.614 146.749 240.353 146.671 240.842 147.086L249.639 154.532C250.129 154.946 250.174 155.688 249.744 156.195C249.315 156.702 248.577 156.78 248.087 156.365Z" fill="#FFF8D9"/>
<path d="M248.477 167.107L228.631 150.308C228.142 149.893 228.097 149.152 228.526 148.645C228.955 148.138 229.694 148.06 230.183 148.475L250.029 165.274C250.519 165.688 250.564 166.43 250.134 166.937C249.705 167.444 248.967 167.522 248.477 167.107Z" fill="#FFF8D9"/>
<path d="M237.917 179.026L218.601 162.674C218.111 162.259 218.066 161.518 218.495 161.011C218.924 160.504 219.663 160.426 220.153 160.841L239.469 177.192C239.959 177.607 240.004 178.348 239.575 178.855C239.145 179.362 238.407 179.44 237.917 179.026Z" fill="#FFF8D9"/>
<path d="M226.595 179.887L219.621 173.983C219.131 173.568 219.086 172.827 219.515 172.32C219.944 171.813 220.683 171.735 221.173 172.15L228.147 178.053C228.637 178.468 228.682 179.209 228.253 179.716C227.84 180.204 227.085 180.301 226.595 179.887Z" fill="#FFF8D9"/>
<path d="M244.854 174.486L221.952 155.099C221.463 154.685 221.417 153.944 221.847 153.436C222.276 152.929 223.014 152.851 223.504 153.266L246.406 172.652C246.896 173.067 246.941 173.808 246.512 174.315C246.099 174.803 245.344 174.9 244.854 174.486Z" fill="#FFF8D9"/>
<path d="M213.969 179.309C215.346 179.47 216.689 179.67 218.178 179.859C218.509 179.905 218.84 179.951 219.171 179.997C216.088 169.854 213.87 160.277 220.705 152.202C228.135 143.426 239.057 144.905 250.641 146.475C256.672 147.295 262.924 148.134 268.793 147.478C275.722 146.681 281.17 143.861 285.413 138.848C289.656 133.836 291.558 128.014 291.18 121.031C290.953 116.889 289.976 112.681 288.766 108.509L288.251 108.442C286.891 108.261 285.55 108.097 284.042 107.892C283.711 107.846 283.38 107.8 283.049 107.754C286.132 117.897 288.349 127.474 281.514 135.548C274.085 144.325 263.163 142.846 251.578 141.276C245.547 140.455 239.296 139.616 233.427 140.273C226.462 141.072 221.05 143.89 216.807 148.902C212.547 153.934 210.662 159.737 211.04 166.719C211.266 170.861 212.244 175.07 213.454 179.242L213.969 179.309Z" fill="#FFF8D9"/>
<path d="M255.152 148.218C253.572 148.018 251.992 147.819 250.428 147.6C250.097 147.554 249.766 147.509 249.435 147.463C252.518 157.605 254.735 167.182 247.9 175.257C240.471 184.033 229.549 182.555 217.965 180.984C216.585 180.787 215.188 180.609 213.792 180.432L221.217 186.717C225.918 187.281 230.659 187.679 235.195 187.167C242.125 186.37 247.573 183.55 251.816 178.537C256.059 173.525 257.961 167.703 257.582 160.721C257.336 156.562 256.343 152.373 255.152 148.218Z" fill="#FFF8D9"/>
<path d="M247.032 139.536C248.612 139.735 250.192 139.934 251.755 140.153C252.086 140.199 252.417 140.245 252.748 140.291C249.665 130.148 247.448 120.571 254.283 112.497C261.712 103.72 272.634 105.199 284.219 106.769C285.599 106.966 286.995 107.144 288.392 107.322L280.967 101.037C276.266 100.472 271.524 100.074 266.988 100.587C260.059 101.383 254.647 104.201 250.388 109.233C246.145 114.245 244.243 120.067 244.621 127.05C244.827 131.175 245.841 135.381 247.032 139.536Z" fill="#FFF8D9"/>
<path d="M348.961 37.2001L340.165 29.754C339.675 29.3394 339.63 28.5981 340.059 28.091C340.488 27.584 341.227 27.5061 341.717 27.9207L350.513 35.3668C351.003 35.7814 351.048 36.5226 350.618 37.0297C350.189 37.5368 349.451 37.6147 348.961 37.2001Z" fill="#FFF8D9"/>
<path d="M349.285 48.0202L329.44 31.2209C328.95 30.8063 328.905 30.065 329.334 29.5579C329.763 29.0509 330.502 28.973 330.991 29.3876L350.837 46.1869C351.327 46.6015 351.372 47.3427 350.943 47.8498C350.513 48.3569 349.775 48.4348 349.285 48.0202Z" fill="#FFF8D9"/>
<path d="M338.626 60.0556L319.31 43.704C318.82 43.2894 318.775 42.5482 319.204 42.0411C319.633 41.534 320.372 41.4561 320.862 41.8707L340.178 58.2223C340.668 58.6369 340.713 59.3781 340.284 59.8852C339.854 60.3923 339.116 60.4702 338.626 60.0556Z" fill="#FFF8D9"/>
<path d="M327.254 60.9753L320.28 55.0715C319.79 54.6569 319.745 53.9156 320.175 53.4085C320.604 52.9014 321.342 52.8236 321.832 53.2382L328.806 59.142C329.296 59.5566 329.341 60.2978 328.912 60.8049C328.483 61.312 327.744 61.3899 327.254 60.9753Z" fill="#FFF8D9"/>
<path d="M345.612 55.4573L322.711 36.0709C322.221 35.6563 322.176 34.915 322.605 34.408C323.034 33.9009 323.773 33.823 324.263 34.2376L347.164 53.624C347.654 54.0386 347.699 54.7798 347.27 55.2869C346.841 55.794 346.102 55.8719 345.612 55.4573Z" fill="#FFF8D9"/>
<path d="M315.281 76.9868L306.485 69.5407C305.995 69.1261 305.95 68.3849 306.379 67.8778C306.809 67.3707 307.547 67.2928 308.037 67.7073L316.833 75.1534C317.323 75.568 317.368 76.3093 316.939 76.8164C316.526 77.304 315.771 77.4014 315.281 76.9868Z" fill="#FFF8D9"/>
<path d="M315.671 87.7289L295.826 70.9295C295.336 70.5149 295.291 69.7737 295.72 69.2666C296.149 68.7596 296.888 68.6817 297.378 69.0963L317.223 85.8956C317.713 86.3102 317.758 87.0514 317.329 87.5585C316.9 88.0656 316.161 88.1434 315.671 87.7289Z" fill="#FFF8D9"/>
<path d="M305.111 99.6472L285.795 83.2957C285.305 82.8811 285.26 82.1398 285.689 81.6327C286.119 81.1257 286.857 81.0478 287.347 81.4624L306.663 97.8139C307.153 98.2285 307.198 98.9698 306.769 99.4769C306.34 99.9839 305.601 100.062 305.111 99.6472Z" fill="#FFF8D9"/>
<path d="M293.789 100.508L286.815 94.6046C286.325 94.19 286.28 93.4487 286.709 92.9417C287.139 92.4346 287.877 92.3567 288.367 92.7713L295.341 98.6751C295.831 99.0897 295.876 99.8309 295.447 100.338C295.018 100.845 294.279 100.923 293.789 100.508Z" fill="#FFF8D9"/>
<path d="M312.048 95.1074L289.147 75.721C288.657 75.3064 288.612 74.5652 289.041 74.0581C289.47 73.5511 290.209 73.4732 290.699 73.8878L313.6 93.2741C314.09 93.6887 314.135 94.43 313.706 94.9371C313.293 95.4246 312.538 95.522 312.048 95.1074Z" fill="#FFF8D9"/>
<path d="M281.163 99.9307C282.54 100.092 283.884 100.292 285.372 100.481C285.703 100.526 286.034 100.572 286.365 100.618C283.282 90.4755 281.065 80.8985 287.9 72.8242C295.329 64.0477 306.251 65.5263 317.835 67.0966C323.867 67.9169 330.118 68.7558 335.987 68.0995C342.916 67.3029 348.364 64.4823 352.607 59.47C356.85 54.4576 358.752 48.6354 358.374 41.6531C358.148 37.5109 357.17 33.3023 355.96 29.1306L355.445 29.0632C354.085 28.8826 352.744 28.7185 351.236 28.5134C350.905 28.4675 350.574 28.4216 350.243 28.3757C353.326 38.5185 355.544 48.0955 348.709 56.1698C341.279 64.9463 330.357 63.4677 318.773 61.8974C312.741 61.0771 306.49 60.2382 300.621 60.8945C293.656 61.694 288.244 64.5117 284.001 69.524C279.758 74.5363 277.856 80.3586 278.234 87.3409C278.461 91.4831 279.438 95.6917 280.648 99.8634L281.163 99.9307Z" fill="#FFF8D9"/>
<path d="M322.346 68.8393C320.766 68.6401 319.186 68.4408 317.623 68.2221C317.292 68.1762 316.96 68.1303 316.629 68.0844C319.713 78.2272 321.93 87.8041 315.095 95.8785C307.666 104.655 296.743 103.176 285.159 101.606C283.779 101.409 282.383 101.231 280.986 101.053L288.411 107.339C293.112 107.903 297.853 108.301 302.39 107.789C309.319 106.992 314.767 104.171 319.01 99.1591C323.253 94.1468 325.155 88.3245 324.777 81.3422C324.531 77.1835 323.537 72.9943 322.346 68.8393Z" fill="#FFF8D9"/>
<path d="M314.226 60.1576C315.806 60.3568 317.386 60.5561 318.95 60.7748C319.281 60.8207 319.612 60.8666 319.943 60.9125C316.86 50.7697 314.642 41.1928 321.477 33.1184C328.907 24.3419 339.829 25.8205 351.413 27.3908C352.793 27.5881 354.189 27.7658 355.586 27.9436L348.161 21.6584C343.46 21.0938 338.719 20.696 334.182 21.2082C327.253 22.0048 321.841 24.8225 317.598 29.8348C313.355 34.8472 311.453 40.6694 311.831 47.6517C312.022 51.7968 313.035 56.0026 314.226 60.1576Z" fill="#FFF8D9"/>
<path d="M518.013 214.156L506.197 223.694C505.539 224.225 504.568 224.1 504.018 223.419C503.469 222.738 503.551 221.763 504.209 221.232L516.025 211.694C516.683 211.162 517.654 211.288 518.204 211.969C518.754 212.65 518.671 213.625 518.013 214.156Z" fill="#FFF8D9"/>
<path d="M532.097 216.419L505.437 237.938C504.779 238.469 503.808 238.344 503.258 237.662C502.709 236.981 502.791 236.006 503.449 235.475L530.109 213.956C530.767 213.425 531.737 213.55 532.287 214.232C532.837 214.913 532.755 215.888 532.097 216.419Z" fill="#FFF8D9"/>
<path d="M545.03 233.196L519.081 254.142C518.423 254.673 517.452 254.547 516.903 253.866C516.353 253.185 516.435 252.21 517.093 251.679L543.042 230.733C543.7 230.202 544.671 230.328 545.221 231.009C545.77 231.69 545.688 232.665 545.03 233.196Z" fill="#FFF8D9"/>
<path d="M543.402 248.141L534.033 255.703C533.375 256.234 532.404 256.109 531.854 255.428C531.304 254.747 531.387 253.772 532.045 253.24L541.414 245.678C542.072 245.147 543.042 245.272 543.592 245.954C544.142 246.635 544.06 247.61 543.402 248.141Z" fill="#FFF8D9"/>
<path d="M540.811 223.015L510.046 247.848C509.388 248.379 508.417 248.254 507.867 247.572C507.317 246.891 507.4 245.916 508.058 245.385L538.823 220.552C539.481 220.021 540.451 220.147 541.001 220.828C541.53 221.483 541.469 222.484 540.811 223.015Z" fill="#FFF8D9"/>
<path d="M561.155 267.605L549.339 277.143C548.681 277.674 547.71 277.549 547.16 276.867C546.61 276.186 546.693 275.211 547.351 274.68L559.167 265.142C559.825 264.611 560.796 264.736 561.346 265.418C561.895 266.099 561.813 267.074 561.155 267.605Z" fill="#FFF8D9"/>
<path d="M575.154 269.763L548.494 291.282C547.836 291.813 546.865 291.687 546.316 291.006C545.766 290.325 545.848 289.35 546.506 288.819L573.166 267.3C573.824 266.769 574.794 266.894 575.344 267.575C575.894 268.257 575.812 269.232 575.154 269.763Z" fill="#FFF8D9"/>
<path d="M583.805 276.28L553.039 301.113C552.381 301.644 551.411 301.519 550.861 300.838C550.311 300.156 550.393 299.181 551.051 298.65L581.817 273.817C582.475 273.286 583.445 273.412 583.995 274.093C584.524 274.748 584.463 275.749 583.805 276.28Z" fill="#FFF8D9"/>
<path d="M582.391 317.446C582.941 315.704 583.533 314.014 584.146 312.135C584.288 311.718 584.429 311.301 584.571 310.884C570.68 312.36 557.736 312.856 548.981 302.009C539.465 290.219 544.085 276.45 548.989 261.848C551.546 254.246 554.181 246.364 554.786 238.606C555.473 229.441 553.173 221.691 547.738 214.958C542.303 208.224 535.239 204.32 526.109 203.078C520.693 202.344 515.004 202.566 509.305 203.098L509.09 203.748C508.519 205.463 507.975 207.158 507.336 209.059C507.194 209.476 507.053 209.893 506.911 210.31C520.802 208.834 533.745 208.338 542.501 219.185C552.017 230.975 547.396 244.743 542.493 259.346C539.936 266.948 537.301 274.83 536.696 282.588C536.004 291.8 538.309 299.503 543.744 306.236C549.2 312.996 556.242 316.874 565.372 318.116C570.789 318.849 576.478 318.628 582.177 318.095L582.391 317.446Z" fill="#FFF8D9"/>
<path d="M552.362 256.442C551.713 258.438 551.063 260.433 550.393 262.402C550.251 262.819 550.11 263.236 549.968 263.653C563.859 262.177 576.802 261.682 585.558 272.529C595.074 284.319 590.454 298.087 585.55 312.69C584.953 314.427 584.376 316.19 583.8 317.953L593.775 309.902C595.671 303.958 597.361 297.921 597.822 291.923C598.509 282.758 596.209 275.009 590.774 268.275C585.339 261.542 578.275 257.637 569.146 256.396C563.702 255.683 558.035 255.931 552.362 256.442Z" fill="#FFF8D9"/>
<path d="M539.114 264.799C539.764 262.804 540.413 260.808 541.084 258.839C541.225 258.422 541.367 258.005 541.508 257.588C527.618 259.064 514.674 259.559 505.919 248.712C496.402 236.922 501.023 223.154 505.927 208.552C506.524 206.815 507.1 205.051 507.676 203.288L497.702 211.339C495.806 217.283 494.116 223.32 493.654 229.318C492.968 238.483 495.273 246.185 500.729 252.945C506.164 259.678 513.227 263.583 522.357 264.824C527.748 265.579 533.442 265.31 539.114 264.799Z" fill="#FFF8D9"/>
<path d="M431.941 107.521L420.125 117.059C419.467 117.59 418.496 117.465 417.946 116.784C417.396 116.103 417.479 115.128 418.137 114.597L429.953 105.059C430.611 104.527 431.582 104.653 432.132 105.334C432.681 106.015 432.599 106.99 431.941 107.521Z" fill="#FFF8D9"/>
<path d="M446.024 109.784L419.365 131.303C418.707 131.834 417.736 131.709 417.186 131.027C416.636 130.346 416.719 129.371 417.377 128.84L444.037 107.321C444.694 106.79 445.665 106.915 446.215 107.597C446.765 108.278 446.682 109.253 446.024 109.784Z" fill="#FFF8D9"/>
<path d="M458.958 126.561L433.009 147.507C432.351 148.038 431.38 147.912 430.83 147.231C430.281 146.55 430.363 145.575 431.021 145.044L456.97 124.098C457.628 123.567 458.599 123.693 459.148 124.374C459.698 125.055 459.616 126.03 458.958 126.561Z" fill="#FFF8D9"/>
<path d="M457.33 141.506L447.96 149.068C447.303 149.599 446.332 149.474 445.782 148.793C445.232 148.112 445.315 147.137 445.973 146.606L455.342 139.043C456 138.512 456.97 138.637 457.52 139.319C458.07 140 457.988 140.975 457.33 141.506Z" fill="#FFF8D9"/>
<path d="M454.739 116.38L423.973 141.213C423.315 141.744 422.345 141.619 421.795 140.937C421.245 140.256 421.328 139.281 421.985 138.75L452.751 113.917C453.409 113.386 454.379 113.512 454.929 114.193C455.479 114.874 455.397 115.849 454.739 116.38Z" fill="#FFF8D9"/>
<path d="M475.083 160.97L463.266 170.508C462.608 171.039 461.638 170.914 461.088 170.232C460.538 169.551 460.621 168.576 461.278 168.045L473.095 158.507C473.753 157.976 474.724 158.101 475.273 158.783C475.802 159.438 475.741 160.439 475.083 160.97Z" fill="#FFF8D9"/>
<path d="M489.082 163.128L462.422 184.647C461.764 185.178 460.793 185.052 460.244 184.371C459.694 183.69 459.776 182.715 460.434 182.184L487.094 160.665C487.752 160.134 488.722 160.259 489.272 160.94C489.822 161.622 489.74 162.597 489.082 163.128Z" fill="#FFF8D9"/>
<path d="M501.888 179.748L475.939 200.693C475.281 201.224 474.311 201.099 473.761 200.418C473.211 199.737 473.293 198.761 473.951 198.23L499.901 177.285C500.558 176.754 501.529 176.879 502.079 177.56C502.629 178.242 502.546 179.217 501.888 179.748Z" fill="#FFF8D9"/>
<path d="M500.196 194.614L490.827 202.176C490.169 202.707 489.199 202.582 488.649 201.901C488.099 201.22 488.181 200.244 488.839 199.713L498.209 192.151C498.867 191.62 499.837 191.745 500.387 192.426C500.937 193.108 500.854 194.083 500.196 194.614Z" fill="#FFF8D9"/>
<path d="M497.733 169.645L466.967 194.478C466.309 195.009 465.339 194.884 464.789 194.203C464.239 193.521 464.321 192.546 464.979 192.015L495.745 167.182C496.403 166.651 497.373 166.777 497.923 167.458C498.452 168.113 498.391 169.114 497.733 169.645Z" fill="#FFF8D9"/>
<path d="M496.319 210.811C496.869 209.069 497.461 207.379 498.074 205.5C498.216 205.083 498.357 204.666 498.498 204.249C484.608 205.725 471.664 206.221 462.909 195.374C453.392 183.584 458.013 169.815 462.917 155.213C465.473 147.611 468.109 139.729 468.714 131.971C469.401 122.806 467.101 115.056 461.666 108.323C456.231 101.589 449.167 97.6846 440.037 96.4431C434.621 95.7095 428.932 95.931 423.233 96.4634L423.018 97.1128C422.447 98.8285 421.903 100.523 421.263 102.424C421.122 102.841 420.98 103.258 420.839 103.675C434.73 102.199 447.673 101.703 456.428 112.55C465.945 124.34 461.324 138.108 456.421 152.711C453.864 160.313 451.229 168.195 450.624 175.953C449.932 185.165 452.237 192.868 457.672 199.601C463.107 206.335 470.17 210.239 479.3 211.481C484.717 212.214 490.406 211.993 496.104 211.46L496.319 210.811Z" fill="#FFF8D9"/>
<path d="M466.29 149.807C465.641 151.803 464.991 153.798 464.321 155.767C464.179 156.184 464.038 156.601 463.896 157.018C477.787 155.542 490.73 155.047 499.486 165.894C509.002 177.684 504.381 191.452 499.478 206.055C498.88 207.792 498.304 209.555 497.728 211.318L507.703 203.267C509.598 197.323 511.288 191.286 511.75 185.288C512.437 176.123 510.137 168.374 504.702 161.64C499.267 154.907 492.203 151.002 483.073 149.761C477.63 149.048 471.963 149.296 466.29 149.807Z" fill="#FFF8D9"/>
<path d="M453.042 158.164C453.692 156.169 454.341 154.173 455.012 152.204C455.153 151.787 455.295 151.37 455.436 150.953C441.545 152.429 428.602 152.924 419.847 142.077C410.33 130.287 414.951 116.519 419.854 101.917C420.452 100.18 421.028 98.4164 421.604 96.6532L411.63 104.704C409.734 110.648 408.044 116.685 407.582 122.683C406.896 131.848 409.201 139.55 414.636 146.284C420.071 153.017 427.134 156.922 436.264 158.163C441.676 158.944 447.37 158.675 453.042 158.164Z" fill="#FFF8D9"/>
<path d="M378.975 157.986L351.601 121.216L306.127 126.634L288.064 168.737L315.475 205.423L360.912 200.09L378.975 157.986Z" stroke="#F9D332" stroke-width="7" stroke-miterlimit="10"/>
<path d="M528.744 120.837L502.333 145.002L458.542 131.4L424.948 162.553" stroke="#F9D332" stroke-width="7" stroke-miterlimit="10"/>
<path d="M424.383 162.012L378.843 157.829L360.696 199.897L395.109 230.015L434.447 206.611L424.383 162.012Z" stroke="#F9D332" stroke-width="7" stroke-miterlimit="10"/>
<path d="M306.127 126.634L275.787 82.6087" stroke="#F9D332" stroke-width="7" stroke-miterlimit="10"/>
<path d="M270.91 93.9767C277.185 96.6687 284.455 93.7614 287.149 87.483C289.842 81.2046 286.939 73.9327 280.664 71.2407C274.389 68.5486 267.118 71.456 264.425 77.7344C261.731 84.0127 264.635 91.2847 270.91 93.9767Z" fill="#F9D332"/>
<path d="M390.786 240.325C397.061 243.017 404.331 240.11 407.024 233.831C409.718 227.553 406.815 220.281 400.54 217.589C394.265 214.897 386.994 217.804 384.301 224.083C381.607 230.361 384.511 237.633 390.786 240.325Z" fill="#F9D332"/>
<path d="M523.867 132.205C530.142 134.897 537.412 131.99 540.105 125.712C542.799 119.433 539.896 112.161 533.621 109.469C527.346 106.777 520.075 109.685 517.382 115.963C514.688 122.241 517.592 129.513 523.867 132.205Z" fill="#F9D332"/>
<path d="M646.039 115.995L668.779 102.722C670.006 102.009 671.664 102.423 672.427 103.717C673.19 105.01 672.717 106.66 671.49 107.373L648.65 120.514C647.365 121.218 645.765 120.812 645.11 119.594C644.339 118.358 644.746 116.758 646.039 115.995Z" fill="#F9D332"/>
<path d="M623.091 109.994L673.678 78.7873C674.913 78.0163 676.571 78.4308 677.392 79.7323C678.213 81.0339 677.856 82.7003 676.563 83.4631L625.794 114.288C624.558 115.059 622.95 114.711 622.229 113.542C621.449 112.365 621.856 110.765 623.091 109.994Z" fill="#F9D332"/>
<path d="M605.498 81.4257L653.208 48.8015C654.394 47.9642 656.06 48.3206 656.947 49.5725C657.834 50.8243 657.478 52.4907 656.292 53.328L608.333 85.6206C607.09 86.4496 605.531 86.1678 604.752 84.9906C603.972 83.8134 604.312 82.2631 605.498 81.4257Z" fill="#F9D332"/>
<path d="M610.902 56.8528L627.856 44.7069C629.041 43.8695 630.716 44.1679 631.553 45.3534C632.391 46.5389 632.15 48.2219 630.965 49.0592L613.912 61.0725C612.726 61.9098 611.102 61.6778 610.264 60.4923C609.419 59.3648 609.709 57.7482 610.902 56.8528Z" fill="#F9D332"/>
<path d="M610.307 98.338L667.758 60.9466C668.993 60.1755 670.66 60.532 671.481 61.8335C672.301 63.1351 672.003 64.8098 670.768 65.5808L613.026 102.516C611.791 103.287 610.174 102.997 609.453 101.828C608.732 100.659 609.13 99.1173 610.307 98.338Z" fill="#F9D332"/>
<path d="M582.954 24.4962L603.539 8.0723C604.675 7.16861 606.366 7.35094 607.261 8.54474C608.165 9.6805 607.983 11.3717 606.847 12.2754L586.163 28.5667C585.027 29.4704 583.394 29.2963 582.49 28.1606C581.587 27.0248 581.819 25.3999 582.954 24.4962Z" fill="#F9D332"/>
<path d="M559.468 21.8522L605.155 -16.0943C606.291 -16.998 607.982 -16.8156 608.944 -15.6716C609.905 -14.5275 609.781 -12.828 608.637 -11.8663L562.693 25.8067C561.557 26.7104 559.916 26.5944 559.062 25.5249C558.158 24.3892 558.39 22.7642 559.468 21.8522Z" fill="#F9D332"/>
<path d="M538.227 -3.98003L581.228 -42.6063C582.314 -43.5763 584.014 -43.452 584.975 -42.3079C585.995 -41.1556 585.879 -39.5141 584.793 -38.5441L541.593 -0.183126C540.507 0.786884 538.857 0.728905 537.945 -0.348819C537.033 -1.42655 537.141 -3.01002 538.227 -3.98003Z" fill="#F9D332"/>
<path d="M545.225 12.1197L597.105 -32.6997C598.191 -33.6697 599.882 -33.4874 600.902 -32.335C601.921 -31.1827 601.797 -29.4832 600.653 -28.5214L548.533 15.9083C547.447 16.8784 545.805 16.7623 544.893 15.6846C543.973 14.6649 544.147 13.0317 545.225 12.1197Z" fill="#F9D332"/>
<path d="M545.479 -56.8315C544.75 -53.7972 543.971 -50.8292 543.092 -47.5794C542.868 -46.8415 542.703 -46.0954 542.487 -45.4156C545.422 -46.0623 548.348 -46.651 551.2 -47.1319C554.052 -47.6129 556.904 -48.0938 559.731 -48.4006C562.558 -48.7075 565.319 -48.9645 568.046 -48.9895C570.782 -49.0725 573.435 -48.9896 576.055 -48.6747C578.683 -48.4178 581.228 -47.995 583.74 -47.3402C586.252 -46.6853 588.673 -45.8066 590.994 -44.646C595.703 -42.3746 600.031 -39.0917 603.944 -34.5653C612.417 -24.6502 614.681 -13.5494 613.504 -1.99255C613.206 0.925678 612.733 3.81905 612.078 6.74558C611.423 9.67211 610.578 12.6898 609.683 15.6412C607.817 21.6518 605.538 27.6624 603.059 33.8223C597.977 46.5979 592.514 59.556 590.177 72.1906C589.464 75.9379 589.074 79.4945 589.058 82.9267C588.983 86.3507 589.158 89.6917 589.713 92.8503C590.269 96.0089 591.073 99.0847 592.25 102.036C592.806 103.537 593.494 104.938 594.232 106.405C594.978 107.814 595.774 109.29 596.645 110.658C600.292 116.212 604.62 120.739 609.968 124.345C615.257 127.943 621.574 130.562 628.837 132.37C637.592 134.508 647.059 135.387 656.809 135.95L657.43 134.914C658.997 132.236 660.498 129.608 662.214 126.714C662.603 126.06 662.993 125.405 663.325 124.741C660.324 124.609 657.38 124.484 654.504 124.31C651.627 124.136 648.75 123.962 645.948 123.681C640.402 123.125 635.137 122.255 630.229 120.962C625.33 119.611 620.861 117.729 616.865 115.026C614.867 113.675 613.01 112.166 611.252 110.376C609.495 108.585 607.886 106.579 606.435 104.299C605.664 103.064 604.951 101.837 604.305 100.56C603.658 99.2833 603.119 98.0812 602.655 96.7713C601.709 94.2676 601.129 91.6976 600.797 89.0447C600.059 83.8466 600.465 78.5159 601.609 72.9945C602.687 67.5228 604.511 61.8023 606.641 56.0073C608.772 50.2122 611.283 44.2348 613.754 38.133C616.324 31.7493 618.91 25.2495 620.982 18.6172C623.055 11.9848 624.655 5.34411 625.26 -1.37942C626.743 -17.1561 622.523 -30.7274 612.732 -42.1927C602.882 -53.6663 590.14 -59.8091 574.347 -60.762C564.954 -61.3338 555.171 -60.007 545.596 -58.0585L545.479 -56.8315Z" fill="#F9D332"/>
<path d="M596.85 42.8838C598.151 39.5759 599.461 36.21 600.821 32.9104C601.102 32.1808 601.376 31.5093 601.65 30.8378C595.697 31.468 589.869 32.0568 584.331 32.2725C578.793 32.4882 573.346 32.4801 568.355 31.7673C558.241 30.4411 549.412 26.7521 542.307 18.4537C540.375 16.2236 538.758 13.8609 537.498 11.4899C536.246 9.06083 535.234 6.60689 534.53 4.07834C533.129 -1.03679 532.764 -6.35921 533.153 -11.9884C533.866 -23.197 537.339 -35.4918 540.696 -48.2177C541.484 -51.2437 542.288 -54.3858 543.026 -57.4781L527.075 -41.9912C524.472 -31.6447 522.176 -21.3728 521.646 -11.4409C520.9 3.73055 524.681 15.8178 533.411 26.0065C542.141 36.1951 553.433 41.7162 568.604 43.2909C573.098 43.755 577.757 43.8875 582.458 43.7299C587.208 43.6386 591.992 43.3151 596.85 42.8838Z" fill="#F9D332"/>
<path d="M620.145 29.0382C618.894 32.4124 617.526 35.7701 616.166 39.0697C615.893 39.7412 615.611 40.4708 615.337 41.1423C621.265 40.6862 627.184 40.2881 632.847 40.4454C638.517 40.5448 643.947 41.0835 649.104 42.2937C654.195 43.5537 659.078 45.4355 663.455 48.3702C665.619 49.8043 667.683 51.5204 669.656 53.4603C670.643 54.4302 671.555 55.5079 672.467 56.5857C673.371 57.7214 674.208 58.9069 675.029 60.2085C682.217 71.2428 682.773 82.6918 680.037 93.9669C678.636 99.6293 676.406 105.292 673.704 110.946C672.353 113.773 670.885 116.583 669.294 119.435C667.76 122.296 666.119 125.081 664.469 127.925C662.894 130.661 661.269 133.33 659.694 136.066L679.317 125.545C681.936 120.886 684.39 116.144 686.571 111.244C687.632 108.79 688.635 106.328 689.522 103.849C690.351 101.362 691.122 98.8662 691.718 96.3459C693.6 88.5611 693.882 81.1992 692.762 74.111C691.577 67.0725 688.998 60.2496 684.82 53.8495C683.808 52.2246 682.722 50.7075 681.57 49.2401C680.417 47.7728 679.19 46.4132 677.955 45.1116C675.426 42.5002 672.732 40.2204 669.697 38.2474C666.721 36.2827 663.529 34.5832 660.114 33.2071C656.64 31.8227 653 30.7699 649.137 30.0405C644.527 29.1453 639.736 28.6977 634.894 28.5984C629.928 28.5405 625.045 28.7313 620.145 29.0382Z" fill="#F9D332"/>
<path d="M694.111 275.7L750.56 263.155C751.97 262.824 753.429 263.802 753.744 265.327C754.059 266.853 753.197 268.328 751.796 268.602L695.206 280.476C693.805 280.749 692.379 279.953 692.097 278.61C691.749 277.317 692.644 276.024 694.111 275.7Z" fill="#F9D332"/>
<path d="M708.13 255.082L728.309 249.792C729.726 249.402 731.136 250.314 731.525 251.732C731.907 253.207 731.053 254.625 729.635 255.015L709.374 260.056C707.964 260.388 706.538 259.592 706.198 258.24C705.858 256.889 706.712 255.471 708.13 255.082Z" fill="#F9D332"/>
<path d="M692.048 292.638L759.523 280.424C760.982 280.159 762.366 281.245 762.623 282.762C762.872 284.337 761.952 285.804 760.501 286.012L692.91 297.38C691.451 297.645 690.157 296.75 689.925 295.473C689.643 294.13 690.646 292.911 692.048 292.638Z" fill="#F9D332"/>
<path d="M692.932 215.545L717.712 206.649C719.088 206.135 720.581 206.881 721.086 208.315C721.592 209.749 720.904 211.25 719.47 211.756L694.607 220.403C693.239 220.859 691.739 220.171 691.274 218.861C690.876 217.502 691.556 216.059 692.932 215.545Z" fill="#F9D332"/>
<path d="M671.642 205.813L726.922 184.041C728.298 183.527 729.857 184.223 730.363 185.657C730.926 187.1 730.23 188.658 728.904 189.239L673.458 210.513C672.082 211.028 670.631 210.406 670.1 209.146C669.636 207.836 670.324 206.335 671.642 205.813Z" fill="#F9D332"/>
<path d="M659.471 175.354L711.866 150.979C713.2 150.341 714.767 150.979 715.397 152.372C716.028 153.764 715.497 155.406 714.171 155.986L661.544 179.914C660.217 180.494 658.692 179.98 658.103 178.712C657.506 177.502 658.136 175.993 659.471 175.354Z" fill="#F9D332"/>
<path d="M668.805 152.29L687.434 142.93C688.71 142.283 690.352 142.814 690.99 144.148C691.687 145.491 691.106 147.067 689.83 147.713L671.11 156.883C669.776 157.521 668.25 157.007 667.603 155.731C666.948 154.512 667.471 152.929 668.805 152.29Z" fill="#F9D332"/>
<path d="M661.229 192.482L724.194 165.412C725.52 164.832 727.137 165.536 727.709 166.921C728.331 168.372 727.751 169.947 726.366 170.519L663.128 197.017C661.801 197.597 660.284 197.025 659.696 195.757C659.215 194.563 659.845 193.054 661.229 192.482Z" fill="#F9D332"/>
<path d="M681.439 126.855C679.864 129.591 678.306 132.211 676.59 135.104C676.2 135.759 675.81 136.414 675.429 137.011C681.415 137.392 687.243 138.047 692.847 139.025C695.616 139.539 698.377 140.111 701.055 140.848C703.675 141.578 706.211 142.473 708.674 143.476C711.128 144.537 713.449 145.698 715.679 147.082C717.909 148.467 719.932 150.058 721.864 151.874C723.796 153.69 725.578 155.721 727.203 158.025C728.77 160.322 730.18 162.892 731.373 165.727C732.717 168.761 733.579 171.845 734.101 174.821C734.358 176.339 734.566 177.789 734.657 179.224C734.748 180.658 734.773 182.142 734.69 183.551C734.516 186.428 734.11 189.272 733.364 192.008C732.991 193.375 732.618 194.743 732.129 196.095C731.64 197.446 731.093 198.789 730.479 200.182C729.269 202.851 727.884 205.496 726.326 208.116C725.547 209.426 724.709 210.727 723.88 211.971C723.043 213.273 722.09 214.558 721.145 215.785C717.397 220.875 713.203 225.783 708.884 230.733C704.299 235.881 699.599 241.013 695.255 246.137C690.844 251.31 686.724 256.525 683.358 261.847C675.334 274.499 672.557 286.064 674.704 298.392C675.21 301.484 676.039 304.386 677.117 307.204C678.137 310.015 679.538 312.643 681.246 315.196C682.896 317.741 684.852 320.212 687.174 322.616C688.31 323.785 689.561 324.97 690.871 326.164C692.123 327.35 693.499 328.494 695 329.596C696.758 330.972 698.524 332.29 700.472 333.575C701.442 334.247 702.362 334.852 703.34 335.465C704.319 336.079 705.297 336.692 706.275 337.306C710.246 339.768 714.35 342.131 718.628 344.518L719.606 343.888C722.16 342.18 724.705 340.53 727.515 338.681C728.17 338.242 728.759 337.852 729.414 337.413C726.835 335.979 724.249 334.603 721.662 333.227C719.133 331.859 716.613 330.433 714.209 329.024C711.805 327.614 709.516 326.222 707.361 324.729C705.205 323.237 703.05 321.745 701.143 320.17C699.178 318.586 697.396 316.97 695.812 315.204C694.22 313.496 692.703 311.681 691.443 309.724C690.183 307.768 689.113 305.72 688.243 303.523C687.314 301.318 686.651 298.914 686.244 296.368C685.813 293.583 685.598 290.947 685.73 288.36C685.863 285.773 686.343 283.236 686.99 280.783C687.637 278.329 688.573 275.916 689.742 273.537C690.323 272.376 690.969 271.166 691.607 270.013C692.246 268.861 692.95 267.659 693.705 266.523C699.823 257.271 708.635 248.225 717.556 238.426C722.132 233.336 726.791 228.079 730.969 222.458C735.081 216.887 738.82 211.026 741.547 204.783C748.03 190.075 748.112 175.401 742.051 161.034C740.493 157.436 738.776 154.112 736.662 151.086C734.548 148.06 732.218 145.299 729.557 142.788C726.954 140.284 723.953 138.079 720.794 136.147C719.219 135.152 717.569 134.265 715.795 133.42C714.079 132.583 712.23 131.845 710.373 131.165C705.871 129.515 701.311 128.272 696.519 127.41C691.728 126.548 686.836 125.968 681.986 125.512L681.439 126.855Z" fill="#F9D332"/>
<path d="M699.897 237.266C702.235 234.58 704.689 231.91 707.018 229.282C707.516 228.702 708.005 228.179 708.502 227.599C702.657 226.231 697.053 224.839 691.714 223.247C686.309 221.705 681.284 219.981 676.799 217.801C672.256 215.612 668.185 213.017 664.803 209.751C663.078 208.143 661.503 206.319 660.135 204.288C658.767 202.257 657.54 200.068 656.471 197.606C655.31 194.953 654.564 192.3 654.108 189.689C653.594 187.069 653.428 184.499 653.56 181.912C653.825 176.739 654.978 171.574 657.033 166.301C657.514 165.008 658.061 163.665 658.667 162.33C659.272 160.995 659.869 159.719 660.474 158.384C661.742 155.723 663.185 153.086 664.702 150.342C667.785 144.92 671.118 139.415 674.525 133.802C676.158 131.075 677.733 128.339 679.317 125.545L659.694 136.066C657.024 140.659 654.355 145.252 651.976 149.886C651.396 151.047 650.815 152.208 650.243 153.31C649.663 154.471 649.141 155.64 648.627 156.751C647.582 159.089 646.604 161.377 645.8 163.69C640.693 177.883 640.661 190.137 645.702 202.108C646.008 202.862 646.381 203.567 646.688 204.321C647.061 205.026 647.376 205.722 647.749 206.427C648.496 207.836 649.316 209.138 650.195 210.448C651.082 211.7 652.027 212.96 653.047 214.112C654.059 215.322 655.087 216.417 656.231 217.528C657.375 218.639 658.594 219.642 659.87 220.653C660.509 221.159 661.147 221.664 661.852 222.12C662.49 222.626 663.195 223.082 663.9 223.538C666.718 225.362 669.852 227.053 673.243 228.603C677.305 230.427 681.583 231.985 686.118 233.403C688.39 234.083 690.661 234.762 692.999 235.392C695.221 236.006 697.559 236.636 699.897 237.266Z" fill="#F9D332"/>
<path d="M726.492 232.241C724.146 234.985 721.75 237.663 719.363 240.283C718.865 240.863 718.318 241.377 717.821 241.958C723.566 243.607 729.179 245.356 734.493 247.537C739.749 249.709 744.657 252.245 749.068 255.362C751.273 256.921 753.279 258.629 755.145 260.494C757.01 262.359 758.726 264.44 760.244 266.67C761.761 268.9 763.004 271.387 764.049 274.024C765.094 276.66 765.989 279.512 766.487 282.662C767.067 286.061 767.258 289.286 767.117 292.345C766.91 295.454 766.371 298.397 765.617 301.191C765.236 302.617 764.746 303.969 764.199 305.312C763.652 306.655 762.989 307.981 762.334 309.25C760.958 311.836 759.366 314.274 757.551 316.62C756.672 317.797 755.743 318.908 754.691 320.06C753.704 321.163 752.602 322.249 751.557 323.344C749.352 325.516 747.047 327.555 744.626 329.578C739.793 333.566 734.347 337.289 728.916 340.895C726.305 342.595 723.685 344.352 721.074 346.052L743.317 345.38C752.063 339.286 760.743 332.413 767.151 324.031C768.386 322.431 769.572 320.765 770.633 319.14C771.702 317.457 772.589 315.807 773.427 314.091C775.101 310.659 776.436 307.119 777.364 303.52C778.235 299.914 778.765 296.2 778.898 292.37C779.03 288.54 778.69 284.701 778.01 280.755C775.233 264.962 766.934 252.585 753.379 243.839C749.308 241.244 744.939 239.08 740.47 237.198C738.232 236.286 735.993 235.375 733.614 234.62C731.201 233.683 728.88 232.937 726.492 232.241Z" fill="#F9D332"/>
<path d="M466.175 51.3483C467.568 55.5414 465.297 60.0695 461.104 61.4621C456.911 62.8547 452.383 60.5845 450.991 56.3915C449.598 52.1984 451.868 47.6703 456.061 46.2777C460.254 44.885 464.782 47.1552 466.175 51.3483Z" fill="#FBDE66"/>
<path d="M425.706 43.7149C427.099 47.9079 424.828 52.436 420.635 53.8287C416.442 55.2213 411.914 52.9511 410.522 48.758C409.129 44.565 411.399 40.0369 415.592 38.6442C419.785 37.2516 424.313 39.5218 425.706 43.7149Z" fill="#FBDE66"/>
<path fill-rule="evenodd" clip-rule="evenodd" d="M455.816 56.8961L420.163 49.2344L421.195 44.1593L456.848 51.821L455.816 56.8961Z" fill="#FBDE66"/>
<path fill-rule="evenodd" clip-rule="evenodd" d="M464.88 79.1749L458.261 59.2454L463.006 57.6694L469.625 77.5989L464.88 79.1749Z" fill="#FBDE66"/>
<path fill-rule="evenodd" clip-rule="evenodd" d="M471.039 31.0939L461.922 50.6534L459.122 49.148L468.239 29.5886L471.039 31.0939Z" fill="#FBDE66"/>
<path d="M480.534 78.7176C482.535 84.7451 479.272 91.2543 473.245 93.2562C467.217 95.2581 460.708 91.9947 458.706 85.9671C456.704 79.9396 459.967 73.4305 465.995 71.4286C472.023 69.4267 478.532 72.6901 480.534 78.7176Z" fill="#FBDE66"/>
<path d="M477.111 27.1687C478.243 30.5756 476.398 34.2546 472.991 35.3861C469.584 36.5177 465.905 34.6731 464.774 31.2663C463.642 27.8594 465.487 24.1803 468.894 23.0488C472.3 21.9173 475.98 23.7618 477.111 27.1687Z" fill="#FBDE66"/>
<path d="M835.077 90.2327C831.195 94.5617 824.539 94.9243 820.21 91.0425C815.881 87.1607 815.518 80.5045 819.4 76.1755C823.282 71.8464 829.938 71.4839 834.267 75.3657C838.596 79.2475 838.959 85.9037 835.077 90.2327Z" fill="#FFF0B0"/>
<path d="M817.376 39.0079C813.494 43.3369 806.838 43.6995 802.509 39.8177C798.18 35.9359 797.817 29.2797 801.699 24.9507C805.581 20.6216 812.237 20.2591 816.566 24.1409C820.895 28.0227 821.258 34.6788 817.376 39.0079Z" fill="#FFF0B0"/>
<path fill-rule="evenodd" clip-rule="evenodd" d="M821.975 82.0191L807.45 36.2784L813.923 34.1441L828.447 79.8847L821.975 82.0191Z" fill="#FFF0B0"/>
<path fill-rule="evenodd" clip-rule="evenodd" d="M802.436 106.922L820.886 86.3459L825.785 90.7388L807.335 111.315L802.436 106.922Z" fill="#FFF0B0"/>
<path fill-rule="evenodd" clip-rule="evenodd" d="M861.396 82.5655L833.094 84.9193L832.986 80.7371L861.288 78.3832L861.396 82.5655Z" fill="#FFF0B0"/>
<path d="M813.18 124.51C807.599 130.733 798.031 131.254 791.808 125.674C785.585 120.094 785.064 110.525 790.644 104.302C796.224 98.0793 805.792 97.5581 812.015 103.138C818.238 108.718 818.76 118.287 813.18 124.51Z" fill="#FFF0B0"/>
<path d="M869.846 86.9409C866.692 90.4583 861.284 90.7529 857.766 87.5989C854.249 84.4449 853.954 79.0368 857.108 75.5194C860.262 72.0021 865.67 71.7075 869.188 74.8615C872.705 78.0154 873 83.4236 869.846 86.9409Z" fill="#FFF0B0"/>
<path d="M936.741 215.85C937.354 220.57 934.025 224.894 929.305 225.508C924.584 226.122 920.26 222.792 919.646 218.072C919.033 213.351 922.362 209.027 927.082 208.413C931.803 207.8 936.127 211.129 936.741 215.85Z" fill="#FFF5CB"/>
<path d="M895.5 199.481C896.114 204.202 892.784 208.526 888.064 209.139C883.343 209.753 879.019 206.424 878.405 201.703C877.792 196.983 881.121 192.658 885.842 192.045C890.562 191.431 894.887 194.76 895.5 199.481Z" fill="#FFF5CB"/>
<path fill-rule="evenodd" clip-rule="evenodd" d="M924.647 219.595L888.506 204.183L890.638 199.027L926.779 214.438L924.647 219.595Z" fill="#FFF5CB"/>
<path fill-rule="evenodd" clip-rule="evenodd" d="M929.668 245.017L926.751 222.581L932.093 221.886L935.01 244.323L929.668 245.017Z" fill="#FFF5CB"/>
<path fill-rule="evenodd" clip-rule="evenodd" d="M946.037 195.423L932.385 214.243L929.732 212.077L943.384 193.257L946.037 195.423Z" fill="#FFF5CB"/>
<path d="M946.319 247.742C947.201 254.528 942.415 260.744 935.629 261.626C928.843 262.508 922.627 257.722 921.745 250.936C920.863 244.15 925.649 237.934 932.435 237.052C939.221 236.17 945.437 240.956 946.319 247.742Z" fill="#FFF5CB"/>
<path d="M953.264 192.516C953.763 196.351 951.058 199.865 947.222 200.363C943.387 200.862 939.873 198.157 939.375 194.321C938.876 190.486 941.581 186.972 945.417 186.474C949.252 185.975 952.766 188.68 953.264 192.516Z" fill="#FFF5CB"/>
<path d="M1013.66 110.147C1010.09 109.786 1007.49 106.6 1007.85 103.032C1008.21 99.4644 1011.4 96.8655 1014.97 97.2273C1018.54 97.5892 1021.13 100.775 1020.77 104.343C1020.41 107.91 1017.22 110.509 1013.66 110.147Z" fill="#FFF5CB"/>
<path d="M1032.76 82.7153C1029.19 82.3534 1026.59 79.1678 1026.95 75.6001C1027.31 72.0323 1030.5 69.4334 1034.07 69.7952C1037.63 70.1571 1040.23 73.3427 1039.87 76.9105C1039.51 80.4782 1036.32 83.0771 1032.76 82.7153Z" fill="#FFF5CB"/>
<path fill-rule="evenodd" clip-rule="evenodd" d="M1012.99 100.633L1030.51 76.7768L1033.93 79.2273L1016.41 103.084L1012.99 100.633Z" fill="#FFF5CB"/>
<path fill-rule="evenodd" clip-rule="evenodd" d="M993.481 99.9429L1010.44 101.663L1010.03 105.7L993.072 103.98L993.481 99.9429Z" fill="#FFF5CB"/>
<path fill-rule="evenodd" clip-rule="evenodd" d="M1027.04 120.479L1015.58 107.229L1017.63 105.655L1029.09 118.905L1027.04 120.479Z" fill="#FFF5CB"/>
<path d="M988.619 111.687C983.49 111.167 979.754 106.587 980.274 101.459C980.795 96.3301 985.374 92.5942 990.502 93.1144C995.631 93.6345 999.367 98.2138 998.847 103.342C998.327 108.471 993.747 112.207 988.619 111.687Z" fill="#FFF5CB"/>
<path d="M1027.93 126.279C1025.03 125.985 1022.92 123.397 1023.21 120.498C1023.51 117.6 1026.1 115.488 1028.99 115.782C1031.89 116.076 1034 118.664 1033.71 121.563C1033.42 124.462 1030.83 126.573 1027.93 126.279Z" fill="#FFF5CB"/>
<g clip-path="url(#clip0)">
<path d="M1105.94 268.582L1089.1 268.582C1088.16 268.582 1087.41 267.798 1087.41 266.827C1087.41 265.856 1088.16 265.071 1089.1 265.071L1105.94 265.071C1106.88 265.071 1107.63 265.856 1107.63 266.827C1107.63 267.798 1106.88 268.582 1105.94 268.582Z" fill="#FFF8D9"/>
<path d="M1116.52 280.346L1078.52 280.346C1077.58 280.346 1076.83 279.562 1076.83 278.591C1076.83 277.62 1077.58 276.835 1078.52 276.835L1116.52 276.835C1117.46 276.835 1118.21 277.62 1118.21 278.591C1118.21 279.562 1117.46 280.346 1116.52 280.346Z" fill="#FFF8D9"/>
<path d="M1089.55 402.581C1091.24 401.46 1092.92 400.415 1094.76 399.22C1095.17 398.958 1095.59 398.697 1096 398.435C1082.98 390.032 1071.47 381.443 1071.47 365.981C1071.47 349.175 1085.05 340.511 1099.45 331.324C1106.95 326.543 1114.72 321.576 1120.65 315.302C1127.62 307.87 1131.04 299.579 1131.04 289.981C1131.04 280.383 1127.66 272.092 1120.65 264.66C1116.48 260.254 1111.42 256.482 1106.13 252.971L1105.49 253.382C1103.8 254.465 1102.15 255.548 1100.28 256.743C1099.86 257.004 1099.45 257.266 1099.04 257.527C1112.06 265.93 1123.57 274.52 1123.57 289.981C1123.57 306.787 1109.99 315.452 1095.59 324.639C1088.08 329.419 1080.32 334.386 1074.39 340.66C1067.38 348.13 1064 356.383 1064 365.981C1064 375.579 1067.38 383.87 1074.39 391.302C1078.52 395.746 1083.62 399.481 1088.87 402.992L1089.55 402.581Z" fill="#FFF8D9"/>
<path d="M1088.87 326.992C1090.82 325.722 1092.77 324.452 1094.72 323.22C1095.14 322.958 1095.55 322.697 1095.96 322.435C1082.94 314.032 1071.43 305.443 1071.43 289.981C1071.43 273.175 1085.01 264.511 1099.41 255.324C1101.14 254.241 1102.86 253.12 1104.59 252L1090.37 252C1084.6 255.809 1078.93 259.843 1074.35 264.698C1067.38 272.13 1064 280.383 1064 290.019C1064 299.617 1067.38 307.908 1074.39 315.34C1078.52 319.746 1083.62 323.481 1088.87 326.992Z" fill="#FFF8D9"/>
<path d="M1105.94 116.582L1089.1 116.582C1088.16 116.582 1087.41 115.798 1087.41 114.827C1087.41 113.856 1088.16 113.071 1089.1 113.071L1105.94 113.071C1106.88 113.071 1107.63 113.856 1107.63 114.827C1107.63 115.798 1106.88 116.582 1105.94 116.582Z" fill="#FFF8D9"/>
<path d="M1116.52 128.346L1078.52 128.346C1077.58 128.346 1076.83 127.562 1076.83 126.591C1076.83 125.62 1077.58 124.835 1078.52 124.835L1116.52 124.835C1117.46 124.835 1118.21 125.62 1118.21 126.591C1118.21 127.562 1117.46 128.346 1116.52 128.346Z" fill="#FFF8D9"/>
<path d="M1115.99 151.837L1079.01 151.837C1078.07 151.837 1077.32 151.053 1077.32 150.082C1077.32 149.111 1078.07 148.326 1079.01 148.326L1115.99 148.326C1116.93 148.326 1117.68 149.111 1117.68 150.082C1117.68 151.053 1116.93 151.837 1115.99 151.837Z" fill="#FFF8D9"/>
<path d="M1104.18 163.601L1090.82 163.601C1089.88 163.601 1089.13 162.817 1089.13 161.846C1089.13 160.875 1089.88 160.09 1090.82 160.09L1104.18 160.09C1105.12 160.09 1105.87 160.875 1105.87 161.846C1105.87 162.817 1105.12 163.601 1104.18 163.601Z" fill="#FFF8D9"/>
<path d="M1119.45 140.11L1075.59 140.11C1074.65 140.11 1073.9 139.326 1073.9 138.355C1073.9 137.384 1074.65 136.599 1075.59 136.599L1119.45 136.599C1120.38 136.599 1121.13 137.384 1121.13 138.355C1121.13 139.288 1120.38 140.11 1119.45 140.11Z" fill="#FFF8D9"/>
<path d="M1105.94 192.769L1089.1 192.769C1088.16 192.769 1087.41 191.984 1087.41 191.013C1087.41 190.042 1088.16 189.258 1089.1 189.258L1105.94 189.258C1106.88 189.258 1107.63 190.042 1107.63 191.013C1107.63 191.984 1106.88 192.769 1105.94 192.769Z" fill="#FFF8D9"/>
<path d="M1116.52 204.383L1078.52 204.383C1077.58 204.383 1076.83 203.599 1076.83 202.628C1076.83 201.657 1077.58 200.873 1078.52 200.873L1116.52 200.873C1117.46 200.873 1118.21 201.657 1118.21 202.628C1118.21 203.599 1117.46 204.383 1116.52 204.383Z" fill="#FFF8D9"/>
<path d="M1115.99 227.65L1079.01 227.65C1078.07 227.65 1077.32 226.866 1077.32 225.895C1077.32 224.924 1078.07 224.14 1079.01 224.14L1115.99 224.14C1116.93 224.14 1117.68 224.924 1117.68 225.895C1117.68 226.866 1116.93 227.65 1115.99 227.65Z" fill="#FFF8D9"/>
<path d="M1104.18 239.302L1090.82 239.302C1089.88 239.302 1089.13 238.518 1089.13 237.547C1089.13 236.576 1089.88 235.792 1090.82 235.792L1104.18 235.792C1105.12 235.792 1105.87 236.576 1105.87 237.547C1105.87 238.481 1105.12 239.302 1104.18 239.302Z" fill="#FFF8D9"/>
<path d="M1119.45 216.035L1075.59 216.035C1074.65 216.035 1073.9 215.251 1073.9 214.28C1073.9 213.309 1074.65 212.525 1075.59 212.525L1119.45 212.525C1120.38 212.525 1121.13 213.309 1121.13 214.28C1121.13 215.214 1120.38 216.035 1119.45 216.035Z" fill="#FFF8D9"/>
<path d="M1089.55 250.581C1091.24 249.46 1092.92 248.415 1094.76 247.22C1095.17 246.958 1095.59 246.697 1096 246.435C1082.98 238.032 1071.47 229.443 1071.47 213.981C1071.47 197.175 1085.05 188.511 1099.45 179.324C1106.95 174.544 1114.72 169.576 1120.65 163.302C1127.62 155.87 1131.04 147.579 1131.04 137.981C1131.04 128.383 1127.66 120.092 1120.65 112.66C1116.48 108.254 1111.42 104.482 1106.13 100.971L1105.49 101.382C1103.8 102.465 1102.15 103.548 1100.28 104.743C1099.86 105.004 1099.45 105.266 1099.04 105.527C1112.06 113.93 1123.57 122.52 1123.57 137.981C1123.57 154.787 1109.99 163.452 1095.59 172.639C1088.08 177.419 1080.32 182.386 1074.39 188.66C1067.38 196.13 1064 204.383 1064 213.981C1064 223.617 1067.38 231.87 1074.39 239.302C1078.56 243.709 1083.62 247.481 1088.91 250.992L1089.55 250.581Z" fill="#FFF8D9"/>
<path d="M1106.13 177.008C1104.18 178.278 1102.23 179.548 1100.28 180.78C1099.86 181.042 1099.45 181.303 1099.04 181.565C1112.06 189.968 1123.57 198.557 1123.57 214.019C1123.57 230.825 1109.99 239.489 1095.59 248.676C1093.86 249.759 1092.14 250.88 1090.41 252L1104.63 252C1110.4 248.191 1116.07 244.157 1120.65 239.302C1127.62 231.87 1131.04 223.579 1131.04 213.981C1131.04 204.383 1127.66 196.092 1120.65 188.66C1116.44 184.254 1111.38 180.519 1106.13 177.008Z" fill="#FFF8D9"/>
<path d="M1088.87 174.992C1090.82 173.722 1092.77 172.452 1094.72 171.22C1095.14 170.958 1095.55 170.697 1095.96 170.435C1082.94 162.032 1071.43 153.443 1071.43 137.981C1071.43 121.175 1085.01 112.511 1099.41 103.324C1101.14 102.241 1102.86 101.12 1104.59 100L1090.37 100C1084.6 103.809 1078.93 107.843 1074.35 112.698C1067.38 120.13 1064 128.383 1064 138.019C1064 147.617 1067.38 155.908 1074.39 163.34C1078.52 167.746 1083.62 171.481 1088.87 174.992Z" fill="#FFF8D9"/>
<path d="M1104.18 11.601L1090.82 11.601C1089.88 11.601 1089.13 10.8167 1089.13 9.84571C1089.13 8.87471 1089.88 8.09045 1090.82 8.09045L1104.18 8.09045C1105.12 8.09045 1105.87 8.87471 1105.87 9.84571C1105.87 10.8167 1105.12 11.601 1104.18 11.601Z" fill="#FFF8D9"/>
<path d="M1105.94 40.7686L1089.1 40.7686C1088.16 40.7686 1087.41 39.9843 1087.41 39.0133C1087.41 38.0423 1088.16 37.258 1089.1 37.258L1105.94 37.258C1106.88 37.258 1107.63 38.0423 1107.63 39.0133C1107.63 39.947 1106.88 40.7686 1105.94 40.7686Z" fill="#FFF8D9"/>
<path d="M1116.52 52.3832L1078.52 52.3832C1077.58 52.3832 1076.83 51.599 1076.83 50.628C1076.83 49.657 1077.58 48.8728 1078.52 48.8728L1116.52 48.8728C1117.46 48.8728 1118.21 49.657 1118.21 50.628C1118.21 51.599 1117.46 52.3832 1116.52 52.3832Z" fill="#FFF8D9"/>
<path d="M1115.99 75.6501L1079.01 75.6501C1078.07 75.6501 1077.32 74.8658 1077.32 73.8948C1077.32 72.9238 1078.07 72.1396 1079.01 72.1396L1115.99 72.1396C1116.93 72.1396 1117.68 72.9238 1117.68 73.8948C1117.68 74.8658 1116.93 75.6501 1115.99 75.6501Z" fill="#FFF8D9"/>
<path d="M1104.18 87.3022L1090.82 87.3022C1089.88 87.3022 1089.13 86.5179 1089.13 85.5469C1089.13 84.5759 1089.88 83.7917 1090.82 83.7917L1104.18 83.7917C1105.12 83.7917 1105.87 84.5759 1105.87 85.5469C1105.87 86.5179 1105.12 87.3022 1104.18 87.3022Z" fill="#FFF8D9"/>
<path d="M1119.45 64.0353L1075.59 64.0353C1074.65 64.0353 1073.9 63.2511 1073.9 62.2801C1073.9 61.3091 1074.65 60.5248 1075.59 60.5248L1119.45 60.5248C1120.38 60.5248 1121.13 61.3091 1121.13 62.2801C1121.13 63.2137 1120.38 64.0353 1119.45 64.0353Z" fill="#FFF8D9"/>
<path d="M1089.55 98.5808C1091.24 97.4604 1092.92 96.4147 1094.76 95.2197C1095.17 94.9582 1095.59 94.6968 1096 94.4354C1082.98 86.0324 1071.47 77.4428 1071.47 61.9813C1071.47 45.1754 1085.05 36.5111 1099.45 27.3238C1106.95 22.5435 1114.72 17.5764 1120.65 11.3022C1127.62 3.87027 1131.04 -4.42066 1131.04 -14.0187C1131.04 -23.6167 1127.66 -31.9076 1120.65 -39.3395C1116.48 -43.7464 1111.42 -47.5184 1106.13 -51.029L1105.49 -50.6182C1103.8 -49.5351 1102.15 -48.4521 1100.28 -47.257C1099.86 -46.9956 1099.45 -46.7341 1099.04 -46.4727C1112.06 -38.0698 1123.57 -29.4801 1123.57 -14.0187C1123.57 2.78721 1109.99 11.4516 1095.59 20.6388C1088.08 25.4192 1080.32 30.3863 1074.39 36.6605C1067.38 44.1297 1064 52.3833 1064 61.9813C1064 71.5794 1067.38 79.8703 1074.39 87.3022C1078.56 91.7091 1083.62 95.4811 1088.91 98.9916L1089.55 98.5808Z" fill="#FFF8D9"/>
<path d="M1106.13 25.0084C1104.18 26.2781 1102.23 27.5479 1100.28 28.7803C1099.86 29.0418 1099.45 29.3032 1099.04 29.5646C1112.06 37.9676 1123.57 46.5572 1123.57 62.0187C1123.57 78.8246 1109.99 87.4889 1095.59 96.6762C1093.86 97.7592 1092.14 98.8796 1090.41 100L1104.63 100C1110.4 96.1907 1116.07 92.1572 1120.65 87.3022C1127.62 79.8703 1131.04 71.5794 1131.04 61.9813C1131.04 52.3833 1127.66 44.0924 1120.65 36.6605C1116.44 32.2536 1111.38 28.5189 1106.13 25.0084Z" fill="#FFF8D9"/>
<path d="M1088.87 22.9916C1090.82 21.7219 1092.77 20.4521 1094.72 19.2196C1095.14 18.9582 1095.55 18.6968 1095.96 18.4354C1082.94 10.0324 1071.43 1.44273 1071.43 -14.0187C1071.43 -30.8246 1085.01 -39.4889 1099.41 -48.6762C1101.14 -49.7592 1102.86 -50.8796 1104.59 -52L1090.37 -52C1084.6 -48.1907 1078.93 -44.1572 1074.35 -39.3022C1067.38 -31.8703 1064 -23.6167 1064 -14.0187C1064 -4.42066 1067.38 3.87027 1074.39 11.3022C1078.52 15.7464 1083.62 19.4811 1088.87 22.9916Z" fill="#FFF8D9"/>
</g>
</g>
<defs>
<clipPath id="clip0">
<rect width="608" height="67" fill="white" transform="translate(1064 404) rotate(-90)"/>
</clipPath>
</defs>
</svg>
