<?xml version="1.0" encoding="utf-8"?>
<!-- Generator: Adobe Illustrator 22.0.0, SVG Export Plug-In . SVG Version: 6.00 Build 0)  -->
<svg version="1.1" id="Layer_1" xmlns="http://www.w3.org/2000/svg" xmlns:xlink="http://www.w3.org/1999/xlink" x="0px" y="0px"
	 viewBox="0 0 298.5 438.5" style="enable-background:new 0 0 298.5 438.5;" xml:space="preserve">
<style type="text/css">
	.st0{fill:#828383;}
	.st1{fill:#F9D332;}
	.st2{fill:#818282;}
</style>
<g>
	<g>
		<path class="st0" d="M162.3,11.7h-2.9c-0.1-0.6-0.3-1.2-0.5-1.7l2.5-1.4c0.7-0.4,0.8-1.1,0.4-1.7l-0.4-0.6
			c-0.4-0.6-1.2-0.8-1.7-0.4l-2.5,1.5c-0.4-0.4-0.9-0.9-1.3-1.2l1.4-2.5c0.4-0.6,0.1-1.4-0.4-1.7l-0.6-0.4c-0.7-0.4-1.4-0.1-1.7,0.4
			l-1.5,2.5c-0.6-0.2-1.2-0.4-1.7-0.4V1.2c0-0.7-0.6-1.2-1.2-1.2h-0.7c-0.7,0-1.2,0.6-1.2,1.2v2.8c-0.7,0.1-1.2,0.3-1.7,0.5
			l-1.4-2.5c-0.4-0.6-1.2-0.8-1.7-0.4L142.9,2c-0.7,0.4-0.8,1.1-0.4,1.7l1.5,2.5c-0.4,0.4-0.9,0.9-1.2,1.3l-2.5-1.4
			c-0.7-0.4-1.4-0.1-1.7,0.4l-0.4,0.6c-0.4,0.6-0.1,1.4,0.4,1.7l2.5,1.5c-0.2,0.6-0.4,1.1-0.4,1.7h-2.8c-0.7,0-1.2,0.6-1.2,1.2v0.6
			c0,0.7,0.6,1.2,1.2,1.2h2.9c0.1,0.6,0.3,1.2,0.5,1.7l-2.5,1.4c-0.7,0.4-0.8,1.1-0.4,1.7l0.4,0.6c0.4,0.6,1.2,0.8,1.7,0.4l2.5-1.5
			c0.4,0.4,0.9,0.9,1.3,1.2l-1.4,2.5c-0.4,0.6-0.1,1.4,0.4,1.7l0.6,0.4c0.7,0.4,1.4,0.1,1.7-0.4l1.5-2.5c0.6,0.2,1.2,0.4,1.7,0.4
			v2.8c0,0.7,0.6,1.2,1.2,1.2h0.7c0.7,0,1.2-0.6,1.2-1.2v-2.8c0.7-0.1,1.2-0.3,1.7-0.5l1.4,2.5c0.4,0.6,1.2,0.8,1.7,0.4l0.6-0.4
			c0.7-0.4,0.8-1.1,0.4-1.7l-1.5-2.5c0.4-0.4,0.9-0.9,1.2-1.3l2.5,1.4c0.7,0.4,1.4,0.1,1.7-0.4l0.4-0.6c0.4-0.6,0.1-1.4-0.4-1.7
			l-2.5-1.5c0.2-0.6,0.4-1.1,0.4-1.7h2.8c0.7,0,1.2-0.6,1.2-1.2V13C163.6,12.2,163,11.7,162.3,11.7z M150,18.8c-3,0-5.5-2.4-5.5-5.4
			c0-3,2.4-5.4,5.5-5.4c3,0,5.5,2.4,5.5,5.4C155.5,16.4,153,18.8,150,18.8z M105.7,149.5h-0.4c-2.6,0-4.7,2.1-4.7,4.6v96.3
			c0,1.2,0.4,2.3,1.2,3.1c0.1,0.1,0.3,0.4,0.4,0.5c2.9,3.1,8.1,1,8.1-3.2v-96.7C110.5,151.5,108.4,149.5,105.7,149.5z M172.5,99.8
			h-0.4c-2.6,0-4.7,2.1-4.7,4.6v163.3c0,3.4,3.5,5.5,6.6,4.2c0.1-0.1,0.3-0.1,0.4-0.1c1.7-0.7,2.8-2.4,2.8-4.2V104.4
			C177.1,101.8,175,99.8,172.5,99.8z M194.7,149.5h-0.4c-2.6,0-4.7,2.1-4.7,4.6v97c0,4.2,5.2,6.3,8.1,3.2c0.1-0.1,0.3-0.4,0.4-0.4
			c0.8-0.9,1.2-2,1.2-3.1v-96.6C199.3,151.5,197.3,149.5,194.7,149.5z M127.9,99.8h-0.4c-2.6,0-4.7,2.1-4.7,4.6v162.9
			c0,1.8,1,3.4,2.7,4.2c0.1,0.1,0.4,0.1,0.5,0.2c3.1,1.4,6.6-0.9,6.6-4.3V104.4C132.6,101.8,130.6,99.8,127.9,99.8z M150,31.4
			c-2.7,0-4.9,2.1-4.9,4.8v235.9c0,2.5,2,4.6,4.6,4.6c0.1,0,0.2,0,0.4,0h0.2c2.5,0,4.6-2,4.6-4.6V36.2
			C154.9,33.6,152.7,31.4,150,31.4z"/>
	</g>
</g>
<path class="st1" d="M236.3,232.1c15.4-22.1,30.3-42.2,55.8-44.9c3.6-0.4,6.4-3.6,6.3-7.1l0,0c0-4.2-3.6-7.6-7.9-7.2
	c-15.6,1.6-29.3,8.1-41.8,19.7c-8.7,8.1-16,18-22.9,28.2L213,240.4c-16.5,25.3-33.4,47.6-63.7,47.6c-33,0-50-26.4-68-54.3
	c-2.1-3.4-4.3-6.7-6.6-10.1l0,0c-7.4-11.2-15.4-22.2-24.9-31.1C37.3,181,23.6,174.4,8.2,172.8c-4.3-0.5-8.1,2.9-8.1,7.2l0,0
	c0,3.7,2.8,6.8,6.4,7.2c28.9,3.2,44.9,27.9,61.6,54l6.6,10.1c7.4,11.2,15.4,22.2,24.9,31.1c14.6,13.5,30.8,20.2,49.7,20.2
	c18.9,0,35.1-6.6,49.7-20.2c8.7-8.1,16.1-17.9,22.9-28.2C221.9,254.1,235.4,233.5,236.3,232.1z"/>
<path class="st2" d="M0,294.9c0,4.3,3.7,7.6,7.9,7.2c15.6-1.6,29.3-8.1,41.8-19.8c8.7-8.1,16.1-17.9,22.9-28.2l0.1-0.1
	c-0.2-0.4-0.4-0.7-0.7-1.2l-6.6-10.1c-0.6-0.9-1.1-1.7-1.7-2.5l-0.1,0.1c-15.3,23.4-30.9,44.4-57.3,47.3C2.7,288.1,0,291.2,0,294.9
	L0,294.9z"/>
<path class="st2" d="M93.2,199c-6,6.6-11.4,14.1-16.5,21.6l-0.1,0.1c0.2,0.4,0.5,0.7,0.7,1.1c2.2,3.3,4.2,6.5,6.6,10.1
	c0.6,0.9,1.1,1.7,1.7,2.5l1.6-2.5c2-3.1,4-6,6-8.9L93.2,199L93.2,199z"/>
<path class="st1" d="M29.4,271.4h-4.1c-0.7,0-1.2-0.6-1.2-1.2v-65.3c0-0.7,0.6-1.2,1.2-1.2h4.1c0.7,0,1.2,0.6,1.2,1.2v65.3
	C30.7,270.9,30.1,271.4,29.4,271.4z"/>
<path class="st1" d="M10.8,279.4H6.7c-0.7,0-1.2-0.6-1.2-1.2v-81.3c0-0.7,0.6-1.2,1.2-1.2h4.1c0.7,0,1.2,0.6,1.2,1.2v81.3
	C12.1,278.9,11.5,279.4,10.8,279.4z"/>
<path class="st1" d="M268.9,203.7h4.1c0.7,0,1.2,0.6,1.2,1.2v65.3c0,0.7-0.6,1.2-1.2,1.2h-4.1c-0.7,0-1.2-0.6-1.2-1.2v-65.3
	C267.7,204.2,268.2,203.7,268.9,203.7z"/>
<path class="st1" d="M250.3,221.4h4.1c0.7,0,1.2,0.6,1.2,1.2v29.7c0,0.7-0.6,1.2-1.2,1.2h-4.1c-0.7,0-1.2-0.6-1.2-1.2v-29.7
	C249.1,222,249.6,221.4,250.3,221.4z"/>
<path class="st1" d="M44,221.4H48c0.7,0,1.2,0.6,1.2,1.2v29.7c0,0.7-0.6,1.2-1.2,1.2H44c-0.7,0-1.2-0.6-1.2-1.2v-29.7
	C42.7,222,43.3,221.4,44,221.4z"/>
<path class="st1" d="M287.5,195.7h4.1c0.7,0,1.2,0.6,1.2,1.2v81.3c0,0.7-0.6,1.2-1.2,1.2h-4.1c-0.7,0-1.2-0.6-1.2-1.2v-81.3
	C286.3,196.2,286.8,195.7,287.5,195.7z"/>
<g>
	<path class="st2" d="M292.1,287.6c-26.5-2.9-42.1-24-57.5-47.6c-2.7,4.2-6.3,9.6-9,13.8c7,10.4,14.5,20.4,23.2,28.6
		c12.5,11.7,26.2,18.1,41.8,19.7c4.2,0.4,7.9-3,7.9-7.2C298.5,291.1,295.8,288.1,292.1,287.6z"/>
	<path class="st2" d="M222.2,221c-4.8-7.1-9.8-14.1-15.3-20.4v24.6c2.1,3.1,4.2,6.2,6.3,9.5L222.2,221z"/>
</g>
<g>
	<g>
		<path class="st1" d="M52.8,371.3c0,2.7-2.6,5-5.5,5c-3,0-5.7-2.3-5.7-5v-27.5l-9.1,17.9c-1,2.1-3,3-5.3,3c-2.2,0-4.2-1-5.2-3
			l-9.1-17.9v27.5c0,2.7-2.6,5-5.8,5c-3,0-5.4-2.3-5.4-5v-47.5c0-3,2.5-5.3,5.8-5.3c2.6,0,4.6,1,5.6,3.1l14.2,28.3l14.2-28.3
			c1.1-2.3,3.3-3,5.5-3c3.3,0,5.8,2.4,5.8,5.3V371.3z"/>
		<path class="st1" d="M59.6,355.3v-15.8c0-11.4,5.8-21,20.8-21c15,0,20.8,9.6,20.8,21v15.8c0,11.7-7,21.1-20.8,21.1
			S59.6,367,59.6,355.3z M70.9,339.4v15.8c0,6.4,3,10.9,9.6,10.9c6.6,0,9.6-4.5,9.6-10.9v-15.8c0-6.5-2.6-10.8-9.6-10.8
			C73.4,328.6,70.9,333,70.9,339.4z"/>
		<path class="st1" d="M128.6,353.9c-1.7-0.7-3.7-1.4-5.8-2.2c-7.8-2.4-16.3-5-16.3-16.6c0-10.3,7.2-16.6,18.6-16.6
			c4.7,0,16.1,1.2,16.1,7.2c0,2.6-2.1,5-5.6,5c-1.4,0-2.6-0.5-3.9-0.9c-1.5-0.6-3.3-1.2-6.1-1.2c-3.9,0-7.6,1.4-7.6,6.1
			c0,3.5,2,4.7,3.4,5.4c2.1,1,4,1.7,5.8,2.2c7.8,2.5,16.4,5.2,16.4,16.6c0,11.1-8.5,17.5-19.9,17.5c-5.9,0-17.1-2.1-17.1-7.7
			c0-2.6,2.3-5,5.3-5c1.2,0,2.5,0.4,4,1c1.9,0.6,4.5,1.6,7.9,1.6c5.5,0,8.3-2.5,8.3-6.9C131.9,355.7,130.1,354.5,128.6,353.9z"/>
		<path class="st1" d="M159.5,355.3c0,6.9,2.4,11.2,9.6,11.2c2.6,0,4.6-0.6,6.6-1.9l0.8-0.5c1-0.6,1.6-1.2,3.4-1.2
			c3,0,5.3,2.2,5.3,4.8c0,4.6-8.1,8.6-16.6,8.6c-14,0-20.4-8.3-20.4-21v-15.8c0-12.6,6.4-21,20.4-21c8.5,0,16.6,3.9,16.6,8.6
			c0,2.6-2.2,4.8-5.3,4.8c-1.8,0-2.4-0.6-3.4-1.2l-0.8-0.5c-2-1.3-4.1-1.9-6.6-1.9c-7.2,0-9.6,4.3-9.6,11.2V355.3z"/>
		<path class="st1" d="M189.2,355.3v-15.8c0-11.4,5.8-21,20.8-21c15,0,20.8,9.6,20.8,21v15.8c0,11.7-7,21.1-20.8,21.1
			C196.2,376.3,189.2,367,189.2,355.3z M200.4,339.4v15.8c0,6.4,3,10.9,9.6,10.9c6.6,0,9.6-4.5,9.6-10.9v-15.8
			c0-6.5-2.6-10.8-9.6-10.8C203,328.6,200.4,333,200.4,339.4z"/>
		<path class="st1" d="M277.2,343.2c1.1,4.4,1.5,8.9,2.3,13.4c0.8-4.5,1.3-9,2.4-13.4l5.1-20.4c0.6-2.6,2.6-4.1,5.1-4.1
			c2.7,0,6.2,1.5,6.2,4.9c0,0.2,0,0.6-0.2,1l-12,46.7c-0.8,2.6-2.7,5-6.6,5c-3.8,0-5.8-2.5-6.6-5.1l-4.7-19.6
			c-1-4.2-1.4-8.6-2.2-12.8c-0.7,4.2-1.1,8.6-2.2,12.8l-4.8,19.8c-0.7,2.3-2.3,5-6.6,5c-3.3,0-5.9-2.6-6.6-5L234.2,325
			c-0.2-0.8-0.3-1.5-0.3-1.5c0-3,3.2-4.8,6-4.8c2.3,0,4.6,1.2,5.2,3.8l5.3,20.7c1.1,4.3,1.5,8.9,2.3,13.3c0.8-4.2,1.2-9,2.2-13.3
			l4.7-18.8c1-3.8,2.1-5.9,6.5-5.9c4.1,0,5.5,2.3,6.4,5.9L277.2,343.2z"/>
	</g>
</g>
<g>
	<path class="st2" d="M181.7,438.5c-2.3,0-4.2-1.8-4.2-4.2c0-0.6,0.1-15.2,14.8-22.5c5.5-2.8,6.1-6.3,6.1-7.4v-0.7
		c0-3.5-2.8-6.3-6.3-6.3s-6.3,2.8-6.3,6.3c0,2.3-1.8,4.2-4.2,4.2c-2.3,0-4.2-1.8-4.2-4.2c0-8,6.6-14.6,14.6-14.6
		c8,0,14.5,6.5,14.6,14.5v0.7c0,2.8-1,10.2-10.7,15c-5.9,2.9-8.4,7.5-9.5,10.9h15.9c2.3,0,4.2,1.8,4.2,4.2c0,2.3-1.8,4.2-4.2,4.2
		H181.7z"/>
	<path class="st2" d="M245.3,409.7v8.2c0,12-7,20.6-16.4,20.6c-9.6,0-16.4-8.8-16.4-20.6v-8.2c0-11.9,7.3-20.6,16.4-20.6
		c4.4,0,8.8,2.2,11.8,5.9C243.6,398.8,245.3,403.9,245.3,409.7z M237.1,409.7c0-6-2.9-12.4-8.3-12.4c-5.4,0-8.3,6.4-8.3,12.4v8.2
		c0,7.1,3.2,12.3,8.3,12.3c4.9,0,8.3-5.2,8.3-12.3V409.7z"/>
	<path class="st2" d="M255.3,438.5c-2.3,0-4.2-1.8-4.2-4.2c0-0.6,0.1-15.2,14.8-22.5c5.5-2.8,6.1-6.3,6.1-7.4v-0.7
		c0-3.5-2.8-6.3-6.3-6.3c-3.5,0-6.3,2.8-6.3,6.3c0,2.3-1.8,4.2-4.2,4.2c-2.3,0-4.2-1.8-4.2-4.2c0-8,6.6-14.6,14.6-14.6
		c8,0,14.5,6.5,14.6,14.5v0.7c0,2.8-1,10.2-10.7,15c-5.9,2.9-8.4,7.5-9.5,10.9h15.9c2.3,0,4.2,1.8,4.2,4.2c0,2.3-1.8,4.2-4.2,4.2
		H255.3z"/>
	<path class="st2" d="M289.2,434.4v-37.1c-2.3,0-4.1-1.8-4.1-4.2c0-2.3,1.8-4.1,4.1-4.1h4.2c2.3,0,4,1.8,4,4.1v41.2
		c0,2.3-1.8,4.1-4.1,4.1C291.1,438.5,289.2,436.7,289.2,434.4z"/>
</g>
<g>
	<g>
		<path class="st2" d="M6,434.4v-23c0-2.3,1.8-4.1,4.1-4.1c2.3,0,4.1,1.8,4.1,4.1v23c0,2.3-1.8,4.1-4.1,4.1
			C7.9,438.5,6,436.7,6,434.4z"/>
		<path class="st2" d="M27.9,431.3c-4.7-4.7-7.2-10.9-7.2-17.5c0-6.6,2.5-12.8,7.2-17.4c4.7-4.7,10.9-7.3,17.5-7.3
			c6.6,0,12.8,2.5,17.5,7.3c0.8,0.8,1.1,1.8,1.1,2.8c0,1.1-0.4,2.1-1.2,3c-0.8,0.8-1.8,1.2-2.9,1.2s-2.1-0.4-2.9-1.2
			c-3.1-3.1-7.3-4.8-11.6-4.8c-4.4,0-8.5,1.7-11.6,4.8c-3.1,3.1-4.9,7.3-4.9,11.6c0,4.4,1.8,8.5,4.9,11.6c3.2,3.2,7.4,4.9,11.6,4.9
			c3.7,0,7.4-1.3,10.4-3.7v-8.7H45.5c-2.3,0-4.2-1.8-4.2-4.1c0-2.3,1.9-4.1,4.2-4.1h14.4c2.3,0,4.1,1.8,4.1,4.1v14.5
			c0,1.1-0.4,2.2-1.2,3c-4.8,4.8-11.2,7.2-17.4,7.2C39,438.5,32.7,436.1,27.9,431.3z"/>
		<path class="st2" d="M102.6,434.4c0,2.3-1.8,4.1-4.2,4.1H75.8c-2.3,0-4.2-1.8-4.2-4.1v-41.2c0-2.3,1.8-4.1,4.2-4.1h22.6
			c2.3,0,4.2,1.8,4.2,4.1c0,2.3-1.8,4.2-4.2,4.2H79.9v12.4h14.4c2.3,0,4.1,1.8,4.1,4.1c0,2.3-1.8,4.1-4.1,4.1H79.9v12.3h18.5
			C100.7,430.3,102.6,432.1,102.6,434.4z"/>
		<path class="st2" d="M146,434.4v-28.9l-11.1,14.8c-0.8,1.1-2,1.7-3.3,1.7c-1.3,0-2.5-0.6-3.3-1.7l-11.1-14.8v28.9
			c0,2.3-1.8,4.1-4.2,4.1c-2.3,0-4.1-1.8-4.1-4.1v-41.2c0-2.2,1.8-4.1,4.2-4.1c1.3,0,2.5,0.6,3.2,1.6l15.2,20.3l15.2-20.3
			c0.8-1.1,2-1.6,3.2-1.6c2.4,0,4.2,1.9,4.2,4.1v41.2c0,2.3-1.8,4.1-4.2,4.1C147.8,438.5,146,436.7,146,434.4z"/>
	</g>
</g>
<path class="st2" d="M17.7,395.8h-1.8c-0.1-0.3-0.2-0.7-0.2-1.1l1.5-0.9c0.3-0.2,0.5-0.7,0.2-1.1l-0.2-0.3c-0.2-0.3-0.7-0.5-1.1-0.2
	l-1.6,0.9c-0.2-0.2-0.5-0.6-0.8-0.7l0.9-1.5c0.2-0.3,0.1-0.8-0.2-1.1l-0.3-0.2c-0.3-0.2-0.8-0.1-1.1,0.2l-0.9,1.6
	c-0.3-0.2-0.7-0.2-1.1-0.2v-1.9c0-0.4-0.3-0.7-0.7-0.7H9.7c-0.4,0-0.7,0.3-0.7,0.7v1.8c-0.3,0.1-0.7,0.2-1.1,0.2l-0.9-1.5
	c-0.2-0.3-0.7-0.5-1.1-0.2l-0.3,0.2c-0.3,0.2-0.5,0.7-0.2,1.1l0.9,1.6c-0.2,0.2-0.6,0.5-0.7,0.8L4,392.3c-0.3-0.2-0.8-0.1-1.1,0.2
	l-0.2,0.3c-0.2,0.3-0.1,0.8,0.2,1.1l1.6,0.9c-0.2,0.3-0.2,0.7-0.2,1.1H2.4c-0.4,0-0.7,0.3-0.7,0.7v0.4c0,0.4,0.3,0.7,0.7,0.7h1.8
	c0.1,0.3,0.2,0.7,0.2,1.1L3,399.8c-0.3,0.2-0.5,0.7-0.2,1.1l0.2,0.3c0.2,0.3,0.7,0.5,1.1,0.2l1.6-0.9c0.2,0.2,0.5,0.6,0.8,0.7
	l-0.9,1.5c-0.2,0.3-0.1,0.8,0.2,1.1l0.3,0.2c0.3,0.2,0.8,0.1,1.1-0.2l0.9-1.6c0.3,0.2,0.7,0.2,1.1,0.2v1.8c0,0.4,0.3,0.7,0.7,0.7
	h0.4c0.4,0,0.7-0.3,0.7-0.7v-1.8c0.3-0.1,0.7-0.2,1.1-0.2l0.9,1.5c0.2,0.3,0.7,0.5,1.1,0.2l0.3-0.2c0.3-0.2,0.5-0.7,0.2-1.1
	l-0.9-1.6c0.2-0.2,0.6-0.5,0.7-0.8l1.5,0.9c0.3,0.2,0.8,0.1,1.1-0.2l0.2-0.3c0.2-0.3,0.1-0.8-0.2-1.1l-1.6-0.9
	c0.2-0.3,0.2-0.7,0.2-1.1h1.8c0.4,0,0.7-0.3,0.7-0.7v-0.4C18.5,396.1,18.2,395.8,17.7,395.8z M10.1,400.2c-1.9,0-3.4-1.6-3.4-3.4
	c0-1.9,1.6-3.4,3.4-3.4c1.9,0,3.4,1.6,3.4,3.4C13.6,398.7,12,400.2,10.1,400.2z"/>
</svg>
