<?xml version="1.0" encoding="utf-8"?>
<!-- Generator: Adobe Illustrator 22.0.0, SVG Export Plug-In . SVG Version: 6.00 Build 0)  -->
<svg version="1.1" id="Layer_1" xmlns="http://www.w3.org/2000/svg" xmlns:xlink="http://www.w3.org/1999/xlink" x="0px" y="0px"
	 viewBox="0 0 512 512" style="enable-background:new 0 0 512 512;" xml:space="preserve">
<path d="M410.7,205.1C388.4,165,346.7,140,302,140s-86.4,25-108.7,65.1c-1.7,3-1.7,6.7,0,9.7C215.6,255,257.3,280,302,280
	c44.7,0,86.4-25,108.7-65.1C412.4,211.8,412.4,208.2,410.7,205.1z M302,260c-35.6,0-69-19-88.4-50c19.4-31,52.8-50,88.4-50
	s69,19,88.4,50C371,241,337.6,260,302,260z"/>
<path d="M302,180c-16.5,0-30,13.5-30,30s13.5,30,30,30s30-13.5,30-30S318.5,180,302,180z M302,220c-5.5,0-10-4.5-10-10s4.5-10,10-10
	s10,4.5,10,10C312,215.5,307.5,220,302,220z"/>
<path d="M302,0C186.2,0,92,94.2,92,210c0,43.5,13.3,83.9,36,117.4L11.7,443.8C4.1,451.3,0,461.3,0,472s4.1,20.8,11.7,28.3
	C19.2,507.9,29.3,512,40,512s20.8-4.1,28.3-11.7L184.6,384c33.5,22.7,74,36,117.4,36c115.8,0,210-94.2,210-210
	C512,94.2,417.8,0,302,0z M54.1,486.2c-3.8,3.8-8.8,5.8-14.1,5.8c-5.4,0-10.4-2.1-14.1-5.8c-3.8-3.8-5.8-8.8-5.8-14.1
	c0-5.4,2.1-10.4,5.8-14.1l85.8-85.9c8.7,10.2,18.1,19.6,28.3,28.3L54.1,486.2z M154.1,386.1c-10.2-8.6-19.7-18.1-28.3-28.3
	l14.2-14.2c8.5,10.3,18,19.8,28.3,28.3L154.1,386.1z M302,400c-104.8,0-190-85.2-190-190S197.2,20,302,20s190,85.2,190,190
	S406.8,400,302,400z"/>
<path d="M228.2,62.1c-2.8-4.8-8.9-6.4-13.7-3.7c-17.5,10.1-33,23-46,38.4c-3.6,4.2-3.1,10.5,1.2,14.1c1.9,1.6,4.2,2.4,6.5,2.4
	c2.8,0,5.7-1.2,7.6-3.5c11.6-13.6,25.3-25.1,40.7-34C229.3,73,230.9,66.9,228.2,62.1z"/>
<path d="M164.2,118.6c-4.8-2.8-10.9-1.1-13.7,3.7l-0.1,0.2c-2.8,4.8-1.1,10.9,3.7,13.7c1.6,0.9,3.3,1.3,5,1.3c3.5,0,6.8-1.8,8.7-5
	l0.1-0.2C170.6,127.5,169,121.4,164.2,118.6z"/>
</svg>
