<svg viewBox="0 0 512 512"><g><path d="m452.772 59.228c-38.194-38.194-88.975-59.228-142.989-59.228-54.015 0-104.796 21.034-142.989 59.228-38.194 38.193-59.228 88.975-59.228 142.989 0 38.902 10.911 76.127 31.285 108.18l-121.358 109.253c-10.893 9.83-17.099 23.322-17.475 37.99s5.131 28.46 15.507 38.836c10.043 10.043 23.286 15.524 37.429 15.524.467 0 .938-.006 1.406-.018 14.647-.375 28.123-6.565 37.95-17.429l110.489-120.649c31.782 19.889 68.565 30.531 106.985 30.531 54.014 0 104.795-21.034 142.988-59.229 38.194-38.193 59.228-88.975 59.228-142.989s-21.034-104.796-59.228-142.989zm-382.62 415.1-.073.081c-4.267 4.727-10.121 7.42-16.487 7.583-6.318.161-12.351-2.227-16.854-6.729s-6.893-10.489-6.729-16.854c.163-6.365 2.856-12.22 7.57-16.474l30.553-27.506 29.688 29.688zm47.948-52.357-27.642-27.642 66.404-59.781c3.169 3.651 6.48 7.206 9.932 10.658 3.777 3.777 7.678 7.386 11.693 10.824zm313.459-97.978c-32.527 32.527-75.775 50.441-121.775 50.441-46.001 0-89.249-17.914-121.776-50.441-32.527-32.528-50.441-75.775-50.441-121.776 0-46 17.914-89.248 50.441-121.776 32.526-32.527 75.774-50.441 121.775-50.441 46 0 89.248 17.914 121.775 50.441 32.528 32.528 50.442 75.775 50.442 121.776s-17.914 89.248-50.441 121.776z"/><path d="m449.45 195.621c-.404-.826-10.153-20.439-32.238-39.707-20.234-17.653-55.298-38.697-107.429-38.697s-87.194 21.043-107.43 38.697c-22.085 19.268-31.834 38.881-32.238 39.707l-3.229 6.596 3.229 6.596c.404.826 10.153 20.439 32.238 39.707 20.235 17.653 55.299 38.697 107.43 38.697s87.194-21.043 107.429-38.697c22.085-19.268 31.834-38.881 32.238-39.707l3.229-6.596zm-84.667 6.596c0 30.327-24.673 55-55 55s-55-24.673-55-55 24.673-55 55-55 55 24.673 55 55zm-163.733-.027c4.848-7.253 14.293-19.311 29.32-30.289-3.608 9.42-5.586 19.641-5.586 30.315 0 10.69 1.984 20.926 5.603 30.358-2.506-1.842-4.957-3.786-7.351-5.832-10.771-9.206-17.955-18.54-21.986-24.552zm188.147 30.342c3.608-9.42 5.586-19.641 5.586-30.315 0-10.69-1.984-20.925-5.602-30.357 2.506 1.842 4.956 3.785 7.349 5.831 10.77 9.207 17.954 18.541 21.985 24.552-4.848 7.254-14.292 19.311-29.318 30.289z"/><path d="m294.783 187.217h30v30h-30z"/></g></svg>