<svg height="512pt" viewBox="0 -36 512.00019 512" width="512pt" xmlns="http://www.w3.org/2000/svg"><path d="m228.777344 348c-10.785156 8.367188-25.847656 8.367188-36.636719 0-3.269531-2.539062-7.984375-1.945312-10.519531 1.332031-2.539063 3.269531-1.945313 7.980469 1.328125 10.519531 8.097656 6.28125 17.804687 9.421876 27.511719 9.421876 9.707031 0 19.410156-3.140626 27.511718-9.421876 3.269532-2.539062 3.867188-7.25 1.328125-10.519531-2.539062-3.277343-7.25-3.871093-10.523437-1.332031zm0 0"/><path d="m129.8125 337.125c-7.136719 0-13.738281 3.5625-17.65625 9.53125-2.273438 3.460938-1.3125 8.109375 2.148438 10.382812 3.460937 2.273438 8.109374 1.3125 10.386718-2.152343 1.636719-2.492188 4.125-2.761719 5.121094-2.761719s3.441406.296875 5.121094 2.761719c3.503906 5.144531 9.117187 2.984375 10.386718 2.152343 3.460938-2.273437 4.425782-6.921874 2.152344-10.382812-3.921875-5.96875-10.523437-9.53125-17.660156-9.53125zm0 0"/><path d="m291.105469 337.125c-7.136719 0-13.738281 3.5625-17.65625 9.53125-2.273438 3.460938-1.308594 8.109375 2.152343 10.382812 3.460938 2.273438 8.109376 1.3125 10.382813-2.152343 1.640625-2.492188 4.128906-2.761719 5.121094-2.761719.996093 0 3.441406.296875 5.125 2.761719 3.503906 5.144531 9.113281 2.984375 10.382812 2.152343 3.460938-2.273437 4.425781-6.921874 2.152344-10.382812-3.921875-5.96875-10.519531-9.53125-17.660156-9.53125zm0 0"/><path d="m503.785156 260.949219-38.777344-38.777344c-10.257812-10.253906-23.890624-15.902344-38.390624-15.902344h-58.5625c-.074219-19.351562-.167969-36.902343-.226563-47.125 0 0 44.878906 16.613281 58.480469-21.617187l9.964844-25.777344c3.933593-10.171875 3.472656-21.636719-1.261719-31.460938-4.738281-9.820312-13.421875-17.324218-23.828125-20.578124l-71.394532-22.34375c-.5-4.179688-2.027343-8.195313-4.515624-11.734376-8.175782-11.640624-24.300782-14.453124-35.945313-6.273437-25.917969 18.210937-60.742187 18.210937-86.660156 0-11.636719-8.179687-27.761719-5.363281-35.945313 6.273437-2.488281 3.539063-4.015625 7.554688-4.515625 11.734376l-27.980469 8.757812c-3.949218 1.234375-6.152343 5.441406-4.914062 9.394531 1.003906 3.207031 4.929688 5.914063 9.394531 4.917969l26.164063-8.1875c1.882812 3.683594 4.644531 6.878906 8.125 9.324219 21.429687 15.0625 46.671875 23.023437 73.003906 23.023437 26.328125 0 51.574219-7.960937 73-23.019531 3.484375-2.449219 6.246094-5.644531 8.128906-9.328125l69.574219 21.773438c6.558594 2.054687 11.8125 6.589843 14.796875 12.78125 2.984375 6.1875 3.265625 13.125.785156 19.535156l-9.964844 25.78125c-4.371093 11.304687-16.152343 17.695312-28.011718 15.179687l-22.480469-4.753906c-4.335937-.597656-8.859375.792969-9.050781 7.382813-.007813.277343.160156 26.097656.28125 56.339843h-194.117188c.121094-30.242187.28125-56.0625.28125-56.339843 0-5.832032-3.5-8.535157-9.050781-7.382813l-22.480469 4.753906c-11.855468 2.515625-23.640625-3.875-28.011718-15.179687l-9.964844-25.78125c-2.476563-6.410156-2.199219-13.347656.785156-19.535156 2.984375-6.191407 8.242188-10.726563 14.796875-12.78125l12.902344-4.039063c3.953125-1.238281 6.15625-5.441406 4.917969-9.394531-1.238282-3.953125-5.441407-6.15625-9.394532-4.917969l-12.90625 4.039063c-10.40625 3.253906-19.089844 10.757812-23.824218 20.578124-4.738282 9.824219-5.199219 21.289063-1.265626 31.460938l9.964844 25.777344c16.09375 40.261718 58.480469 21.617187 58.480469 21.617187l-.226563 47.125h-58.5625c-14.5 0-28.132812 5.648438-38.390624 15.902344l-38.777344 38.777344c-8.105469 8.101562-10.414063 19.714843-6.027344 30.304687s14.230469 17.167969 25.691406 17.167969h30.621094v86.460937c0 25.273438 20.5625 45.835938 45.839844 45.835938h303.320312c25.273438 0 45.835938-20.5625 45.835938-45.835938v-87.128906c2.839844.4375 5.726562.667969 8.652344.667969h21.972656c11.460937 0 21.304687-6.578125 25.691406-17.167969s2.078125-22.203125-6.027344-30.304687zm-183.40625-211.644531c-18.890625 13.277343-41.152344 20.292968-64.378906 20.292968s-45.488281-7.015625-64.378906-20.292968c-4.871094-3.425782-6.097656-10.210938-2.625-15.050782 4.824218-6.730468 13.164062-3.949218 15.050781-2.625 31.074219 21.839844 72.832031 21.839844 103.90625 0 4.875-3.425781 11.515625-2.167968 15.050781 2.625 4.894532 6.640625-.265625 13.390625-2.625 15.050782zm-304.335937 236.210937c-2.050781-4.953125-1.011719-10.171875 2.777343-13.960937l38.777344-38.777344c7.421875-7.421875 17.289063-11.511719 27.785156-11.511719h251.429688l-60.152344 60.15625c-7.738281 7.738281-18.027344 12-28.972656 12h-219.808594c-5.359375 0-9.785156-2.957031-11.835937-7.90625zm88.296875 140.203125c-17.003906 0-30.839844-13.832031-30.839844-30.839844v-86.457031h174.1875c14.949219 0 29.003906-5.820313 39.574219-16.394531l60.15625-60.15625v193.847656zm391.617187-140.203125c-2.050781 4.949219-6.476562 7.90625-11.835937 7.90625h-21.972656c-10.941407 0-21.230469-4.261719-28.972657-12l-11.316406-11.320313c-2.929687-2.925781-7.679687-2.925781-10.605469 0-2.929687 2.929688-2.929687 7.679688 0 10.605469l11.320313 11.320313c4.695312 4.695312 10.082031 8.449218 15.925781 11.175781v91.675781c0 17.007813-13.835938 30.839844-30.839844 30.839844h-45.242187v-193.847656l27.789062 27.792968c2.929688 2.925782 7.675781 2.925782 10.605469 0 2.929688-2.929687 2.929688-7.679687 0-10.605468l-27.789062-27.792969h53.59375c10.496093 0 20.363281 4.089844 27.785156 11.511719l38.777344 38.777344c3.789062 3.789062 4.828124 9.007812 2.777343 13.960937zm0 0"/><path d="m36.214844 50.644531 5.03125 2.753907c3.765625 2.0625 6.847656 5.144531 8.910156 8.910156l2.75 5.03125c2.621094 4.789062 7.636719 7.765625 13.09375 7.765625 5.460938 0 10.476562-2.976563 13.097656-7.765625l2.75-5.03125c2.0625-3.769532 5.140625-6.851563 8.910156-8.910156l5.03125-2.753907c4.789063-2.617187 7.761719-7.632812 7.761719-13.09375 0-5.457031-2.972656-10.476562-7.761719-13.09375l-5.03125-2.75c-3.769531-2.0625-6.847656-5.144531-8.910156-8.910156l-2.753906-5.03125c-2.617188-4.789063-7.636719-7.765625-13.09375-7.765625s-10.472656 2.976562-13.09375 7.765625l-2.75 5.027344c-2.0625 3.769531-5.144531 6.851562-8.910156 8.914062l-5.035156 2.75c-4.785157 2.617188-7.761719 7.636719-7.761719 13.09375 0 5.460938 2.976562 10.476563 7.765625 13.09375zm29.789062-35.5625s4.597656 16.253907 22.46875 22.46875c0 0-15.480468 6.847657-22.472656 22.472657 0 0-6.988281-15.992188-22.46875-22.472657 0 0 17.320312-6.582031 22.472656-22.46875zm0 0"/><path d="m434.292969 151.542969-2.167969 3.964843c-1.476562 2.695313-3.683594 4.902344-6.378906 6.378907l-3.960938 2.164062c-4.28125 2.34375-6.941406 6.832031-6.941406 11.710938 0 4.878906 2.660156 9.363281 6.941406 11.707031l3.960938 2.164062c2.695312 1.476563 4.902344 3.683594 6.378906 6.382813l2.167969 3.960937c2.339843 4.28125 6.828125 6.9375 11.707031 6.9375s9.363281-2.65625 11.707031-6.9375l2.167969-3.960937c1.472656-2.699219 3.679688-4.90625 6.378906-6.382813l3.960938-2.164062c4.28125-2.34375 6.941406-6.828125 6.941406-11.707031 0-4.878907-2.660156-9.367188-6.941406-11.710938l-3.960938-2.164062c-2.699218-1.476563-4.90625-3.683594-6.378906-6.378907l-2.167969-3.964843c-2.339843-4.28125-6.828125-6.941407-11.707031-6.941407s-9.367188 2.660157-11.707031 6.941407zm11.707031 9.851562c1.957031 9.933594 14.363281 14.363281 14.363281 14.363281-9.230469 4.402344-14.363281 14.367188-14.363281 14.367188-3.148438-9.136719-14.367188-14.367188-14.367188-14.367188 10.390626-3.363281 14.367188-14.363281 14.367188-14.363281zm0 0"/></svg>