<?xml version="1.0" encoding="utf-8"?>
<!-- Generator: Adobe Illustrator 22.0.0, SVG Export Plug-In . SVG Version: 6.00 Build 0)  -->
<svg version="1.1" id="Layer_1" xmlns="http://www.w3.org/2000/svg" xmlns:xlink="http://www.w3.org/1999/xlink" x="0px" y="0px"
	 viewBox="0 0 362.6 53.4" style="enable-background:new 0 0 362.6 53.4;" xml:space="preserve">
<style type="text/css">
	.st0{fill:#F9D332;}
	.st1{fill:#818282;}
</style>
<g>
	<path class="st0" d="M19.8,12.6c3.7,0,6.5,0.9,8.5,2.7c2,1.8,3.3,4.3,4,7.4l-1.2-0.4l0.5-1.2c0.6-1.3,1.6-2.6,3-3.9
		c1.3-1.3,2.9-2.4,4.8-3.3c1.8-0.9,3.8-1.3,5.9-1.3c3.4,0,6.1,0.7,8,2.2c1.9,1.5,3.2,3.4,4,5.9c0.7,2.5,1.1,5.2,1.1,8.3v19.9
		c0,1.1-0.4,2-1,2.7c-0.7,0.7-1.6,1.1-2.7,1.1c-1,0-1.9-0.4-2.7-1.1c-0.7-0.7-1.1-1.6-1.1-2.7V29.1c0-1.7-0.2-3.3-0.7-4.8
		c-0.5-1.4-1.3-2.6-2.5-3.5c-1.2-0.9-2.8-1.3-4.8-1.3c-1.9,0-3.7,0.4-5.2,1.3c-1.5,0.9-2.7,2-3.6,3.5c-0.9,1.4-1.3,3-1.3,4.8v19.8
		c0,1.1-0.4,2-1,2.7c-0.7,0.7-1.6,1.1-2.7,1.1c-1.1,0-2-0.4-2.7-1.1c-0.7-0.7-1-1.6-1-2.7V29c0-1.7-0.2-3.3-0.7-4.8
		c-0.5-1.4-1.3-2.6-2.4-3.4c-1.1-0.8-2.7-1.3-4.8-1.3c-1.9,0-3.7,0.4-5.2,1.3c-1.5,0.9-2.7,2-3.5,3.4c-0.8,1.4-1.2,3-1.2,4.8v19.9
		c0,1.1-0.4,2-1.1,2.7c-0.7,0.7-1.6,1.1-2.7,1.1c-1.1,0-2-0.4-2.7-1.1c-0.7-0.7-1-1.6-1-2.7V17.1c0-1.1,0.3-2,1-2.7
		c0.7-0.7,1.6-1.1,2.7-1.1c1,0,1.9,0.4,2.7,1.1c0.7,0.7,1.1,1.6,1.1,2.7v4.4l-1.4,0.8C6.4,21.2,7,20.1,7.8,19c0.8-1.1,1.8-2.2,3-3.1
		c1.2-0.9,2.6-1.7,4.1-2.3S18,12.6,19.8,12.6z"/>
	<path class="st0" d="M72.1,8c-1.4,0-2.5-0.3-3.1-0.8c-0.6-0.5-1-1.4-1-2.7V3.4c0-1.2,0.3-2.1,1-2.6C69.7,0.3,70.8,0,72.2,0
		c1.5,0,2.6,0.3,3.2,0.8c0.6,0.5,1,1.4,1,2.6v1.2c0,1.3-0.3,2.2-1,2.7C74.7,7.8,73.6,8,72.1,8z M75.9,48.9c0,1.1-0.4,2-1,2.7
		c-0.7,0.7-1.6,1.1-2.7,1.1c-1,0-1.9-0.4-2.7-1.1c-0.7-0.7-1.1-1.6-1.1-2.7V16.8c0-1.1,0.4-2,1.1-2.7c0.7-0.7,1.6-1.1,2.7-1.1
		c1.1,0,2,0.4,2.7,1.1c0.7,0.7,1,1.6,1,2.7V48.9z"/>
	<path class="st1" d="M107.8,0.2c2.8,0,5.3,0.6,7.4,1.9c2.1,1.3,3.8,3,5.1,5.3c1.2,2.2,1.9,4.8,1.9,7.7c0,2.9-0.6,5.5-1.9,7.8
		c-1.2,2.3-2.9,4.2-5.1,5.5c-2.1,1.3-4.6,2-7.4,2H91.9l0.4-0.7v20.7c0,0.6-0.2,1.1-0.7,1.6c-0.4,0.5-1,0.7-1.6,0.7
		c-0.7,0-1.2-0.2-1.6-0.7c-0.4-0.4-0.6-1-0.6-1.6v-48c0-0.6,0.2-1.1,0.7-1.6c0.4-0.4,1-0.7,1.6-0.7H107.8z M107.8,26.1
		c1.9,0,3.6-0.5,5.1-1.5c1.4-1,2.6-2.3,3.4-4c0.8-1.7,1.2-3.5,1.2-5.6c0-2-0.4-3.9-1.2-5.4c-0.8-1.6-2-2.8-3.4-3.7
		c-1.4-0.9-3.1-1.3-5.1-1.3H91.9L92.3,4v22.6l-0.4-0.5H107.8z"/>
	<path class="st1" d="M133.6,52.7c-0.7,0-1.2-0.2-1.6-0.7c-0.4-0.4-0.6-1-0.6-1.6V16.9c0-0.6,0.2-1.1,0.6-1.6c0.4-0.4,1-0.7,1.6-0.7
		c0.6,0,1.2,0.2,1.6,0.7c0.4,0.5,0.6,1,0.6,1.6v11.2l-1.1,0.2c0.1-1.7,0.6-3.5,1.3-5.2c0.7-1.7,1.7-3.3,3-4.8
		c1.2-1.4,2.7-2.6,4.5-3.5c1.7-0.9,3.7-1.3,5.8-1.3c0.9,0,1.8,0.2,2.6,0.6c0.8,0.4,1.3,1,1.3,1.8c0,0.7-0.2,1.3-0.6,1.7
		c-0.4,0.4-0.9,0.6-1.4,0.6c-0.4,0-0.9-0.1-1.5-0.4c-0.5-0.2-1.2-0.4-2.1-0.4c-1.4,0-2.8,0.4-4.2,1.2c-1.4,0.8-2.7,1.9-3.8,3.3
		c-1.1,1.4-2.1,3-2.7,4.7s-1,3.5-1,5.2v18.5c0,0.6-0.2,1.1-0.7,1.6C134.7,52.4,134.2,52.7,133.6,52.7z"/>
	<path class="st1" d="M175.6,53.4c-3.8,0-7.2-0.8-10.2-2.5c-2.9-1.6-5.2-3.9-6.9-6.9s-2.5-6.4-2.5-10.3c0-4.2,0.8-7.9,2.5-10.9
		c1.7-3,3.8-5.3,6.5-6.9c2.7-1.6,5.5-2.4,8.5-2.4c2.2,0,4.3,0.4,6.4,1.2c2.1,0.8,3.9,1.9,5.5,3.4c1.6,1.5,2.9,3.4,3.9,5.6
		c1,2.2,1.5,4.7,1.6,7.6c0,0.6-0.2,1.1-0.7,1.5c-0.4,0.4-1,0.6-1.6,0.6h-30l-0.9-4h29.5l-1,0.9v-1.5c-0.3-2.3-1-4.3-2.3-6
		c-1.3-1.6-2.9-2.9-4.7-3.7c-1.8-0.8-3.7-1.3-5.7-1.3c-1.5,0-3,0.3-4.6,0.9c-1.6,0.6-3,1.5-4.3,2.8c-1.3,1.3-2.3,2.9-3.1,4.9
		c-0.8,2-1.2,4.3-1.2,7c0,2.9,0.6,5.6,1.8,8s2.9,4.3,5.2,5.7c2.2,1.4,5,2.1,8.2,2.1c1.7,0,3.2-0.3,4.6-0.8c1.4-0.5,2.6-1.2,3.7-2
		c1.1-0.8,2-1.7,2.7-2.6c0.5-0.4,1.1-0.7,1.6-0.7c0.5,0,1,0.2,1.4,0.6c0.4,0.4,0.6,0.9,0.6,1.3c0,0.6-0.3,1.1-0.7,1.6
		c-1.5,1.8-3.4,3.4-5.8,4.7C181,52.8,178.4,53.4,175.6,53.4z"/>
	<path class="st1" d="M198,46.6c-0.4-0.6-0.6-1.2-0.6-1.8c0-0.6,0.3-1,0.9-1.4c0.4-0.3,0.9-0.5,1.4-0.4c0.5,0,1,0.3,1.5,0.7
		c1.3,1.7,3,3.2,4.9,4.2c1.9,1.1,4.2,1.6,6.9,1.6c1.4,0,2.8-0.2,4.2-0.7c1.4-0.5,2.5-1.2,3.4-2.2c0.9-1,1.3-2.2,1.3-3.7
		c0-1.5-0.4-2.8-1.3-3.7c-0.9-0.9-2.1-1.7-3.5-2.2c-1.4-0.5-2.9-1-4.5-1.4c-1.7-0.5-3.3-1-4.9-1.5c-1.6-0.6-3-1.3-4.2-2.2
		c-1.2-0.9-2.2-1.9-3-3.2c-0.7-1.2-1.1-2.8-1.1-4.6c0-2.1,0.6-3.9,1.7-5.5c1.1-1.6,2.7-2.8,4.7-3.7c2-0.9,4.2-1.3,6.7-1.3
		c1.2,0,2.6,0.2,4,0.5c1.4,0.3,2.9,0.9,4.3,1.6c1.4,0.7,2.6,1.8,3.7,3.1c0.4,0.4,0.7,1,0.7,1.5s-0.3,1.1-0.7,1.5
		c-0.4,0.3-0.9,0.4-1.4,0.4s-1-0.2-1.3-0.6c-1.2-1.3-2.6-2.4-4.3-3.1s-3.4-1-5.3-1c-1.4,0-2.8,0.2-4.1,0.7c-1.3,0.5-2.3,1.2-3.2,2.1
		c-0.8,0.9-1.3,2.2-1.3,3.7c0.1,1.4,0.6,2.6,1.5,3.5c0.9,0.9,2.1,1.6,3.7,2.2c1.5,0.6,3.2,1.1,5.1,1.6c1.6,0.4,3.1,0.9,4.6,1.4
		c1.5,0.5,2.8,1.2,3.9,2.1c1.1,0.8,2,1.9,2.7,3.1c0.7,1.2,1,2.8,1,4.7c0,2.2-0.6,4.1-1.8,5.7c-1.2,1.6-2.9,2.8-4.9,3.7
		c-2,0.8-4.3,1.3-6.8,1.3c-2.7,0-5.3-0.5-7.8-1.6C202.2,50.8,200,49.1,198,46.6z"/>
	<path class="st1" d="M233.2,46.6c-0.4-0.6-0.6-1.2-0.6-1.8c0-0.6,0.3-1,0.9-1.4c0.4-0.3,0.9-0.5,1.4-0.4c0.5,0,1,0.3,1.5,0.7
		c1.3,1.7,3,3.2,4.9,4.2c1.9,1.1,4.2,1.6,6.9,1.6c1.4,0,2.8-0.2,4.2-0.7c1.4-0.5,2.5-1.2,3.4-2.2c0.9-1,1.3-2.2,1.3-3.7
		c0-1.5-0.4-2.8-1.3-3.7c-0.9-0.9-2.1-1.7-3.5-2.2c-1.4-0.5-2.9-1-4.5-1.4c-1.7-0.5-3.3-1-4.9-1.5c-1.6-0.6-3-1.3-4.2-2.2
		c-1.2-0.9-2.2-1.9-3-3.2c-0.7-1.2-1.1-2.8-1.1-4.6c0-2.1,0.6-3.9,1.7-5.5c1.1-1.6,2.7-2.8,4.7-3.7c2-0.9,4.2-1.3,6.7-1.3
		c1.2,0,2.6,0.2,4,0.5c1.4,0.3,2.9,0.9,4.3,1.6c1.4,0.7,2.6,1.8,3.7,3.1c0.4,0.4,0.7,1,0.7,1.5s-0.3,1.1-0.7,1.5
		c-0.4,0.3-0.9,0.4-1.4,0.4s-1-0.2-1.3-0.6c-1.2-1.3-2.6-2.4-4.3-3.1s-3.4-1-5.3-1c-1.4,0-2.8,0.2-4.1,0.7c-1.3,0.5-2.3,1.2-3.2,2.1
		c-0.8,0.9-1.3,2.2-1.3,3.7c0.1,1.4,0.6,2.6,1.5,3.5c0.9,0.9,2.1,1.6,3.7,2.2c1.5,0.6,3.2,1.1,5.1,1.6c1.6,0.4,3.1,0.9,4.6,1.4
		c1.5,0.5,2.8,1.2,3.9,2.1c1.1,0.8,2,1.9,2.7,3.1c0.7,1.2,1,2.8,1,4.7c0,2.2-0.6,4.1-1.8,5.7c-1.2,1.6-2.9,2.8-4.9,3.7
		c-2,0.8-4.3,1.3-6.8,1.3c-2.7,0-5.3-0.5-7.8-1.6C237.4,50.8,235.1,49.1,233.2,46.6z"/>
	<path class="st1" d="M272.6,8.7c-1,0-1.8-0.2-2.4-0.7c-0.5-0.5-0.8-1.2-0.8-2.1V5.2c0-0.9,0.3-1.6,0.9-2.1c0.6-0.5,1.4-0.7,2.4-0.7
		c0.9,0,1.7,0.2,2.2,0.7s0.8,1.2,0.8,2.1v0.8c0,0.9-0.3,1.6-0.8,2.1S273.6,8.7,272.6,8.7z M274.8,50.4c0,0.6-0.2,1.1-0.7,1.6
		c-0.4,0.5-1,0.7-1.6,0.7c-0.6,0-1.2-0.2-1.6-0.7c-0.4-0.4-0.6-1-0.6-1.6V16c0-0.6,0.2-1.1,0.6-1.6c0.4-0.5,1-0.7,1.6-0.7
		c0.6,0,1.2,0.2,1.6,0.7c0.4,0.4,0.6,1,0.6,1.6V50.4z"/>
	<path class="st1" d="M321.9,33.5c0,3.8-0.8,7.2-2.5,10.2c-1.7,3-3.9,5.4-6.8,7.1c-2.8,1.7-6.1,2.6-9.7,2.6c-3.5,0-6.8-0.9-9.6-2.6
		c-2.9-1.7-5.1-4.1-6.8-7.1c-1.7-3-2.5-6.4-2.5-10.2c0-3.8,0.8-7.3,2.5-10.3c1.7-3,3.9-5.4,6.8-7.1c2.9-1.7,6.1-2.6,9.6-2.6
		c3.6,0,6.8,0.9,9.7,2.6c2.8,1.7,5.1,4.1,6.8,7.1C321,26.2,321.9,29.6,321.9,33.5z M317.4,33.5c0-3-0.6-5.8-1.9-8.1
		c-1.2-2.4-3-4.2-5.1-5.6c-2.2-1.4-4.7-2.1-7.5-2.1c-2.7,0-5.2,0.7-7.4,2.1c-2.2,1.4-3.9,3.2-5.2,5.6c-1.3,2.4-1.9,5.1-1.9,8.1
		c0,3,0.6,5.7,1.9,8.1c1.3,2.3,3,4.2,5.2,5.6c2.2,1.4,4.6,2.1,7.4,2.1c2.8,0,5.3-0.7,7.5-2.1c2.2-1.4,3.9-3.2,5.1-5.6
		C316.8,39.2,317.4,36.5,317.4,33.5z"/>
	<path class="st1" d="M349.2,13.5c3.3,0,5.9,0.7,7.9,2c2,1.3,3.4,3.1,4.3,5.4c0.9,2.3,1.3,4.8,1.3,7.5v22c0,0.6-0.2,1.1-0.7,1.6
		c-0.4,0.5-1,0.7-1.6,0.7c-0.7,0-1.2-0.2-1.6-0.7c-0.4-0.4-0.6-1-0.6-1.6V28.6c0-2-0.3-3.8-1-5.5c-0.6-1.6-1.7-3-3.2-4
		c-1.5-1-3.4-1.5-5.8-1.5c-2.1,0-4.2,0.5-6.1,1.5c-1.9,1-3.5,2.3-4.7,4s-1.8,3.5-1.8,5.5v21.8c0,0.6-0.2,1.1-0.7,1.6
		c-0.4,0.5-1,0.7-1.6,0.7c-0.7,0-1.2-0.2-1.6-0.7c-0.4-0.4-0.6-1-0.6-1.6V16.9c0-0.6,0.2-1.1,0.6-1.6c0.4-0.4,1-0.7,1.6-0.7
		c0.6,0,1.2,0.2,1.6,0.7c0.4,0.5,0.6,1,0.6,1.6v6.3l-1.7,2.7c0.1-1.6,0.6-3.1,1.5-4.6c0.9-1.5,2.1-2.8,3.6-4
		c1.4-1.2,3.1-2.1,4.8-2.8C345.6,13.8,347.4,13.5,349.2,13.5z"/>
</g>
</svg>
