<?xml version="1.0" encoding="utf-8"?>
<!-- Generator: Adobe Illustrator 22.0.0, SVG Export Plug-In . SVG Version: 6.00 Build 0)  -->
<svg version="1.1" xmlns="http://www.w3.org/2000/svg" xmlns:xlink="http://www.w3.org/1999/xlink" x="0px" y="0px"
	 viewBox="0 0 86.5 159.2" style="enable-background:new 0 0 86.5 159.2;" xml:space="preserve">
<style type="text/css">
	.st0{fill:#FCEA4F;}
</style>
<g id="Layer_1">
	<path d="M84.8,10.4C71.7,3.5,57.7,0,43.4,0C29.9,0,19.1,3.4,11.6,10.2C3.9,17,0,26.6,0,38.8c0,5.2,0.7,9.9,2.1,13.9
		c1.4,4,3.5,7.8,6.2,11.3c2.7,3.5,8.3,9,17.1,16.7c6.7,5.7,11.2,10.5,13.3,14.1c2,3.6,3.1,8.5,3.1,14.6v5.4H59v-7.5
		c0-8.3-1.3-15.2-3.9-20.6c-2.6-5.4-7.4-11.1-14.3-17C31.8,62,26,56.1,23.7,52.4c-2.2-3.6-3.3-8.1-3.3-13.3c0-6.4,2-11.2,6-14.6
		c4.1-3.5,10.2-5.2,18.1-5.2c5.2,0,10.4,0.6,15.3,1.8c5,1.2,10.8,3.5,17.2,6.8l1.9,1l7.6-17.5L84.8,10.4z"/>
	<g>
		<path class="st0" d="M49.7,157.2c-3.9,0-7-1.2-9.1-3.6c-2.2-2.4-3.3-5.9-3.3-10.2c0-4.5,1.1-8,3.2-10.4c2.1-2.4,5.2-3.6,9.2-3.6
			c8.3,0,12.3,4.6,12.3,14c0,4.9-1.2,8.5-3.5,10.6C56.2,156.1,53.3,157.2,49.7,157.2z"/>
		<path d="M49.7,131.4c7.1,0,10.3,3.7,10.3,12c0,4.3-1,7.4-2.8,9.2c-2,1.8-4.4,2.7-7.5,2.7c-3.3,0-5.8-1-7.6-3c-1.8-2-2.8-5-2.8-8.9
			c0-4,0.9-7,2.7-9C43.8,132.3,46.3,131.4,49.7,131.4 M49.7,127.4c-4.5,0-8.1,1.4-10.7,4.3c-2.5,2.8-3.7,6.7-3.7,11.7
			c0,4.9,1.3,8.8,3.8,11.6c2.6,2.9,6.2,4.3,10.6,4.3c4.1,0,7.5-1.3,10.2-3.8c2.7-2.5,4.1-6.6,4.1-12.1
			C64,130.1,56.3,127.4,49.7,127.4L49.7,127.4z"/>
	</g>
</g>
<g id="Layer_2">
</g>
</svg>
