<svg xmlns="http://www.w3.org/2000/svg" viewBox="0 0 557.97 557.97">
  <defs>
    <style>
      .bc324637-14cc-46c0-8e4c-bd2e6021bee7 {
        fill: #f2d245;
      }

      .\32 bf98156-fff1-4e5c-85b1-7768e0fc9881, .a0c1cd8d-090c-4279-8174-5bb00809ca3a, .bc5d3eb8-599b-4efc-9643-693380f71f78 {
        fill: #828282;
      }

      .\38 5032b83-baac-4a50-b6d1-b2c1b3344750, .a0c1cd8d-090c-4279-8174-5bb00809ca3a, .aa7f801b-028d-4a44-95dd-4b53e31359b6, .bc5d3eb8-599b-4efc-9643-693380f71f78, .d78fef58-f038-43d1-8b61-19b9214f762c {
        stroke: #1d1d1b;
        stroke-miterlimit: 10;
      }

      .a0c1cd8d-090c-4279-8174-5bb00809ca3a {
        stroke-width: 1.7px;
      }

      .\38 5032b83-baac-4a50-b6d1-b2c1b3344750, .bc5d3eb8-599b-4efc-9643-693380f71f78 {
        stroke-width: 5.11px;
      }

      .a52ca162-6f9e-442e-a2a3-2fd180363271, .aa8079f9-10c8-49f9-8622-ed4375d69b9f, .fc8fa162-c02b-441c-9962-aed7a1db8e70 {
        fill: #fff;
      }

      .\33 207c2d5-fcab-4e35-8d7b-79c1b9ae1608, .fc8fa162-c02b-441c-9962-aed7a1db8e70 {
        opacity: 0.65;
      }

      .\38 5032b83-baac-4a50-b6d1-b2c1b3344750 {
        fill: none;
      }

      .\38 2879a69-f490-4288-87a8-832fe8db7c57, .aa7f801b-028d-4a44-95dd-4b53e31359b6, .d78fef58-f038-43d1-8b61-19b9214f762c {
        fill: #1d1d1b;
      }

      .\35 43c2ae6-92ad-4d29-8b02-5e96e40fbf44 {
        fill: #f7eb98;
      }

      .aa8079f9-10c8-49f9-8622-ed4375d69b9f {
        opacity: 0.38;
      }

      .aa7f801b-028d-4a44-95dd-4b53e31359b6 {
        stroke-width: 1.33px;
      }

      .d78fef58-f038-43d1-8b61-19b9214f762c {
        stroke-width: 0.4px;
      }
    </style>
  </defs>
  <title>stages-scheme2</title>
  <g id="e046d7ba-d5da-443f-b511-54c982ccb369" data-name="Слой 1">
    <circle class="bc324637-14cc-46c0-8e4c-bd2e6021bee7" cx="278.99" cy="278.99" r="278.99"/>
  </g>
  <g id="1d9f2f41-6134-435e-b9d3-af6b19bc75db" data-name="Слой 4">
    <path class="2bf98156-fff1-4e5c-85b1-7768e0fc9881" d="M256.61,296.93a10.89,10.89,0,0,1-.21,2.15L212.93,459.3c-1.4,4.22-6.34,7.24-10.07,7.24-3.88,0-4.58-3-6-7.25,0,0-47.33-159.4-47.37-159.57a10.16,10.16,0,0,1-.38-2.79,10.56,10.56,0,0,1,10.46-10.68h86.55A10.58,10.58,0,0,1,256.61,296.93Z"/>
    <rect class="a0c1cd8d-090c-4279-8174-5bb00809ca3a" x="162.76" y="102.07" width="85.92" height="18.99" rx="4.73" ry="4.73"/>
    <rect class="bc5d3eb8-599b-4efc-9643-693380f71f78" x="144.38" y="88.68" width="118.85" height="14.27" rx="5.01" ry="5.01"/>
    <path class="fc8fa162-c02b-441c-9962-aed7a1db8e70" d="M256.29,141.55V297.84c0,.17,0,.34,0,.51,0,0,0,0,0,.06l-1.06,3.86-25.63,92.29-17.08,61.5v0l-.33,1.2a9.79,9.79,0,0,1-9.29,6.66c-3.24,0-6.68-3.45-6.2-7.47a6.67,6.67,0,0,0,3.12,3c3.08,1.14,6.17-1.5,7.42-5.18l.32-1.14v0l16.21-58.38s25.17-95.56,25.35-96.78V154.58c-.41-12.62.51-16.94-8.32-17.18l-83.64.72c-4.56.24-4.06,3.57-5.64,7.8l-2-4.37A9.56,9.56,0,0,1,159,132h87.72A9.57,9.57,0,0,1,256.29,141.55Z"/>
    <g class="3207c2d5-fcab-4e35-8d7b-79c1b9ae1608">
      <path class="a52ca162-6f9e-442e-a2a3-2fd180363271" d="M256.73,115.51v6.89c0,3.67-4.53,8.44-13,5.9,4-.29,8.37-1.41,8.76-6.12l.09-3.43c.21-6.4-4.31-8.31-9.19-8.31H156.42a9,9,0,0,0-2.77.42A9,9,0,0,1,161,107.2H247.9A8.58,8.58,0,0,1,256.73,115.51Z"/>
    </g>
    <path class="85032b83-baac-4a50-b6d1-b2c1b3344750" d="M249.08,130.86h-.55a9.66,9.66,0,0,1,9.65,9.65V298.27a4.35,4.35,0,0,1,0,.51v.05l-26.94,97.05-17.58,63.33a9.9,9.9,0,0,1-18.75,0l-17.58-63.33-26.94-97.05v-.05c0-.17,0-.34,0-.51V140.51a9.65,9.65,0,0,1,9.64-9.65h-.54a9.08,9.08,0,0,1-9.1-9.08v-7.54a9.22,9.22,0,0,1,.23-2.06,9.08,9.08,0,0,1,8.85-7.05h89.64a9.1,9.1,0,0,1,8.86,7.05,8.67,8.67,0,0,1,.24,2.06v7.54a9.06,9.06,0,0,1-.71,3.54,9.35,9.35,0,0,1-1.37,2.24c-.18.22-.39.44-.59.65A9,9,0,0,1,249.08,130.86Z"/>
    <rect class="82879a69-f490-4288-87a8-832fe8db7c57" x="159.03" y="128.3" width="90.57" height="5.09"/>
    <path class="543c2ae6-92ad-4d29-8b02-5e96e40fbf44" d="M446.94,328.93l1.08,3.89A9.53,9.53,0,0,1,446.94,328.93Z"/>
    <path class="543c2ae6-92ad-4d29-8b02-5e96e40fbf44" d="M446.93,328.87s0,0,0,.06l0-.06Z"/>
    <path class="a52ca162-6f9e-442e-a2a3-2fd180363271" d="M272.83,316.3l0,.06s0,0,0-.06Z"/>
    <path class="543c2ae6-92ad-4d29-8b02-5e96e40fbf44" d="M448,330.72l1.15,4.14A10.23,10.23,0,0,1,448,330.72Z"/>
    <path class="543c2ae6-92ad-4d29-8b02-5e96e40fbf44" d="M448,330.66s0,0,0,.06l0-.06Z"/>
    <path class="a52ca162-6f9e-442e-a2a3-2fd180363271" d="M279.7,317.89l0,.05s0,0,0-.05Z"/>
    <circle class="aa8079f9-10c8-49f9-8622-ed4375d69b9f" cx="342.83" cy="350.27" r="120.16"/>
    <path class="82879a69-f490-4288-87a8-832fe8db7c57" d="M222.67,349.07a120.07,120.07,0,0,1,35-85.12,120.68,120.68,0,1,1-26,131.15A120.37,120.37,0,0,1,222.67,349.07Zm0,0a119.38,119.38,0,0,0,204.21,84.06A119.41,119.41,0,0,0,258,264.26a119.85,119.85,0,0,0-35.35,84.81Z"/>
    <path class="aa7f801b-028d-4a44-95dd-4b53e31359b6" d="M426,366.15H267.26a3.1,3.1,0,0,1-3.1-3.1h0a3.1,3.1,0,0,1,3.1-3.1H426a3.1,3.1,0,0,1,3.1,3.1h0A3.1,3.1,0,0,1,426,366.15Z"/>
    <rect class="d78fef58-f038-43d1-8b61-19b9214f762c" x="258.85" y="345.53" width="29.49" height="3.19" rx="0.68" ry="0.68" transform="translate(620.72 73.54) rotate(90)"/>
    <rect class="d78fef58-f038-43d1-8b61-19b9214f762c" x="271.22" y="345.53" width="29.49" height="3.19" rx="0.68" ry="0.68" transform="translate(633.09 61.16) rotate(90)"/>
    <rect class="d78fef58-f038-43d1-8b61-19b9214f762c" x="283.6" y="345.53" width="29.49" height="3.19" rx="0.68" ry="0.68" transform="translate(645.46 48.79) rotate(90)"/>
    <rect class="d78fef58-f038-43d1-8b61-19b9214f762c" x="295.34" y="345.53" width="29.49" height="3.19" rx="0.68" ry="0.68" transform="translate(657.21 37.05) rotate(90)"/>
    <rect class="d78fef58-f038-43d1-8b61-19b9214f762c" x="307.4" y="345.53" width="29.49" height="3.19" rx="0.68" ry="0.68" transform="translate(669.26 24.99) rotate(90)"/>
    <rect class="d78fef58-f038-43d1-8b61-19b9214f762c" x="319.77" y="345.53" width="29.49" height="3.19" rx="0.68" ry="0.68" transform="translate(681.64 12.61) rotate(90)"/>
    <rect class="d78fef58-f038-43d1-8b61-19b9214f762c" x="344.61" y="345.53" width="29.49" height="3.19" rx="0.68" ry="0.68" transform="translate(706.48 -12.22) rotate(90)"/>
    <rect class="d78fef58-f038-43d1-8b61-19b9214f762c" x="356.98" y="345.53" width="29.49" height="3.19" rx="0.68" ry="0.68" transform="translate(718.85 -24.6) rotate(90)"/>
    <rect class="d78fef58-f038-43d1-8b61-19b9214f762c" x="369.36" y="345.53" width="29.49" height="3.19" rx="0.68" ry="0.68" transform="translate(731.23 -36.97) rotate(90)"/>
    <rect class="d78fef58-f038-43d1-8b61-19b9214f762c" x="381.1" y="345.53" width="29.49" height="3.19" rx="0.68" ry="0.68" transform="translate(742.97 -48.71) rotate(90)"/>
    <rect class="d78fef58-f038-43d1-8b61-19b9214f762c" x="393.16" y="345.53" width="29.49" height="3.19" rx="0.68" ry="0.68" transform="translate(755.03 -60.77) rotate(90)"/>
    <rect class="d78fef58-f038-43d1-8b61-19b9214f762c" x="405.53" y="345.53" width="29.49" height="3.19" rx="0.68" ry="0.68" transform="translate(767.4 -73.15) rotate(90)"/>
    <rect class="d78fef58-f038-43d1-8b61-19b9214f762c" x="331.83" y="345.53" width="29.49" height="3.19" rx="0.68" ry="0.68" transform="translate(693.7 0.56) rotate(90)"/>
  </g>
</svg>
