<?xml version="1.0" encoding="utf-8"?>
<!-- Generator: Adobe Illustrator 22.0.0, SVG Export Plug-In . SVG Version: 6.00 Build 0)  -->
<svg version="1.1" xmlns="http://www.w3.org/2000/svg" xmlns:xlink="http://www.w3.org/1999/xlink" x="0px" y="0px"
	 viewBox="0 0 619.2 558" style="enable-background:new 0 0 619.2 558;" xml:space="preserve">
<style type="text/css">
	.st0{display:none;}
	.st1{display:inline;fill:#F2D245;}
	.st2{fill:#FFFFFF;}
	.st3{fill:url(#SVGID_1_);}
	.st4{fill:#818182;}
	.st5{opacity:0.36;}
	.st6{opacity:7.000000e-02;fill:#FFFFFF;}
	.st7{fill:none;stroke:#000000;stroke-width:12;stroke-miterlimit:10;}
	.st8{display:none;opacity:0.12;}
	.st9{fill:url(#SVGID_2_);}
	.st10{fill:url(#SVGID_3_);}
	.st11{fill:url(#SVGID_4_);}
	.st12{fill:url(#SVGID_5_);}
	.st13{fill:url(#SVGID_6_);}
	.st14{fill:url(#SVGID_7_);}
	.st15{fill:url(#SVGID_8_);}
	.st16{fill:url(#SVGID_9_);}
	.st17{fill:url(#SVGID_10_);}
	.st18{fill:url(#SVGID_11_);}
	.st19{fill:url(#SVGID_12_);}
	.st20{fill:url(#SVGID_13_);}
	.st21{fill:url(#SVGID_14_);}
	.st22{fill:url(#SVGID_15_);}
	.st23{fill:url(#SVGID_16_);}
	.st24{fill:url(#SVGID_17_);}
	.st25{fill:url(#SVGID_18_);}
	.st26{fill:url(#SVGID_19_);}
	.st27{fill:url(#SVGID_20_);}
	.st28{display:inline;fill:#828282;}
	.st29{display:inline;fill:#828282;stroke:#000000;stroke-width:1.7018;stroke-miterlimit:10;}
	.st30{display:inline;fill:#828282;stroke:#000000;stroke-width:5.1054;stroke-miterlimit:10;}
	.st31{display:inline;opacity:0.65;fill:#FFFFFF;}
	.st32{display:inline;opacity:0.65;}
	.st33{display:inline;fill:none;stroke:#000000;stroke-width:5.1054;stroke-miterlimit:10;}
	.st34{display:inline;}
	.st35{fill:#F7EB98;}
	.st36{display:inline;opacity:0.38;fill:#FFFFFF;}
	.st37{display:inline;stroke:#000000;stroke-width:1.3292;stroke-miterlimit:10;}
	.st38{display:inline;stroke:#000000;stroke-width:0.4034;stroke-miterlimit:10;}
	.st39{display:inline;opacity:0.43;fill:#FEEEAC;}
	.st40{display:inline;fill:none;stroke:#000000;stroke-width:6.2826;stroke-miterlimit:10;}
	.st41{fill:#F2D245;}
	.st42{display:inline;fill:#DDC351;}
	.st43{display:inline;fill:#701325;stroke:#000000;stroke-miterlimit:10;}
	.st44{display:inline;fill:#AD1830;}
	.st45{display:inline;fill:#5C5C5C;}
	.st46{display:inline;fill:#010202;}
	.st47{display:inline;fill:#838484;stroke:#000000;stroke-miterlimit:10;}
	.st48{display:inline;opacity:0.28;fill:#FFFFFF;}
	.st49{display:inline;fill:none;stroke:#000000;stroke-width:3;stroke-miterlimit:10;}
</style>
<g id="Слой_2">
</g>
<g id="Слой_1" class="st0">
	<circle class="st1" cx="322.6" cy="279" r="279"/>
</g>
<g id="Слой_6">
	<rect x="279" y="0" class="st2" width="61.2" height="557.9"/>
	<linearGradient id="SVGID_1_" gradientUnits="userSpaceOnUse" x1="0" y1="278.9855" x2="278.99" y2="278.9855">
		<stop  offset="0" style="stop-color:#F5CF48"/>
		<stop  offset="1" style="stop-color:#F6D145"/>
	</linearGradient>
	<path class="st3" d="M279,0v558C124.9,558,0,433.1,0,279C0,124.9,124.9,0,279,0z"/>
	<path class="st4" d="M340.2,0v558c154.1,0,279-124.9,279-279C619.2,124.9,494.3,0,340.2,0z"/>
	<path class="st5" d="M619.2,279c0,149.9-118.2,272.1-266.4,278.7C495,526,600.3,413.2,600.3,279C600.3,144.8,495,32,352.7,0.3
		C500.9,6.8,619.2,129.1,619.2,279z"/>
	<path class="st6" d="M0,279c0,149.9,118.2,272.2,266.4,278.7C124.1,526,18.9,413.2,18.9,279c0-134.2,105.3-247,247.6-278.7
		C118.2,6.8,0,129.1,0,279z"/>
	<circle cx="202.6" cy="209.1" r="18.9"/>
	<circle cx="422.9" cy="206.6" r="21.4"/>
	<path d="M165.4,200.3"/>
	<rect x="166.4" y="164.7" width="72.5" height="11.9"/>
	<rect x="392.8" y="185.2" transform="matrix(0.9614 0.2752 -0.2752 0.9614 69.1564 -110.7011)" width="72.5" height="11.9"/>
	<rect x="338.4" y="408" width="118.8" height="11.9"/>
	<path class="st7" d="M279,414.1c0,0-111.4,1.5-139.5-63.7"/>
	<g class="st8">
		
			<image style="display:inline;overflow:visible;" width="878" height="2615" xlink:href="131C642.png"  transform="matrix(0.24 0 0 0.24 100.59 -34.1995)">
		</image>
	</g>
	<g>
		<linearGradient id="SVGID_2_" gradientUnits="userSpaceOnUse" x1="270.11" y1="7.6205" x2="306.51" y2="7.6205">
			<stop  offset="0" style="stop-color:#F5CF48"/>
			<stop  offset="1" style="stop-color:#F6D145"/>
		</linearGradient>
		<path class="st9" d="M300.1,15.2h-23.5c-3.6,0-6.5-2.9-6.5-6.5V6.5c0-3.6,2.9-6.5,6.5-6.5h23.5c3.6,0,6.5,2.9,6.5,6.5v2.3
			C306.5,12.4,303.6,15.2,300.1,15.2z"/>
		<linearGradient id="SVGID_3_" gradientUnits="userSpaceOnUse" x1="269.03" y1="38.1005" x2="305.43" y2="38.1005">
			<stop  offset="0" style="stop-color:#F5CF48"/>
			<stop  offset="1" style="stop-color:#F6D145"/>
		</linearGradient>
		<path class="st10" d="M299,45.7h-23.5c-3.6,0-6.5-2.9-6.5-6.5v-2.3c0-3.6,2.9-6.5,6.5-6.5H299c3.6,0,6.5,2.9,6.5,6.5v2.3
			C305.4,42.8,302.5,45.7,299,45.7z"/>
		<linearGradient id="SVGID_4_" gradientUnits="userSpaceOnUse" x1="269.03" y1="68.5805" x2="305.43" y2="68.5805">
			<stop  offset="0" style="stop-color:#F5CF48"/>
			<stop  offset="1" style="stop-color:#F6D145"/>
		</linearGradient>
		<path class="st11" d="M299,76.2h-23.5c-3.6,0-6.5-2.9-6.5-6.5v-2.3c0-3.6,2.9-6.5,6.5-6.5H299c3.6,0,6.5,2.9,6.5,6.5v2.3
			C305.4,73.3,302.5,76.2,299,76.2z"/>
		<linearGradient id="SVGID_5_" gradientUnits="userSpaceOnUse" x1="269.03" y1="99.0605" x2="305.43" y2="99.0605">
			<stop  offset="0" style="stop-color:#F5CF48"/>
			<stop  offset="1" style="stop-color:#F6D145"/>
		</linearGradient>
		<path class="st12" d="M299,106.7h-23.5c-3.6,0-6.5-2.9-6.5-6.5v-2.3c0-3.6,2.9-6.5,6.5-6.5H299c3.6,0,6.5,2.9,6.5,6.5v2.3
			C305.4,103.8,302.5,106.7,299,106.7z"/>
		<linearGradient id="SVGID_6_" gradientUnits="userSpaceOnUse" x1="269.03" y1="129.5406" x2="305.43" y2="129.5406">
			<stop  offset="0" style="stop-color:#F5CF48"/>
			<stop  offset="1" style="stop-color:#F6D145"/>
		</linearGradient>
		<path class="st13" d="M299,137.2h-23.5c-3.6,0-6.5-2.9-6.5-6.5v-2.3c0-3.6,2.9-6.5,6.5-6.5H299c3.6,0,6.5,2.9,6.5,6.5v2.3
			C305.4,134.3,302.5,137.2,299,137.2z"/>
		<linearGradient id="SVGID_7_" gradientUnits="userSpaceOnUse" x1="269.03" y1="160.0206" x2="305.43" y2="160.0206">
			<stop  offset="0" style="stop-color:#F5CF48"/>
			<stop  offset="1" style="stop-color:#F6D145"/>
		</linearGradient>
		<path class="st14" d="M299,167.6h-23.5c-3.6,0-6.5-2.9-6.5-6.5v-2.3c0-3.6,2.9-6.5,6.5-6.5H299c3.6,0,6.5,2.9,6.5,6.5v2.3
			C305.4,164.8,302.5,167.6,299,167.6z"/>
		<linearGradient id="SVGID_8_" gradientUnits="userSpaceOnUse" x1="269.03" y1="190.5006" x2="305.43" y2="190.5006">
			<stop  offset="0" style="stop-color:#F5CF48"/>
			<stop  offset="1" style="stop-color:#F6D145"/>
		</linearGradient>
		<path class="st15" d="M299,198.1h-23.5c-3.6,0-6.5-2.9-6.5-6.5v-2.3c0-3.6,2.9-6.5,6.5-6.5H299c3.6,0,6.5,2.9,6.5,6.5v2.3
			C305.4,195.2,302.5,198.1,299,198.1z"/>
		<linearGradient id="SVGID_9_" gradientUnits="userSpaceOnUse" x1="269.03" y1="220.9806" x2="305.43" y2="220.9806">
			<stop  offset="0" style="stop-color:#F5CF48"/>
			<stop  offset="1" style="stop-color:#F6D145"/>
		</linearGradient>
		<path class="st16" d="M299,228.6h-23.5c-3.6,0-6.5-2.9-6.5-6.5v-2.3c0-3.6,2.9-6.5,6.5-6.5H299c3.6,0,6.5,2.9,6.5,6.5v2.3
			C305.4,225.7,302.5,228.6,299,228.6z"/>
		<linearGradient id="SVGID_10_" gradientUnits="userSpaceOnUse" x1="269.03" y1="251.4606" x2="305.43" y2="251.4606">
			<stop  offset="0" style="stop-color:#F5CF48"/>
			<stop  offset="1" style="stop-color:#F6D145"/>
		</linearGradient>
		<path class="st17" d="M299,259.1h-23.5c-3.6,0-6.5-2.9-6.5-6.5v-2.3c0-3.6,2.9-6.5,6.5-6.5H299c3.6,0,6.5,2.9,6.5,6.5v2.3
			C305.4,256.2,302.5,259.1,299,259.1z"/>
		<linearGradient id="SVGID_11_" gradientUnits="userSpaceOnUse" x1="269.57" y1="281.9406" x2="305.97" y2="281.9406">
			<stop  offset="0" style="stop-color:#F5CF48"/>
			<stop  offset="1" style="stop-color:#F6D145"/>
		</linearGradient>
		<path class="st18" d="M299.5,289.6H276c-3.6,0-6.5-2.9-6.5-6.5v-2.3c0-3.6,2.9-6.5,6.5-6.5h23.5c3.6,0,6.5,2.9,6.5,6.5v2.3
			C306,286.7,303.1,289.6,299.5,289.6z"/>
		<linearGradient id="SVGID_12_" gradientUnits="userSpaceOnUse" x1="269.57" y1="310.4206" x2="305.97" y2="310.4206">
			<stop  offset="0" style="stop-color:#F5CF48"/>
			<stop  offset="1" style="stop-color:#F6D145"/>
		</linearGradient>
		<path class="st19" d="M299.5,318H276c-3.6,0-6.5-2.9-6.5-6.5v-2.3c0-3.6,2.9-6.5,6.5-6.5h23.5c3.6,0,6.5,2.9,6.5,6.5v2.3
			C306,315.2,303.1,318,299.5,318z"/>
		<linearGradient id="SVGID_13_" gradientUnits="userSpaceOnUse" x1="269.57" y1="340.9007" x2="305.97" y2="340.9007">
			<stop  offset="0" style="stop-color:#F5CF48"/>
			<stop  offset="1" style="stop-color:#F6D145"/>
		</linearGradient>
		<path class="st20" d="M299.5,348.5H276c-3.6,0-6.5-2.9-6.5-6.5v-2.3c0-3.6,2.9-6.5,6.5-6.5h23.5c3.6,0,6.5,2.9,6.5,6.5v2.3
			C306,345.6,303.1,348.5,299.5,348.5z"/>
		<linearGradient id="SVGID_14_" gradientUnits="userSpaceOnUse" x1="269.57" y1="371.3807" x2="305.97" y2="371.3807">
			<stop  offset="0" style="stop-color:#F5CF48"/>
			<stop  offset="1" style="stop-color:#F6D145"/>
		</linearGradient>
		<path class="st21" d="M299.5,379H276c-3.6,0-6.5-2.9-6.5-6.5v-2.3c0-3.6,2.9-6.5,6.5-6.5h23.5c3.6,0,6.5,2.9,6.5,6.5v2.3
			C306,376.1,303.1,379,299.5,379z"/>
		<linearGradient id="SVGID_15_" gradientUnits="userSpaceOnUse" x1="269.57" y1="400.8607" x2="305.97" y2="400.8607">
			<stop  offset="0" style="stop-color:#F5CF48"/>
			<stop  offset="1" style="stop-color:#F6D145"/>
		</linearGradient>
		<path class="st22" d="M299.5,408.5H276c-3.6,0-6.5-2.9-6.5-6.5v-2.3c0-3.6,2.9-6.5,6.5-6.5h23.5c3.6,0,6.5,2.9,6.5,6.5v2.3
			C306,405.6,303.1,408.5,299.5,408.5z"/>
		<linearGradient id="SVGID_16_" gradientUnits="userSpaceOnUse" x1="269.57" y1="431.3407" x2="305.97" y2="431.3407">
			<stop  offset="0" style="stop-color:#F5CF48"/>
			<stop  offset="1" style="stop-color:#F6D145"/>
		</linearGradient>
		<path class="st23" d="M299.5,439H276c-3.6,0-6.5-2.9-6.5-6.5v-2.3c0-3.6,2.9-6.5,6.5-6.5h23.5c3.6,0,6.5,2.9,6.5,6.5v2.3
			C306,436.1,303.1,439,299.5,439z"/>
		<linearGradient id="SVGID_17_" gradientUnits="userSpaceOnUse" x1="269.57" y1="461.8207" x2="305.97" y2="461.8207">
			<stop  offset="0" style="stop-color:#F5CF48"/>
			<stop  offset="1" style="stop-color:#F6D145"/>
		</linearGradient>
		<path class="st24" d="M299.5,469.4H276c-3.6,0-6.5-2.9-6.5-6.5v-2.3c0-3.6,2.9-6.5,6.5-6.5h23.5c3.6,0,6.5,2.9,6.5,6.5v2.3
			C306,466.6,303.1,469.4,299.5,469.4z"/>
		<linearGradient id="SVGID_18_" gradientUnits="userSpaceOnUse" x1="269.57" y1="491.3007" x2="305.97" y2="491.3007">
			<stop  offset="0" style="stop-color:#F5CF48"/>
			<stop  offset="1" style="stop-color:#F6D145"/>
		</linearGradient>
		<path class="st25" d="M299.5,498.9H276c-3.6,0-6.5-2.9-6.5-6.5v-2.3c0-3.6,2.9-6.5,6.5-6.5h23.5c3.6,0,6.5,2.9,6.5,6.5v2.3
			C306,496,303.1,498.9,299.5,498.9z"/>
		<linearGradient id="SVGID_19_" gradientUnits="userSpaceOnUse" x1="269.57" y1="521.7807" x2="305.97" y2="521.7807">
			<stop  offset="0" style="stop-color:#F5CF48"/>
			<stop  offset="1" style="stop-color:#F6D145"/>
		</linearGradient>
		<path class="st26" d="M299.5,529.4H276c-3.6,0-6.5-2.9-6.5-6.5v-2.3c0-3.6,2.9-6.5,6.5-6.5h23.5c3.6,0,6.5,2.9,6.5,6.5v2.3
			C306,526.5,303.1,529.4,299.5,529.4z"/>
		<linearGradient id="SVGID_20_" gradientUnits="userSpaceOnUse" x1="269.57" y1="550.2608" x2="305.97" y2="550.2608">
			<stop  offset="0" style="stop-color:#F5CF48"/>
			<stop  offset="1" style="stop-color:#F6D145"/>
		</linearGradient>
		<path class="st27" d="M299.5,557.9H276c-3.6,0-6.5-2.9-6.5-6.5v-2.3c0-3.6,2.9-6.5,6.5-6.5h23.5c3.6,0,6.5,2.9,6.5,6.5v2.3
			C306,555,303.1,557.9,299.5,557.9z"/>
	</g>
	<path class="st4" d="M347.5,29.2H324c-3.6,0-6.5-2.9-6.5-6.5v-2.3c0-3.6,2.9-6.5,6.5-6.5h23.5c3.6,0,6.5,2.9,6.5,6.5v2.3
		C354,26.3,351.1,29.2,347.5,29.2z"/>
	<path class="st4" d="M346.5,59.7H323c-3.6,0-6.5-2.9-6.5-6.5v-2.3c0-3.6,2.9-6.5,6.5-6.5h23.5c3.6,0,6.5,2.9,6.5,6.5v2.3
		C352.9,56.8,350,59.7,346.5,59.7z"/>
	<path class="st4" d="M346.5,90.2H323c-3.6,0-6.5-2.9-6.5-6.5v-2.3c0-3.6,2.9-6.5,6.5-6.5h23.5c3.6,0,6.5,2.9,6.5,6.5v2.3
		C352.9,87.3,350,90.2,346.5,90.2z"/>
	<path class="st4" d="M346.5,120.7H323c-3.6,0-6.5-2.9-6.5-6.5v-2.3c0-3.6,2.9-6.5,6.5-6.5h23.5c3.6,0,6.5,2.9,6.5,6.5v2.3
		C352.9,117.8,350,120.7,346.5,120.7z"/>
	<path class="st4" d="M346.5,151.1H323c-3.6,0-6.5-2.9-6.5-6.5v-2.3c0-3.6,2.9-6.5,6.5-6.5h23.5c3.6,0,6.5,2.9,6.5,6.5v2.3
		C352.9,148.3,350,151.1,346.5,151.1z"/>
	<path class="st4" d="M346.5,181.6H323c-3.6,0-6.5-2.9-6.5-6.5v-2.3c0-3.6,2.9-6.5,6.5-6.5h23.5c3.6,0,6.5,2.9,6.5,6.5v2.3
		C352.9,178.7,350,181.6,346.5,181.6z"/>
	<path class="st4" d="M346.5,212.1H323c-3.6,0-6.5-2.9-6.5-6.5v-2.3c0-3.6,2.9-6.5,6.5-6.5h23.5c3.6,0,6.5,2.9,6.5,6.5v2.3
		C352.9,209.2,350,212.1,346.5,212.1z"/>
	<path class="st4" d="M346.5,242.6H323c-3.6,0-6.5-2.9-6.5-6.5v-2.3c0-3.6,2.9-6.5,6.5-6.5h23.5c3.6,0,6.5,2.9,6.5,6.5v2.3
		C352.9,239.7,350,242.6,346.5,242.6z"/>
	<path class="st4" d="M346.5,273.1H323c-3.6,0-6.5-2.9-6.5-6.5v-2.3c0-3.6,2.9-6.5,6.5-6.5h23.5c3.6,0,6.5,2.9,6.5,6.5v2.3
		C352.9,270.2,350,273.1,346.5,273.1z"/>
	<path class="st4" d="M347,303.5h-23.5c-3.6,0-6.5-2.9-6.5-6.5v-2.3c0-3.6,2.9-6.5,6.5-6.5H347c3.6,0,6.5,2.9,6.5,6.5v2.3
		C353.5,300.7,350.6,303.5,347,303.5z"/>
	<path class="st4" d="M347,332h-23.5c-3.6,0-6.5-2.9-6.5-6.5v-2.3c0-3.6,2.9-6.5,6.5-6.5H347c3.6,0,6.5,2.9,6.5,6.5v2.3
		C353.5,329.1,350.6,332,347,332z"/>
	<path class="st4" d="M347,362.5h-23.5c-3.6,0-6.5-2.9-6.5-6.5v-2.3c0-3.6,2.9-6.5,6.5-6.5H347c3.6,0,6.5,2.9,6.5,6.5v2.3
		C353.5,359.6,350.6,362.5,347,362.5z"/>
	<path class="st4" d="M347,393h-23.5c-3.6,0-6.5-2.9-6.5-6.5v-2.3c0-3.6,2.9-6.5,6.5-6.5H347c3.6,0,6.5,2.9,6.5,6.5v2.3
		C353.5,390.1,350.6,393,347,393z"/>
	<path class="st4" d="M347,422.5h-23.5c-3.6,0-6.5-2.9-6.5-6.5v-2.3c0-3.6,2.9-6.5,6.5-6.5H347c3.6,0,6.5,2.9,6.5,6.5v2.3
		C353.5,419.6,350.6,422.5,347,422.5z"/>
	<path class="st4" d="M347,452.9h-23.5c-3.6,0-6.5-2.9-6.5-6.5v-2.3c0-3.6,2.9-6.5,6.5-6.5H347c3.6,0,6.5,2.9,6.5,6.5v2.3
		C353.5,450.1,350.6,452.9,347,452.9z"/>
	<path class="st4" d="M347,483.4h-23.5c-3.6,0-6.5-2.9-6.5-6.5v-2.3c0-3.6,2.9-6.5,6.5-6.5H347c3.6,0,6.5,2.9,6.5,6.5v2.3
		C353.5,480.5,350.6,483.4,347,483.4z"/>
	<path class="st4" d="M347,512.9h-23.5c-3.6,0-6.5-2.9-6.5-6.5v-2.3c0-3.6,2.9-6.5,6.5-6.5H347c3.6,0,6.5,2.9,6.5,6.5v2.3
		C353.5,510,350.6,512.9,347,512.9z"/>
	<path class="st4" d="M347,543.4h-23.5c-3.6,0-6.5-2.9-6.5-6.5v-2.3c0-3.6,2.9-6.5,6.5-6.5H347c3.6,0,6.5,2.9,6.5,6.5v2.3
		C353.5,540.5,350.6,543.4,347,543.4z"/>
</g>
<g id="Слой_4" class="st0">
	<path class="st28" d="M300.3,296.9c0,0.7-0.1,1.5-0.2,2.1l-43.5,160.2c-1.4,4.2-6.3,7.2-10.1,7.2c-3.9,0-4.6-3-6-7.3
		c0,0-47.3-159.4-47.4-159.6c-0.3-0.9-0.4-1.8-0.4-2.8c0-5.9,4.7-10.7,10.5-10.7h86.5C295.6,286.3,300.3,291,300.3,296.9z"/>
	<path class="st29" d="M287.6,121.1h-76.5c-2.6,0-4.7-2.1-4.7-4.7v-9.5c0-2.6,2.1-4.7,4.7-4.7h76.5c2.6,0,4.7,2.1,4.7,4.7v9.5
		C292.3,118.9,290.2,121.1,287.6,121.1z"/>
	<path class="st30" d="M301.9,102.9H193.1c-2.8,0-5-2.2-5-5v-4.2c0-2.8,2.2-5,5-5h108.8c2.8,0,5,2.2,5,5v4.2
		C306.9,100.7,304.6,102.9,301.9,102.9z"/>
	<path class="st31" d="M299.9,141.5v156.3c0,0.2,0,0.3,0,0.5c0,0,0,0,0,0.1l-1.1,3.9l-25.6,92.3l-17.1,61.5c0,0,0,0,0,0l-0.3,1.2
		c-1.3,3.9-5,6.7-9.3,6.7c-3.2,0-6.7-3.4-6.2-7.5c1.1,1.7,2,2.6,3.1,3c3.1,1.1,6.2-1.5,7.4-5.2l0.3-1.1c0,0,0,0,0,0l16.2-58.4
		c0,0,25.2-95.6,25.3-96.8c0-0.2,0-143.4,0-143.4c-0.4-12.6,0.5-16.9-8.3-17.2l-83.6,0.7c-4.6,0.2-4.1,3.6-5.6,7.8l-2-4.4
		c0-5.3,4.3-9.6,9.6-9.6h87.7C295.7,132,299.9,136.3,299.9,141.5z"/>
	<g class="st32">
		<path class="st2" d="M300.4,115.5v6.9c0,3.7-4.5,8.4-13,5.9c4-0.3,8.4-1.4,8.8-6.1l0.1-3.4c0.2-6.4-4.3-8.3-9.2-8.3h-86.9
			c-1,0-1.9,0.1-2.8,0.4c1.6-2.2,4.3-3.7,7.3-3.7h86.9C296.4,107.2,300.4,110.9,300.4,115.5z"/>
	</g>
	<path class="st33" d="M292.7,130.9h-0.5c5.3,0,9.6,4.3,9.6,9.6v157.8c0,0.2,0,0.3,0,0.5v0.1l-26.9,97.1l-17.6,63.3
		c-1.3,3.9-5,6.7-9.4,6.7s-8-2.8-9.4-6.7L221,395.9L194,298.8v-0.1c0-0.2,0-0.3,0-0.5V140.5c0-5.3,4.3-9.6,9.6-9.6h-0.5
		c-5,0-9.1-4.1-9.1-9.1v-7.5c0-0.7,0.1-1.4,0.2-2.1c0.9-4.1,4.5-7,8.8-7h89.6c4.3,0,7.9,3,8.9,7c0.2,0.7,0.2,1.3,0.2,2.1v7.5
		c0,1.3-0.3,2.5-0.7,3.5c-0.3,0.8-0.8,1.6-1.4,2.2c-0.2,0.2-0.4,0.4-0.6,0.6C297.5,129.9,295.3,130.9,292.7,130.9z"/>
	<rect x="202.7" y="128.3" class="st34" width="90.6" height="5.1"/>
	<g class="st34">
		<path class="st35" d="M490.6,328.9l1.1,3.9C491.1,331.6,490.7,330.3,490.6,328.9z"/>
	</g>
	<g class="st34">
		<path class="st35" d="M490.6,328.9C490.6,328.9,490.6,328.9,490.6,328.9L490.6,328.9L490.6,328.9z"/>
	</g>
	<g class="st34">
		<path class="st2" d="M316.5,316.3L316.5,316.3C316.5,316.3,316.5,316.3,316.5,316.3L316.5,316.3z"/>
	</g>
	<g class="st34">
		<path class="st35" d="M491.6,330.7l1.1,4.1C492.1,333.6,491.7,332.2,491.6,330.7z"/>
	</g>
	<g class="st34">
		<path class="st35" d="M491.6,330.7C491.6,330.7,491.6,330.7,491.6,330.7L491.6,330.7L491.6,330.7z"/>
	</g>
	<g class="st34">
		<path class="st2" d="M323.4,317.9L323.4,317.9C323.3,317.9,323.3,317.9,323.4,317.9L323.4,317.9z"/>
	</g>
	<circle class="st36" cx="386.5" cy="350.3" r="120.2"/>
	<g class="st34">
		<path d="M266.3,349.1c0-15.7,3-31.5,9-46c6-14.6,14.9-27.9,26-39.1c11.1-11.2,24.4-20.2,39-26.3c14.5-6.1,30.3-9.3,46.2-9.4
			c15.8-0.1,31.7,2.9,46.4,8.9c14.7,6,28.2,14.9,39.5,26.1c11.3,11.2,20.3,24.7,26.4,39.4c6.1,14.7,9.3,30.6,9.3,46.5
			c0,15.9-3.2,31.8-9.3,46.5c-6.1,14.7-15.2,28.1-26.4,39.4c-11.3,11.2-24.8,20.1-39.5,26.1c-14.7,6-30.6,9-46.4,8.9
			c-15.8-0.1-31.6-3.3-46.2-9.4c-14.6-6.1-27.8-15.2-39-26.3c-11.1-11.2-20-24.5-26-39.1C269.4,380.5,266.3,364.8,266.3,349.1z
			 M266.3,349.1c0,15.7,3.2,31.4,9.2,45.9c6,14.5,15,27.8,26.1,38.9c11.1,11.1,24.5,19.9,39,25.8c14.5,5.9,30.2,8.9,45.8,8.8
			c15.6-0.1,31.2-3.3,45.6-9.3c14.4-6,27.5-15,38.5-26c11-11,19.8-24.2,25.7-38.6c5.9-14.4,8.9-29.9,8.9-45.5
			c0-15.5-3-31.1-8.9-45.5c-5.9-14.4-14.7-27.6-25.7-38.6c-11-11-24.1-20-38.5-26c-14.4-6.1-30-9.2-45.6-9.3
			c-15.6-0.1-31.3,2.9-45.8,8.8c-14.5,5.9-27.9,14.7-39,25.8c-11.1,11.1-20.1,24.4-26.1,38.9C269.5,317.6,266.4,333.3,266.3,349.1z"
			/>
	</g>
	<path class="st37" d="M469.7,366.1H310.9c-1.7,0-3.1-1.4-3.1-3.1l0,0c0-1.7,1.4-3.1,3.1-3.1h158.7c1.7,0,3.1,1.4,3.1,3.1l0,0
		C472.8,364.8,471.4,366.1,469.7,366.1z"/>
	<path class="st38" d="M315.7,361.2v-28.1c0-0.4,0.3-0.7,0.7-0.7h1.8c0.4,0,0.7,0.3,0.7,0.7v28.1c0,0.4-0.3,0.7-0.7,0.7h-1.8
		C316,361.9,315.7,361.6,315.7,361.2z"/>
	<path class="st38" d="M328,361.2v-28.1c0-0.4,0.3-0.7,0.7-0.7h1.8c0.4,0,0.7,0.3,0.7,0.7v28.1c0,0.4-0.3,0.7-0.7,0.7h-1.8
		C328.3,361.9,328,361.6,328,361.2z"/>
	<path class="st38" d="M340.4,361.2v-28.1c0-0.4,0.3-0.7,0.7-0.7h1.8c0.4,0,0.7,0.3,0.7,0.7v28.1c0,0.4-0.3,0.7-0.7,0.7h-1.8
		C340.7,361.9,340.4,361.6,340.4,361.2z"/>
	<path class="st38" d="M352.1,361.2v-28.1c0-0.4,0.3-0.7,0.7-0.7h1.8c0.4,0,0.7,0.3,0.7,0.7v28.1c0,0.4-0.3,0.7-0.7,0.7h-1.8
		C352.4,361.9,352.1,361.6,352.1,361.2z"/>
	<path class="st38" d="M364.2,361.2v-28.1c0-0.4,0.3-0.7,0.7-0.7h1.8c0.4,0,0.7,0.3,0.7,0.7v28.1c0,0.4-0.3,0.7-0.7,0.7h-1.8
		C364.5,361.9,364.2,361.6,364.2,361.2z"/>
	<path class="st38" d="M376.6,361.2v-28.1c0-0.4,0.3-0.7,0.7-0.7h1.8c0.4,0,0.7,0.3,0.7,0.7v28.1c0,0.4-0.3,0.7-0.7,0.7h-1.8
		C376.9,361.9,376.6,361.6,376.6,361.2z"/>
	<path class="st38" d="M401.4,361.2v-28.1c0-0.4,0.3-0.7,0.7-0.7h1.8c0.4,0,0.7,0.3,0.7,0.7v28.1c0,0.4-0.3,0.7-0.7,0.7h-1.8
		C401.7,361.9,401.4,361.6,401.4,361.2z"/>
	<path class="st38" d="M413.8,361.2v-28.1c0-0.4,0.3-0.7,0.7-0.7h1.8c0.4,0,0.7,0.3,0.7,0.7v28.1c0,0.4-0.3,0.7-0.7,0.7h-1.8
		C414.1,361.9,413.8,361.6,413.8,361.2z"/>
	<path class="st38" d="M426.2,361.2v-28.1c0-0.4,0.3-0.7,0.7-0.7h1.8c0.4,0,0.7,0.3,0.7,0.7v28.1c0,0.4-0.3,0.7-0.7,0.7h-1.8
		C426.5,361.9,426.2,361.6,426.2,361.2z"/>
	<path class="st38" d="M437.9,361.2v-28.1c0-0.4,0.3-0.7,0.7-0.7h1.8c0.4,0,0.7,0.3,0.7,0.7v28.1c0,0.4-0.3,0.7-0.7,0.7h-1.8
		C438.2,361.9,437.9,361.6,437.9,361.2z"/>
	<path class="st38" d="M450,361.2v-28.1c0-0.4,0.3-0.7,0.7-0.7h1.8c0.4,0,0.7,0.3,0.7,0.7v28.1c0,0.4-0.3,0.7-0.7,0.7h-1.8
		C450.3,361.9,450,361.6,450,361.2z"/>
	<path class="st38" d="M462.3,361.2v-28.1c0-0.4,0.3-0.7,0.7-0.7h1.8c0.4,0,0.7,0.3,0.7,0.7v28.1c0,0.4-0.3,0.7-0.7,0.7H463
		C462.6,361.9,462.3,361.6,462.3,361.2z"/>
	<path class="st38" d="M388.6,361.2v-28.1c0-0.4,0.3-0.7,0.7-0.7h1.8c0.4,0,0.7,0.3,0.7,0.7v28.1c0,0.4-0.3,0.7-0.7,0.7h-1.8
		C388.9,361.9,388.6,361.6,388.6,361.2z"/>
</g>
<g id="Слой_5" class="st0">
	<path class="st39" d="M463.2,301c0,1.4,0.1,2.9,0.1,4.3c0,85.6-69.4,155-155,155s-155-69.4-155-155c0-85.6,69.4-155,155-155
		c28.8,0,55.8,7.8,78.9,21.5c14.5-17.1,36.2-27.9,60.4-27.9c43.8,0,79.3,35.5,79.3,79.3C526.8,261.7,499.5,293.7,463.2,301z"/>
	<path class="st40" d="M77.7,306.3v-20.2h117.1c3.8-24.9,25.2-43.9,51.2-43.9h150c25.9,0,47.4,19.1,51.2,43.9h117.1v43.3H447.1
		c-3.8,24.9-25.2,43.9-51.2,43.9H246c-25.9,0-47.4-19.1-51.2-43.9H77.7V306.3"/>
	<path class="st41" d="M448,273c0,4.6-1.4,8.8-3.8,12.4c11.4,9.5,18.7,23.8,18.7,39.8v27.7c0,28.6-23.2,51.8-51.8,51.8h-150
		c-28.6,0-51.8-23.2-51.8-51.8v-27.7c0-28.6,23.2-51.8,51.8-51.8h124.5c10.2,0,18.4-8.2,18.4-18.4v-133c0-12.1,9.8-22,22-22
		c6.1,0,11.6,2.5,15.5,6.4c4,4,6.4,9.5,6.4,15.5v101.8c0,10.2,8.2,18.4,18.4,18.4h97.8v22H448V273z"/>
	<path class="st40" d="M224.7,306.3c0,0-1.6-32.9,36.5-32.9c48.8,0,124.5,0,124.5,0s17,0.4,18.4-18.4c1.4-18.8,0-133,0-133
		s0.6-21.1,22-22c21.4-0.9,22,22,22,22v101.8c0,0,0,17.3,18.4,18.4c18.4,1.1,97.8,0,97.8,0"/>
	<rect x="95.1" y="286.1" class="st34" width="2.8" height="43.3"/>
	<rect x="112.2" y="286.6" class="st34" width="2.8" height="43.3"/>
	<rect x="129.3" y="286.6" class="st34" width="2.8" height="43.3"/>
	<rect x="146.3" y="287.2" class="st34" width="2.8" height="43.3"/>
	<rect x="163.4" y="286.6" class="st34" width="2.8" height="43.3"/>
	<rect x="180.5" y="287.2" class="st34" width="2.8" height="43.3"/>
	<rect x="460.4" y="286.1" class="st34" width="2.8" height="43.3"/>
	<rect x="477.5" y="286.6" class="st34" width="2.8" height="43.3"/>
	<rect x="494.6" y="286.6" class="st34" width="2.8" height="43.3"/>
	<rect x="511.6" y="287.2" class="st34" width="2.8" height="43.3"/>
	<rect x="528.7" y="286.6" class="st34" width="2.8" height="43.3"/>
	<rect x="545.8" y="287.2" class="st34" width="2.8" height="43.3"/>
	
		<rect x="424.5" y="183.2" transform="matrix(6.123234e-17 -1 1 6.123234e-17 220.9813 630.7664)" class="st34" width="2.8" height="43.3"/>
	
		<rect x="425" y="201.2" transform="matrix(6.123234e-17 -1 1 6.123234e-17 203.6075 649.2202)" class="st34" width="2.8" height="43.3"/>
	
		<rect x="425" y="166.2" transform="matrix(6.123234e-17 -1 1 6.123234e-17 238.5913 614.2364)" class="st34" width="2.8" height="43.3"/>
	
		<rect x="425" y="149.1" transform="matrix(6.123234e-17 -1 1 6.123234e-17 255.6613 597.1664)" class="st34" width="2.8" height="43.3"/>
	
		<rect x="425.5" y="132" transform="matrix(6.123234e-17 -1 1 6.123234e-17 273.2713 580.6364)" class="st34" width="2.8" height="43.3"/>
	
		<rect x="425" y="115" transform="matrix(6.123234e-17 -1 1 6.123234e-17 289.8013 563.0264)" class="st34" width="2.8" height="43.3"/>
	
		<rect x="425.5" y="97.9" transform="matrix(6.123234e-17 -1 1 6.123234e-17 307.4113 546.4964)" class="st34" width="2.8" height="43.3"/>
	<rect x="296.6" y="242.1" class="st34" width="2.8" height="30.5"/>
	<rect x="313.7" y="242.5" class="st34" width="2.8" height="30.5"/>
	<rect x="330.7" y="242.5" class="st34" width="2.8" height="30.5"/>
	<rect x="347.8" y="242.9" class="st34" width="2.8" height="30.5"/>
	<rect x="364.9" y="242.5" class="st34" width="2.8" height="30.5"/>
	<rect x="382" y="242.9" class="st34" width="2.8" height="30.5"/>
	<rect x="262.6" y="242.1" class="st34" width="2.8" height="30.5"/>
	<rect x="244.1" y="243.3" class="st34" width="2.8" height="30.5"/>
	<rect x="279.7" y="242.5" class="st34" width="2.8" height="30.5"/>
	<rect x="66.7" y="289.2" class="st1" width="22.7" height="37"/>
	<rect x="549.7" y="289.2" class="st1" width="22.7" height="37"/>
	<g class="st34">
		<path d="M285.4,327.9h-0.2c-1.3,1.9-3.3,2.9-6,2.9c-2.5,0-4.4-0.9-5.8-2.6c-1.4-1.7-2.1-4.1-2.1-7.3s0.7-5.6,2.1-7.3
			c1.4-1.7,3.3-2.6,5.8-2.6c2.6,0,4.6,0.9,5.9,2.8h0.2l-0.1-1.4l-0.1-1.3v-7.8h2.9v27h-2.3L285.4,327.9z M279.6,328.4
			c2,0,3.4-0.5,4.3-1.6c0.9-1.1,1.3-2.8,1.3-5.2V321c0-2.7-0.4-4.6-1.3-5.8s-2.3-1.7-4.3-1.7c-1.7,0-3,0.7-3.9,2
			c-0.9,1.3-1.3,3.2-1.3,5.6c0,2.4,0.4,4.3,1.3,5.5C276.6,327.8,277.9,328.4,279.6,328.4z"/>
		<path d="M305.5,307.3c-2.8,0-5,0.9-6.6,2.8s-2.4,4.4-2.4,7.6c0,3.3,0.8,5.9,2.3,7.7c1.6,1.8,3.8,2.7,6.7,2.7c1.8,0,3.8-0.3,6.1-1
			v2.6c-1.8,0.7-3.9,1-6.5,1c-3.7,0-6.6-1.1-8.7-3.4c-2-2.3-3.1-5.5-3.1-9.7c0-2.6,0.5-4.9,1.5-6.9c1-2,2.4-3.5,4.2-4.6
			s4-1.6,6.5-1.6c2.7,0,5,0.5,7,1.5l-1.3,2.5C309.4,307.8,307.5,307.3,305.5,307.3z"/>
		<path d="M328.4,330.4l-0.6-2.7h-0.1c-1,1.2-1.9,2-2.8,2.4c-0.9,0.4-2.1,0.6-3.5,0.6c-1.9,0-3.4-0.5-4.4-1.5
			c-1.1-1-1.6-2.4-1.6-4.2c0-3.8,3.1-5.9,9.2-6l3.2-0.1v-1.2c0-1.5-0.3-2.6-1-3.3s-1.7-1.1-3.1-1.1c-1.6,0-3.4,0.5-5.4,1.5l-0.9-2.2
			c0.9-0.5,2-0.9,3.1-1.2c1.1-0.3,2.2-0.4,3.4-0.4c2.3,0,4,0.5,5,1.5c1.1,1,1.6,2.6,1.6,4.8v13H328.4z M321.9,328.4
			c1.8,0,3.2-0.5,4.2-1.5c1-1,1.5-2.4,1.5-4.1v-1.7l-2.9,0.1c-2.3,0.1-3.9,0.4-5,1.1s-1.5,1.6-1.5,2.9c0,1,0.3,1.8,0.9,2.4
			C319.8,328.1,320.7,328.4,321.9,328.4z"/>
		<path d="M348.8,325.3c0,1.8-0.7,3.1-2,4.1c-1.3,1-3.2,1.4-5.6,1.4c-2.5,0-4.5-0.4-5.9-1.2v-2.7c0.9,0.5,1.9,0.8,2.9,1.1
			s2.1,0.4,3,0.4c1.5,0,2.7-0.2,3.5-0.7c0.8-0.5,1.2-1.2,1.2-2.2c0-0.7-0.3-1.4-1-1.9c-0.6-0.5-1.9-1.2-3.8-1.9
			c-1.8-0.7-3-1.2-3.8-1.7s-1.3-1.1-1.7-1.7c-0.4-0.6-0.5-1.4-0.5-2.2c0-1.6,0.6-2.8,1.9-3.7s3-1.3,5.2-1.3c2.1,0,4.1,0.4,6,1.3
			l-1,2.3c-1.9-0.8-3.6-1.2-5.2-1.2c-1.4,0-2.4,0.2-3.1,0.6s-1,1-1,1.8c0,0.5,0.1,0.9,0.4,1.3s0.7,0.7,1.3,1
			c0.6,0.3,1.7,0.8,3.3,1.4c2.3,0.8,3.8,1.7,4.6,2.5C348.4,322.9,348.8,324,348.8,325.3z"/>
		<path d="M368.8,315.9c0,9.9-3.8,14.9-11.5,14.9c-1.3,0-2.4-0.1-3.2-0.3V328c0.9,0.3,2,0.5,3.2,0.5c2.8,0,4.9-0.9,6.3-2.6
			s2.2-4.4,2.3-7.9h-0.2c-0.6,1-1.5,1.7-2.5,2.2c-1.1,0.5-2.2,0.8-3.6,0.8c-2.2,0-4-0.7-5.4-2s-2-3.2-2-5.6c0-2.6,0.7-4.7,2.2-6.3
			c1.5-1.5,3.4-2.3,5.8-2.3c1.7,0,3.2,0.4,4.5,1.3c1.3,0.9,2.3,2.2,3,3.9C368.5,311.6,368.8,313.6,368.8,315.9z M360.3,307.1
			c-1.7,0-2.9,0.5-3.8,1.6c-0.9,1.1-1.4,2.5-1.4,4.5c0,1.7,0.4,3,1.3,3.9c0.8,1,2.1,1.4,3.8,1.4c1.1,0,2-0.2,2.9-0.6s1.6-1,2.1-1.8
			c0.5-0.7,0.8-1.5,0.8-2.3c0-1.2-0.2-2.3-0.7-3.4c-0.5-1-1.1-1.8-2-2.4S361.4,307.1,360.3,307.1z"/>
	</g>
</g>
<g id="кровь" class="st0">
	<path class="st42" d="M358.8,110.2h-71.2c-3.1,0-5.7,2.5-5.7,5.7v75.9c0,3.1,2.5,5.7,5.7,5.7h71.2c3.1,0,5.7-2.5,5.7-5.7v-75.9
		C364.5,112.8,362,110.2,358.8,110.2z"/>
	<rect x="281.7" y="188.4" class="st43" width="80.7" height="0.8"/>
	<path class="st44" d="M364.5,188.8v277.7c0,21.8-18.5,39.4-41.3,39.4s-41.3-17.6-41.3-39.4V188.8H364.5z"/>
	<path class="st45" d="M358.8,60.7h-71.3c-3.1,0-5.7,2.5-5.7,5.7v38.1c0,3.1,2.5,5.7,5.7,5.7h71.3c3.1,0,5.7-2.5,5.7-5.7V66.4
		C364.5,63.3,362,60.7,358.8,60.7z"/>
	<rect x="330.9" y="60.7" class="st46" width="1.2" height="49.5"/>
	<rect x="338.9" y="60.7" class="st46" width="1.2" height="49.5"/>
	<rect x="345.8" y="60.7" class="st46" width="1.2" height="49.5"/>
	<rect x="351.8" y="60.7" class="st46" width="1.2" height="49.5"/>
	<rect x="357.1" y="60.4" class="st46" width="1.2" height="49.5"/>
	
		<rect x="321.5" y="60" transform="matrix(-1 -1.224647e-16 1.224647e-16 -1 644.142 169.4824)" class="st46" width="1.2" height="49.5"/>
	
		<rect x="311.9" y="59.8" transform="matrix(-1 -1.224647e-16 1.224647e-16 -1 624.9064 169.1224)" class="st46" width="1.2" height="49.5"/>
	
		<rect x="303.8" y="59.8" transform="matrix(-1 -1.224647e-16 1.224647e-16 -1 608.8264 169.1224)" class="st46" width="1.2" height="49.5"/>
	
		<rect x="297" y="59.8" transform="matrix(-1 -1.224647e-16 1.224647e-16 -1 595.1464 169.1224)" class="st46" width="1.2" height="49.5"/>
	
		<rect x="291" y="59.8" transform="matrix(-1 -1.224647e-16 1.224647e-16 -1 583.1464 169.1224)" class="st46" width="1.2" height="49.5"/>
	
		<rect x="285.6" y="59.5" transform="matrix(-1 -1.224647e-16 1.224647e-16 -1 572.4664 168.5796)" class="st46" width="1.2" height="49.5"/>
	<path class="st47" d="M356.8,111.9v7.6c0,3.1-2.7,5.7-6.1,5.7h-56.3c-3.4,0-6.1-2.5-6.1-5.7v-7.6c0-0.7,0.1-1.3,0.4-1.9h67.8
		C356.7,110.5,356.8,111.2,356.8,111.9z"/>
	<path class="st48" d="M363.4,111.8v354.3c0,21-19.1,37.9-42.6,37.9c-22.4,0-38.4-17.3-40.1-36.9c3.4,14.9,15.8,28.1,33.5,28.1
		c20.3,0,36.7-14.6,36.7-32.6V122.1c-0.1-10.3-10.2-10.3-19.8-10.3H363.4z"/>
	<path class="st49" d="M363.4,159v305.7c0,22.8-18.5,41.3-41.3,41.3s-41.3-18.5-41.3-41.3V159c0-0.6,0-1.1,0-1.7v-41.4
		c0-3.1,2.5-5.7,5.7-5.7h0.9c0,0,68,0,68,0h-68.9c-3.1,0-5.7-2.5-5.7-5.7V66.4c0-3.1,2.5-5.7,5.7-5.7h71.3c3.1,0,5.7,2.5,5.7,5.7
		v38.1c0,3.1-2.5,5.7-5.7,5.7h-2.3c0,0,0,0,0,0h2.3c3.1,0,5.7,2.5,5.7,5.7v41.4C363.4,157.9,363.4,158.4,363.4,159z"/>
</g>
</svg>
