<svg xmlns="http://www.w3.org/2000/svg" viewBox="0 0 557.97 557.97">
  <defs>
    <style>
      .\31 da0733c-39ad-45a9-a486-5652a7e4ef47 {
        fill: #f2d245;
      }

      .\34 a1ccd49-3b54-4105-8a45-029a86fde5a6 {
        fill: #feeeac;
        opacity: 0.43;
      }

      .f470cb81-354a-420c-9c18-74dab228909f {
        fill: none;
        stroke: #1d1d1b;
        stroke-miterlimit: 10;
        stroke-width: 6.28px;
      }

      .\38 5f931d5-e6c7-419f-9df3-a1b4d2c1b71b {
        fill: #1d1d1b;
      }
    </style>
  </defs>
  <title>stages-scheme3</title>
  <g id="f00598d8-9b3c-46ff-af9e-82a765939df3" data-name="Слой 1">
    <circle class="1da0733c-39ad-45a9-a486-5652a7e4ef47" cx="278.99" cy="278.99" r="278.99"/>
  </g>
  <g id="545a282a-b0ee-475c-817c-5eb53abd1d9e" data-name="Слой 5">
    <path class="4a1ccd49-3b54-4105-8a45-029a86fde5a6" d="M419.54,301c0,1.42.06,2.85.06,4.28a154.92,154.92,0,1,1-76.13-133.45A79.32,79.32,0,1,1,419.54,301Z"/>
    <path class="f470cb81-354a-420c-9c18-74dab228909f" d="M34,306.27v-20.2H151.16a51.77,51.77,0,0,1,51.18-43.94h150a51.77,51.77,0,0,1,51.18,43.94H520.61v43.3H403.47a51.77,51.77,0,0,1-51.18,43.94h-150a51.77,51.77,0,0,1-51.18-43.94H34v-23.1"/>
    <path class="f470cb81-354a-420c-9c18-74dab228909f" d="M181,306.27s-1.61-32.92,36.5-32.92c48.81,0,124.5,0,124.5,0s17,.35,18.41-18.42,0-133,0-133,.57-21.08,22-22,22,22,22,22V223.71s0,17.29,18.41,18.42,97.82,0,97.82,0"/>
    <rect class="85f931d5-e6c7-419f-9df3-a1b4d2c1b71b" x="51.47" y="286.07" width="2.82" height="43.3"/>
    <rect class="85f931d5-e6c7-419f-9df3-a1b4d2c1b71b" x="68.54" y="286.61" width="2.82" height="43.3"/>
    <rect class="85f931d5-e6c7-419f-9df3-a1b4d2c1b71b" x="85.61" y="286.61" width="2.82" height="43.3"/>
    <rect class="85f931d5-e6c7-419f-9df3-a1b4d2c1b71b" x="102.68" y="287.15" width="2.82" height="43.3"/>
    <rect class="85f931d5-e6c7-419f-9df3-a1b4d2c1b71b" x="119.75" y="286.61" width="2.82" height="43.3"/>
    <rect class="85f931d5-e6c7-419f-9df3-a1b4d2c1b71b" x="136.82" y="287.15" width="2.82" height="43.3"/>
    <rect class="85f931d5-e6c7-419f-9df3-a1b4d2c1b71b" x="416.78" y="286.07" width="2.82" height="43.3"/>
    <rect class="85f931d5-e6c7-419f-9df3-a1b4d2c1b71b" x="433.85" y="286.61" width="2.82" height="43.3"/>
    <rect class="85f931d5-e6c7-419f-9df3-a1b4d2c1b71b" x="450.92" y="286.61" width="2.82" height="43.3"/>
    <rect class="85f931d5-e6c7-419f-9df3-a1b4d2c1b71b" x="467.99" y="287.15" width="2.82" height="43.3"/>
    <rect class="85f931d5-e6c7-419f-9df3-a1b4d2c1b71b" x="485.06" y="286.61" width="2.82" height="43.3"/>
    <rect class="85f931d5-e6c7-419f-9df3-a1b4d2c1b71b" x="502.13" y="287.15" width="2.82" height="43.3"/>
    <rect class="85f931d5-e6c7-419f-9df3-a1b4d2c1b71b" x="380.81" y="183.24" width="2.82" height="43.3" transform="translate(177.32 587.11) rotate(-90)"/>
    <rect class="85f931d5-e6c7-419f-9df3-a1b4d2c1b71b" x="381.35" y="201.16" width="2.82" height="43.3" transform="translate(159.95 605.56) rotate(-90)"/>
    <rect class="85f931d5-e6c7-419f-9df3-a1b4d2c1b71b" x="381.35" y="166.17" width="2.82" height="43.3" transform="translate(194.93 570.58) rotate(-90)"/>
    <rect class="85f931d5-e6c7-419f-9df3-a1b4d2c1b71b" x="381.35" y="149.1" width="2.82" height="43.3" transform="translate(212 553.51) rotate(-90)"/>
    <rect class="85f931d5-e6c7-419f-9df3-a1b4d2c1b71b" x="381.89" y="132.03" width="2.82" height="43.3" transform="translate(229.61 536.98) rotate(-90)"/>
    <rect class="85f931d5-e6c7-419f-9df3-a1b4d2c1b71b" x="381.35" y="114.96" width="2.82" height="43.3" transform="translate(246.14 519.37) rotate(-90)"/>
    <rect class="85f931d5-e6c7-419f-9df3-a1b4d2c1b71b" x="381.89" y="97.89" width="2.82" height="43.3" transform="translate(263.75 502.84) rotate(-90)"/>
    <rect class="85f931d5-e6c7-419f-9df3-a1b4d2c1b71b" x="252.95" y="242.13" width="2.82" height="30.45"/>
    <rect class="85f931d5-e6c7-419f-9df3-a1b4d2c1b71b" x="270.02" y="242.51" width="2.82" height="30.45"/>
    <rect class="85f931d5-e6c7-419f-9df3-a1b4d2c1b71b" x="287.09" y="242.51" width="2.82" height="30.45"/>
    <rect class="85f931d5-e6c7-419f-9df3-a1b4d2c1b71b" x="304.16" y="242.89" width="2.82" height="30.45"/>
    <rect class="85f931d5-e6c7-419f-9df3-a1b4d2c1b71b" x="321.23" y="242.51" width="2.82" height="30.45"/>
    <rect class="85f931d5-e6c7-419f-9df3-a1b4d2c1b71b" x="338.3" y="242.89" width="2.82" height="30.45"/>
    <rect class="85f931d5-e6c7-419f-9df3-a1b4d2c1b71b" x="218.93" y="242.13" width="2.82" height="30.45"/>
    <rect class="85f931d5-e6c7-419f-9df3-a1b4d2c1b71b" x="200.42" y="243.33" width="2.82" height="30.45"/>
    <rect class="85f931d5-e6c7-419f-9df3-a1b4d2c1b71b" x="236" y="242.51" width="2.82" height="30.45"/>
    <rect class="1da0733c-39ad-45a9-a486-5652a7e4ef47" x="23.06" y="289.19" width="22.68" height="37.03"/>
    <rect class="1da0733c-39ad-45a9-a486-5652a7e4ef47" x="506.09" y="289.2" width="22.68" height="37.04"/>
    <g>
      <path class="85f931d5-e6c7-419f-9df3-a1b4d2c1b71b" d="M241.7,327.89h-.15a6.79,6.79,0,0,1-6,2.91,7.11,7.11,0,0,1-5.82-2.56c-1.38-1.7-2.08-4.12-2.08-7.27s.7-5.58,2.09-7.31a7,7,0,0,1,5.81-2.61,6.94,6.94,0,0,1,5.94,2.81h.23l-.12-1.37-.07-1.34V303.4h2.88v27.05h-2.34Zm-5.77.49a5.28,5.28,0,0,0,4.29-1.61c.88-1.07,1.33-2.8,1.33-5.19V321c0-2.7-.45-4.62-1.35-5.78a5.12,5.12,0,0,0-4.3-1.72,4.41,4.41,0,0,0-3.89,2,9.78,9.78,0,0,0-1.35,5.57,9.43,9.43,0,0,0,1.34,5.51A4.54,4.54,0,0,0,235.93,328.38Z"/>
      <path class="85f931d5-e6c7-419f-9df3-a1b4d2c1b71b" d="M261.87,307.31a8.33,8.33,0,0,0-6.62,2.79,11.29,11.29,0,0,0-2.42,7.64q0,5,2.34,7.71a8.32,8.32,0,0,0,6.66,2.72,23,23,0,0,0,6.07-.95v2.58a18.43,18.43,0,0,1-6.52,1q-5.61,0-8.66-3.41t-3.06-9.68a15.3,15.3,0,0,1,1.47-6.89,10.52,10.52,0,0,1,4.25-4.55,12.76,12.76,0,0,1,6.52-1.6,15.78,15.78,0,0,1,7,1.46l-1.25,2.54A13.38,13.38,0,0,0,261.87,307.31Z"/>
      <path class="85f931d5-e6c7-419f-9df3-a1b4d2c1b71b" d="M284.73,330.45l-.58-2.71H284a8.06,8.06,0,0,1-2.85,2.42,8.67,8.67,0,0,1-3.53.64,6.41,6.41,0,0,1-4.45-1.46,5.34,5.34,0,0,1-1.6-4.16q0-5.78,9.23-6.05l3.23-.1v-1.19a4.81,4.81,0,0,0-1-3.31,4,4,0,0,0-3.08-1.06,12.61,12.61,0,0,0-5.39,1.45l-.89-2.2a13.6,13.6,0,0,1,3.09-1.2,13.36,13.36,0,0,1,3.36-.44,7.24,7.24,0,0,1,5.05,1.52q1.65,1.5,1.65,4.85v13Zm-6.52-2a5.87,5.87,0,0,0,4.23-1.47A5.47,5.47,0,0,0,284,322.8v-1.72l-2.89.12a10.52,10.52,0,0,0-5,1.07,3.23,3.23,0,0,0-1.52,3,3,3,0,0,0,.95,2.38A3.94,3.94,0,0,0,278.21,328.41Z"/>
      <path class="85f931d5-e6c7-419f-9df3-a1b4d2c1b71b" d="M305.1,325.25a4.77,4.77,0,0,1-2,4.1,9.26,9.26,0,0,1-5.56,1.45,12.07,12.07,0,0,1-5.91-1.2v-2.68a13.92,13.92,0,0,0,2.94,1.09,12.16,12.16,0,0,0,3,.4,6.88,6.88,0,0,0,3.47-.72,2.48,2.48,0,0,0,.26-4.1,15.25,15.25,0,0,0-3.77-1.87,20.7,20.7,0,0,1-3.78-1.73,5.13,5.13,0,0,1-1.67-1.68,4.4,4.4,0,0,1-.55-2.24,4.27,4.27,0,0,1,1.9-3.67,8.82,8.82,0,0,1,5.2-1.35,15.27,15.27,0,0,1,6,1.25l-1,2.35a13.82,13.82,0,0,0-5.2-1.18,6,6,0,0,0-3.1.64,2,2,0,0,0-1,1.77,2.13,2.13,0,0,0,.39,1.3,3.79,3.79,0,0,0,1.26,1,27.92,27.92,0,0,0,3.34,1.41,12.46,12.46,0,0,1,4.58,2.48A4.42,4.42,0,0,1,305.1,325.25Z"/>
      <path class="85f931d5-e6c7-419f-9df3-a1b4d2c1b71b" d="M325.18,315.88q0,14.91-11.54,14.92a11.8,11.8,0,0,1-3.2-.35V328a10.26,10.26,0,0,0,3.16.45,7.7,7.7,0,0,0,6.3-2.58c1.42-1.72,2.2-4.36,2.32-7.91H322a6.2,6.2,0,0,1-2.54,2.19,8.1,8.1,0,0,1-3.57.76,7.13,7.13,0,0,1-5.35-2,7.68,7.68,0,0,1-2-5.63,8.67,8.67,0,0,1,2.21-6.26,8.5,8.5,0,0,1,10.37-1,8.41,8.41,0,0,1,3,3.88A15.82,15.82,0,0,1,325.18,315.88Zm-8.55-8.74a4.74,4.74,0,0,0-3.84,1.6,6.63,6.63,0,0,0-1.36,4.45,5.77,5.77,0,0,0,1.25,3.93,4.77,4.77,0,0,0,3.81,1.44,6.74,6.74,0,0,0,2.91-.64,5.25,5.25,0,0,0,2.09-1.76,4.06,4.06,0,0,0,.77-2.33,8,8,0,0,0-.71-3.37,6,6,0,0,0-2-2.44A5,5,0,0,0,316.63,307.14Z"/>
    </g>
  </g>
</svg>
