<svg xmlns="http://www.w3.org/2000/svg" viewBox="0 0 734.4 734.4"><defs><style>.cls-1{fill:#f2d245;}.cls-2{fill:#feeeac;opacity:0.72;}.cls-3{fill:#fff;opacity:0.18;}.cls-4,.cls-5,.cls-6,.cls-7{fill:none;stroke-miterlimit:10;}.cls-4,.cls-5{stroke:#818182;}.cls-4,.cls-6{stroke-width:4.77px;}.cls-5{stroke-width:15.31px;}.cls-6,.cls-7{stroke:#1d1d1b;}.cls-7{stroke-width:5.4px;}</style></defs><g id="Слой_8" data-name="Слой 8"><circle class="cls-1" cx="367.2" cy="367.2" r="367.2"/><path class="cls-2" d="M825.09,521.25c0,124-99.74,224.66-223.35,226.18C477.6,749,374.66,649,372.73,524.87a225.86,225.86,0,0,1,95.8-188.47,37,37,0,0,0,12-46.2A131.09,131.09,0,0,1,467.66,229c2.2-69.19,58.65-125.26,127.86-127A131.35,131.35,0,0,1,717,290.75a35.85,35.85,0,0,0,11.59,45.17A225.9,225.9,0,0,1,825.09,521.25Z" transform="translate(-229.96 -57.52)"/><path class="cls-3" d="M617.87,746.66q-8,.68-16.13.77C477.6,749,374.66,649,372.73,524.87a225.86,225.86,0,0,1,95.8-188.47,37,37,0,0,0,12-46.2A131.09,131.09,0,0,1,467.66,229c2.2-69.19,58.65-125.26,127.86-127,2.05,0,4.08-.06,6.11,0-64,7.1-114.61,60.79-116.69,126.22a131.09,131.09,0,0,0,12.87,61.16,37,37,0,0,1-12,46.2A225.86,225.86,0,0,0,390,524.09C391.93,647.84,494.24,747.56,617.87,746.66Z" transform="translate(-229.96 -57.52)"/><line class="cls-4" x1="318.53" y1="269.7" x2="420.88" y2="268.94"/><line class="cls-4" x1="320.44" y1="300.69" x2="422.8" y2="299.93"/><line class="cls-4" x1="319.49" y1="331.14" x2="421.84" y2="330.38"/><line class="cls-4" x1="319.49" y1="362.35" x2="421.84" y2="361.59"/><line class="cls-4" x1="318.53" y1="392.8" x2="420.88" y2="392.03"/><line class="cls-4" x1="319" y1="423.79" x2="421.36" y2="423.02"/><line class="cls-4" x1="318.04" y1="454.23" x2="420.4" y2="453.47"/><line class="cls-4" x1="318.05" y1="485.44" x2="420.4" y2="484.68"/><path class="cls-5" d="M416.86,618.57h73.86a57.77,57.77,0,0,0,57.77-57.77V313.08a31.33,31.33,0,0,0-9.53-22.4,86.6,86.6,0,0,1-26.16-64.17c1.07-47.25,40.77-85.48,88-84.86a86.89,86.89,0,0,1,59.6,149,31.45,31.45,0,0,0-9.59,22.46V560.8a57.77,57.77,0,0,0,57.77,57.77h73.86" transform="translate(-229.96 -57.52)"/><path class="cls-6" d="M626.86,296.65V561.17a17.34,17.34,0,0,0,17.35,17.34h0a17.34,17.34,0,0,0,17.34-17.34V439.84a27.91,27.91,0,0,1,5.38-16.46L736.71,328A17.35,17.35,0,0,1,761,324.21h0a17.33,17.33,0,0,1,3.76,24.24L699.63,437.6a14.44,14.44,0,0,0-1.14,15.22L734.16,521" transform="translate(-229.96 -57.52)"/><path class="cls-7" d="M626.71,578.51" transform="translate(-229.96 -57.52)"/></g></svg>