<svg xmlns="http://www.w3.org/2000/svg" viewBox="0 0 557.97 557.97">
  <defs>
    <style>
      .cls-1 {
        fill: #f2d245;
      }

      .cls-2 {
        fill: #ddc351;
      }

      .cls-3 {
        fill: #701325;
      }

      .cls-3, .cls-6, .cls-8 {
        stroke: #1d1d1b;
        stroke-miterlimit: 10;
      }

      .cls-4 {
        fill: #ad1830;
      }

      .cls-5 {
        fill: #5c5c5c;
      }

      .cls-6 {
        fill: #838484;
      }

      .cls-7 {
        fill: #fff;
        opacity: 0.28;
      }

      .cls-8 {
        fill: none;
        stroke-width: 3px;
      }
    </style>
  </defs>
  <title>stagees-scheme1</title>
  <g id="Слой_1" data-name="Слой 1">
    <circle class="cls-1" cx="278.99" cy="278.99" r="278.99"/>
  </g>
  <g id="кровь">
    <rect class="cls-2" x="238.29" y="110.22" width="82.57" height="87.26" rx="5.67" ry="5.67"/>
    <rect class="cls-3" x="238.07" y="188.42" width="80.69" height="0.84"/>
    <path class="cls-4" d="M320.89,188.84V466.58c0,21.78-18.5,39.43-41.32,39.43s-41.32-17.65-41.32-39.43V188.84Z"/>
    <rect class="cls-5" x="238.26" y="60.72" width="82.6" height="49.48" rx="5.67" ry="5.67"/>
    <rect x="287.22" y="60.72" width="1.19" height="49.48"/>
    <rect x="295.26" y="60.72" width="1.19" height="49.48"/>
    <rect x="302.1" y="60.72" width="1.19" height="49.48"/>
    <rect x="308.1" y="60.72" width="1.19" height="49.48"/>
    <rect x="313.44" y="60.45" width="1.19" height="49.48"/>
    <rect x="277.82" y="60" width="1.19" height="49.48" transform="translate(556.83 169.48) rotate(180)"/>
    <rect x="268.2" y="59.82" width="1.19" height="49.48" transform="translate(537.59 169.12) rotate(180)"/>
    <rect x="260.16" y="59.82" width="1.19" height="49.48" transform="translate(521.51 169.12) rotate(180)"/>
    <rect x="253.32" y="59.82" width="1.19" height="49.48" transform="translate(507.83 169.12) rotate(180)"/>
    <rect x="247.32" y="59.82" width="1.19" height="49.48" transform="translate(495.83 169.12) rotate(180)"/>
    <rect x="241.98" y="59.55" width="1.19" height="49.48" transform="translate(485.15 168.58) rotate(180)"/>
    <path class="cls-6" d="M313.13,111.87v7.64a5.92,5.92,0,0,1-6.14,5.67h-56.3a5.92,5.92,0,0,1-6.14-5.67v-7.64a5.23,5.23,0,0,1,.37-1.94h67.84A5.23,5.23,0,0,1,313.13,111.87Z"/>
    <path class="cls-7" d="M319.74,111.8V466.13c0,20.95-19.08,37.92-42.61,37.92-22.41,0-38.35-17.31-40-36.87,3.36,14.94,15.75,28.12,33.54,28.12,20.26,0,36.69-14.61,36.69-32.65V122.12c-.12-10.32-10.15-10.32-19.76-10.32Z"/>
    <path class="cls-8" d="M319.73,159V464.7a41.32,41.32,0,0,1-82.64,0V159c0-.57,0-1.14,0-1.71v-41.4a5.67,5.67,0,0,1,5.67-5.67h.86s68,0,68,0H242.77a5.67,5.67,0,0,1-5.67-5.67V66.39a5.67,5.67,0,0,1,5.67-5.67H314a5.67,5.67,0,0,1,5.67,5.67v38.14A5.67,5.67,0,0,1,314,110.2h-2.34a0,0,0,0,1,0,0H314a5.67,5.67,0,0,1,5.67,5.67v41.4C319.72,157.86,319.73,158.43,319.73,159Z"/>
  </g>
</svg>
