<svg width="600" height="147" viewBox="0 0 600 147" fill="none" xmlns="http://www.w3.org/2000/svg">
<rect width="600" height="7" transform="matrix(-1 0 0 1 600 0)" fill="url(#paint0_linear)"/>
<rect width="600" height="7" transform="matrix(-1 0 0 1 600 10)" fill="url(#paint1_linear)"/>
<rect width="600" height="7" transform="matrix(-1 0 0 1 600 20)" fill="url(#paint2_linear)"/>
<rect width="599.905" height="7" transform="matrix(-1 0 0 1 599.905 30)" fill="url(#paint3_linear)"/>
<rect width="600" height="7" transform="matrix(-1 0 0 1 600 40)" fill="url(#paint4_linear)"/>
<rect width="600" height="7" transform="matrix(-1 0 0 1 600 50)" fill="url(#paint5_linear)"/>
<rect width="600" height="7" transform="matrix(-1 0 0 1 600 60)" fill="url(#paint6_linear)"/>
<rect width="599.905" height="7" transform="matrix(-1 0 0 1 599.905 70)" fill="url(#paint7_linear)"/>
<rect width="599.905" height="7" transform="matrix(-1 0 0 1 599.905 80)" fill="url(#paint8_linear)"/>
<rect width="599.905" height="7" transform="matrix(-1 0 0 1 599.905 90)" fill="url(#paint9_linear)"/>
<rect width="600" height="7" transform="matrix(-1 0 0 1 600 100)" fill="url(#paint10_linear)"/>
<rect width="600" height="7" transform="matrix(-1 0 0 1 600 110)" fill="url(#paint11_linear)"/>
<rect width="600" height="7" transform="matrix(-1 0 0 1 600 120)" fill="url(#paint12_linear)"/>
<rect width="600" height="7" transform="matrix(-1 0 0 1 600 130)" fill="url(#paint13_linear)"/>
<rect width="600" height="7" transform="matrix(-1 0 0 1 600 140)" fill="url(#paint14_linear)"/>
<defs>
<linearGradient id="paint0_linear" x1="144.293" y1="3.5" x2="600" y2="3.49946" gradientUnits="userSpaceOnUse">
<stop stop-color="#F1D345"/>
<stop offset="1" stop-color="#FEED50"/>
</linearGradient>
<linearGradient id="paint1_linear" x1="144.293" y1="3.5" x2="600" y2="3.49946" gradientUnits="userSpaceOnUse">
<stop stop-color="#F1D345"/>
<stop offset="1" stop-color="#FEED50"/>
</linearGradient>
<linearGradient id="paint2_linear" x1="144.293" y1="3.5" x2="600" y2="3.49946" gradientUnits="userSpaceOnUse">
<stop stop-color="#F1D345"/>
<stop offset="1" stop-color="#FEED50"/>
</linearGradient>
<linearGradient id="paint3_linear" x1="144.271" y1="3.5" x2="599.905" y2="3.49946" gradientUnits="userSpaceOnUse">
<stop stop-color="#F1D345"/>
<stop offset="1" stop-color="#FEED50"/>
</linearGradient>
<linearGradient id="paint4_linear" x1="144.293" y1="3.5" x2="600" y2="3.49946" gradientUnits="userSpaceOnUse">
<stop stop-color="#F1D345"/>
<stop offset="1" stop-color="#FEED50"/>
</linearGradient>
<linearGradient id="paint5_linear" x1="144.293" y1="3.5" x2="600" y2="3.49946" gradientUnits="userSpaceOnUse">
<stop stop-color="#F1D345"/>
<stop offset="1" stop-color="#FEED50"/>
</linearGradient>
<linearGradient id="paint6_linear" x1="144.293" y1="3.5" x2="600" y2="3.49946" gradientUnits="userSpaceOnUse">
<stop stop-color="#F1D345"/>
<stop offset="1" stop-color="#FEED50"/>
</linearGradient>
<linearGradient id="paint7_linear" x1="144.271" y1="3.5" x2="599.905" y2="3.49946" gradientUnits="userSpaceOnUse">
<stop stop-color="#F1D345"/>
<stop offset="1" stop-color="#FEED50"/>
</linearGradient>
<linearGradient id="paint8_linear" x1="144.271" y1="3.5" x2="599.905" y2="3.49946" gradientUnits="userSpaceOnUse">
<stop stop-color="#F1D345"/>
<stop offset="1" stop-color="#FEED50"/>
</linearGradient>
<linearGradient id="paint9_linear" x1="144.271" y1="3.5" x2="599.905" y2="3.49946" gradientUnits="userSpaceOnUse">
<stop stop-color="#F1D345"/>
<stop offset="1" stop-color="#FEED50"/>
</linearGradient>
<linearGradient id="paint10_linear" x1="144.293" y1="3.5" x2="600" y2="3.49946" gradientUnits="userSpaceOnUse">
<stop stop-color="#F1D345"/>
<stop offset="1" stop-color="#FEED50"/>
</linearGradient>
<linearGradient id="paint11_linear" x1="144.293" y1="3.5" x2="600" y2="3.49946" gradientUnits="userSpaceOnUse">
<stop stop-color="#F1D345"/>
<stop offset="1" stop-color="#FEED50"/>
</linearGradient>
<linearGradient id="paint12_linear" x1="144.293" y1="3.5" x2="600" y2="3.49946" gradientUnits="userSpaceOnUse">
<stop stop-color="#F1D345"/>
<stop offset="1" stop-color="#FEED50"/>
</linearGradient>
<linearGradient id="paint13_linear" x1="144.293" y1="3.5" x2="600" y2="3.49946" gradientUnits="userSpaceOnUse">
<stop stop-color="#F1D345"/>
<stop offset="1" stop-color="#FEED50"/>
</linearGradient>
<linearGradient id="paint14_linear" x1="144.293" y1="3.5" x2="600" y2="3.49946" gradientUnits="userSpaceOnUse">
<stop stop-color="#F1D345"/>
<stop offset="1" stop-color="#FEED50"/>
</linearGradient>
</defs>
</svg>
